<svg width="31" height="31" viewBox="0 0 31 31" fill="none" xmlns="http://www.w3.org/2000/svg">
<path d="M15.5 0.916672C6.99004 0.916672 0.083374 7.45001 0.083374 15.5C0.083374 23.55 6.99004 30.0833 15.5 30.0833C24.01 30.0833 30.9167 23.55 30.9167 15.5C30.9167 7.45001 24.01 0.916672 15.5 0.916672ZM15.5 5.29167C18.0592 5.29167 20.125 7.24584 20.125 9.66667C20.125 12.0875 18.0592 14.0417 15.5 14.0417C12.9409 14.0417 10.875 12.0875 10.875 9.66667C10.875 7.24584 12.9409 5.29167 15.5 5.29167ZM15.5 26C11.6459 26 8.23879 24.1333 6.25004 21.3042C6.29629 18.4021 12.4167 16.8125 15.5 16.8125C18.568 16.8125 24.7038 18.4021 24.75 21.3042C22.7613 24.1333 19.3542 26 15.5 26Z" fill="#4263EB"/>
</svg>
