<svg width="29" height="25" viewBox="0 0 29 25" fill="none" xmlns="http://www.w3.org/2000/svg">
<path d="M22.9583 3.125H6.04167C4.7125 3.125 3.625 4.0625 3.625 5.20833V19.7917C3.625 20.9375 4.7125 21.875 6.04167 21.875H22.9583C24.2875 21.875 25.375 20.9375 25.375 19.7917V5.20833C25.375 4.0625 24.2875 3.125 22.9583 3.125ZM22.9583 19.7917H6.04167V5.20833H22.9583V19.7917Z" fill="#4263EB"/>
<path d="M8.45837 12.5H10.875V17.7083H8.45837V12.5Z" fill="#4263EB"/>
<path d="M18.125 7.29167H20.5417V17.7083H18.125V7.29167Z" fill="#4263EB"/>
<path d="M13.2917 14.5833H15.7084V17.7083H13.2917V14.5833Z" fill="#4263EB"/>
<path d="M13.2917 10.4167H15.7084V12.5H13.2917V10.4167Z" fill="#4263EB"/>
</svg>
