<svg width="40" height="40" viewBox="0 0 40 40" fill="none" xmlns="http://www.w3.org/2000/svg">
<rect x="1" y="1" width="38" height="38" rx="15" fill="#4263EB" stroke="white" stroke-width="2"/>
<path d="M24.9999 15.0001C24.4916 15.0001 24.0249 14.7084 23.7916 14.2584L23.1916 13.0501C22.8083 12.2917 21.8083 11.6667 20.9583 11.6667H19.0499C18.1916 11.6667 17.1916 12.2917 16.8083 13.0501L16.2083 14.2584C15.9749 14.7084 15.5083 15.0001 14.9999 15.0001C13.1916 15.0001 11.7583 16.5251 11.8749 18.3251L12.3083 25.2084C12.4083 26.9251 13.3333 28.3334 15.6333 28.3334H24.3666C26.6666 28.3334 27.5833 26.9251 27.6916 25.2084L28.1249 18.3251C28.2416 16.5251 26.8083 15.0001 24.9999 15.0001ZM18.7499 16.0417H21.2499C21.5916 16.0417 21.8749 16.3251 21.8749 16.6667C21.8749 17.0084 21.5916 17.2917 21.2499 17.2917H18.7499C18.4083 17.2917 18.1249 17.0084 18.1249 16.6667C18.1249 16.3251 18.4083 16.0417 18.7499 16.0417ZM19.9999 25.1001C18.4499 25.1001 17.1833 23.8417 17.1833 22.2834C17.1833 20.7251 18.4416 19.4667 19.9999 19.4667C21.5583 19.4667 22.8166 20.7251 22.8166 22.2834C22.8166 23.8417 21.5499 25.1001 19.9999 25.1001Z" fill="white"/>
</svg>
