<svg width="28" height="29" viewBox="0 0 28 29" fill="none" xmlns="http://www.w3.org/2000/svg">
<path d="M8.64833 22.81C7.13216 22.81 5.90544 24.0505 5.90544 25.5667C5.90544 27.0828 7.13216 28.3233 8.64833 28.3233C10.1645 28.3233 11.405 27.0828 11.405 25.5667C11.405 24.0505 10.1645 22.81 8.64833 22.81ZM22.4317 22.81C20.9155 22.81 19.6888 24.0505 19.6888 25.5667C19.6888 27.0828 20.9155 28.3233 22.4317 28.3233C23.9478 28.3233 25.1883 27.0828 25.1883 25.5667C25.1883 24.0505 23.9478 22.81 22.4317 22.81ZM20.4331 15.9183C21.4668 15.9183 22.3765 15.3532 22.8452 14.4987L27.7796 5.55327C28.2896 4.64357 27.628 3.51333 26.5804 3.51333H6.18111L4.88548 0.756668H0.378326V3.51333H3.13499L8.09699 13.9749L6.23624 17.338C5.23006 19.185 6.55326 21.4317 8.64833 21.4317H25.1883V18.675H8.64833L10.1645 15.9183H20.4331ZM7.49053 6.27H24.2373L20.4331 13.1617H10.7572L7.49053 6.27Z" fill="#4263EB"/>
</svg>
