<svg width="200" height="200" viewBox="0 0 200 200" fill="none" xmlns="http://www.w3.org/2000/svg">
<path d="M100 6C100 2.68629 102.689 -0.0187674 105.997 0.179886C126.46 1.40883 146.106 8.90399 162.228 21.7207C179.92 35.7851 192.326 55.4281 197.424 77.4471C202.521 99.4661 200.009 122.563 190.297 142.971C181.446 161.569 167.093 176.934 149.251 187.031C146.367 188.663 142.763 187.414 141.307 184.438L137.792 177.252C136.335 174.275 137.582 170.701 140.441 169.026C154.232 160.946 165.33 148.892 172.237 134.377C180.007 118.05 182.017 99.5729 177.939 81.9577C173.861 64.3425 163.936 48.6281 149.783 37.3766C137.199 27.3734 121.933 21.4223 105.995 20.2248C102.69 19.9766 100 17.3137 100 14V6Z" fill="#4263EB"/>
<path d="M134.896 187.283C136.127 190.359 134.634 193.869 131.489 194.913C112.117 201.34 91.1898 201.7 71.5327 195.862C51.8755 190.025 34.5362 178.302 21.8123 162.343C19.7465 159.752 20.4115 155.997 23.1217 154.09L29.6645 149.487C32.3746 147.58 36.1006 148.248 38.2051 150.807C48.3102 163.098 61.8859 172.135 77.2262 176.69C92.5664 181.245 108.874 181.083 124.049 176.3C127.21 175.304 130.696 176.777 131.926 179.854L134.896 187.283Z" fill="#907FFA"/>
<path d="M19.3165 148.23C16.4722 149.931 12.7707 149.011 11.2441 146.069C3.42403 131.004 -0.44788 114.163 0.041198 97.1298C0.530276 80.0969 5.36214 63.5057 14.0338 48.9137C15.7266 46.065 19.4748 45.3588 22.2169 47.2195L28.8367 51.7114C31.5787 53.5721 32.2717 57.2933 30.6217 60.1671C24.0649 71.5871 20.4127 84.479 20.033 97.7039C19.6532 110.929 22.5597 124.009 28.4504 135.786C29.9328 138.75 29.0274 142.425 26.1832 144.126L19.3165 148.23Z" fill="#CCCACF"/>
<path d="M26.5038 41.3971C23.9129 39.3312 23.4741 35.5425 25.6917 33.0801C33.6491 24.244 43.1302 16.8857 53.6983 11.3651C64.2663 5.84447 75.7218 2.2658 87.52 0.781805C90.8078 0.368256 93.6669 2.89259 93.8825 6.19927L94.4032 14.1823C94.6188 17.489 92.1078 20.3213 88.8265 20.7841C79.8078 22.0562 71.0575 24.8613 62.9586 29.0921C54.8598 33.3228 47.5589 38.9026 41.363 45.5784C39.1088 48.0073 35.3497 48.4504 32.7588 46.3845L26.5038 41.3971Z" fill="#211F32"/>
<path d="M61.5764 99.4H64.8404V97.228C66.3444 96.964 67.5484 96.356 68.4524 95.404C69.3564 94.444 69.8084 93.264 69.8084 91.864C69.8084 90.624 69.4684 89.628 68.7884 88.876C68.1164 88.124 67.0164 87.528 65.4884 87.088L62.4404 86.224C61.6724 86.008 61.1124 85.752 60.7604 85.456C60.4084 85.152 60.2324 84.792 60.2324 84.376C60.2324 83.808 60.5044 83.336 61.0484 82.96C61.6004 82.584 62.2724 82.408 63.0644 82.432C63.8964 82.456 64.6044 82.708 65.1884 83.188C65.7804 83.66 66.1604 84.28 66.3284 85.048L69.6884 84.448C69.3524 83.128 68.7684 82.056 67.9364 81.232C67.1124 80.4 66.0804 79.848 64.8404 79.576V77.344H61.5764V79.504C60.1524 79.736 59.0324 80.296 58.2164 81.184C57.4004 82.072 56.9924 83.192 56.9924 84.544C56.9924 86.792 58.2244 88.296 60.6884 89.056L64.9604 90.376C66.0324 90.728 66.5684 91.304 66.5684 92.104C66.5684 92.728 66.2684 93.252 65.6684 93.676C65.0764 94.1 64.3284 94.312 63.4244 94.312C62.4644 94.312 61.6364 94.032 60.9404 93.472C60.2524 92.912 59.8004 92.16 59.5844 91.216L56.3444 91.72C56.5604 93.176 57.1284 94.384 58.0484 95.344C58.9764 96.304 60.1524 96.924 61.5764 97.204V99.4ZM78.1634 97.36C79.2514 97.36 80.2514 97.104 81.1634 96.592C82.0754 96.072 82.8074 95.376 83.3594 94.504C83.9114 93.624 84.1874 92.64 84.1874 91.552C84.1874 90.464 83.9514 89.496 83.4794 88.648C83.0154 87.8 82.3674 87.132 81.5354 86.644C80.7114 86.156 79.7554 85.912 78.6674 85.912C77.4754 85.912 76.4114 86.268 75.4754 86.98V85.504C75.4754 84.976 75.5994 84.48 75.8474 84.016C76.1034 83.544 76.4594 83.164 76.9154 82.876C77.3794 82.58 77.9234 82.432 78.5474 82.432C79.3794 82.432 80.0994 82.736 80.7074 83.344L83.0354 81.016C82.4034 80.424 81.7074 80.004 80.9474 79.756C80.1874 79.508 79.3874 79.384 78.5474 79.384C77.2514 79.384 76.1234 79.652 75.1634 80.188C74.2034 80.716 73.4594 81.476 72.9314 82.468C72.4034 83.452 72.1394 84.624 72.1394 85.984V91C72.1394 92.256 72.4034 93.364 72.9314 94.324C73.4594 95.276 74.1754 96.02 75.0794 96.556C75.9914 97.092 77.0194 97.36 78.1634 97.36ZM78.1634 94.24C77.6674 94.24 77.2154 94.116 76.8074 93.868C76.3994 93.62 76.0754 93.292 75.8354 92.884C75.5954 92.476 75.4754 92.032 75.4754 91.552C75.4754 91.056 75.5954 90.604 75.8354 90.196C76.0834 89.78 76.4114 89.452 76.8194 89.212C77.2354 88.964 77.6914 88.84 78.1874 88.84C78.6834 88.84 79.1354 88.964 79.5434 89.212C79.9514 89.452 80.2754 89.78 80.5154 90.196C80.7554 90.604 80.8754 91.056 80.8754 91.552C80.8754 92.048 80.7514 92.5 80.5034 92.908C80.2634 93.316 79.9354 93.64 79.5194 93.88C79.1114 94.12 78.6594 94.24 78.1634 94.24ZM91.5865 79.384C90.4985 79.384 89.4985 79.644 88.5865 80.164C87.6745 80.676 86.9425 81.372 86.3905 82.252C85.8385 83.124 85.5625 84.104 85.5625 85.192C85.5625 86.28 85.7945 87.248 86.2585 88.096C86.7305 88.944 87.3785 89.612 88.2025 90.1C89.0345 90.588 89.9945 90.832 91.0825 90.832C92.2745 90.832 93.3385 90.476 94.2745 89.764V91.24C94.2745 91.768 94.1465 92.268 93.8905 92.74C93.6425 93.204 93.2865 93.584 92.8225 93.88C92.3665 94.168 91.8265 94.312 91.2025 94.312C90.3705 94.312 89.6505 94.008 89.0425 93.4L86.7145 95.728C87.3465 96.32 88.0425 96.74 88.8025 96.988C89.5625 97.236 90.3625 97.36 91.2025 97.36C92.4985 97.36 93.6265 97.096 94.5865 96.568C95.5465 96.032 96.2905 95.272 96.8185 94.288C97.3465 93.296 97.6105 92.12 97.6105 90.76V85.744C97.6105 84.488 97.3465 83.384 96.8185 82.432C96.2905 81.472 95.5705 80.724 94.6585 80.188C93.7545 79.652 92.7305 79.384 91.5865 79.384ZM91.5865 82.504C92.0825 82.504 92.5345 82.628 92.9425 82.876C93.3505 83.124 93.6745 83.452 93.9145 83.86C94.1545 84.268 94.2745 84.712 94.2745 85.192C94.2745 85.688 94.1505 86.144 93.9025 86.56C93.6625 86.968 93.3345 87.296 92.9185 87.544C92.5105 87.784 92.0585 87.904 91.5625 87.904C91.0665 87.904 90.6145 87.784 90.2065 87.544C89.7985 87.296 89.4745 86.968 89.2345 86.56C88.9945 86.144 88.8745 85.688 88.8745 85.192C88.8745 84.696 88.9945 84.244 89.2345 83.836C89.4825 83.428 89.8105 83.104 90.2185 82.864C90.6345 82.624 91.0905 82.504 91.5865 82.504ZM103.672 97H107.008V79.72H103.672L100.432 81.664V85.264L103.672 83.272V97ZM110.838 97H114.102V93.736H110.838V97ZM122.833 97.36C123.921 97.36 124.929 97.104 125.857 96.592C126.785 96.072 127.533 95.376 128.101 94.504C128.669 93.624 128.953 92.64 128.953 91.552C128.953 90.464 128.717 89.5 128.245 88.66C127.781 87.812 127.133 87.148 126.301 86.668C125.477 86.18 124.521 85.936 123.433 85.936C123.057 85.936 122.657 85.984 122.233 86.08C121.809 86.176 121.405 86.328 121.021 86.536L121.261 82.768H127.801V79.72H118.369L117.841 88.912L120.601 89.752C120.793 89.568 121.081 89.376 121.465 89.176C121.849 88.968 122.345 88.864 122.953 88.864C123.449 88.864 123.901 88.984 124.309 89.224C124.725 89.464 125.053 89.788 125.293 90.196C125.541 90.604 125.665 91.056 125.665 91.552C125.665 92.048 125.541 92.5 125.293 92.908C125.053 93.316 124.725 93.64 124.309 93.88C123.901 94.12 123.449 94.24 122.953 94.24C122.393 94.24 121.861 94.06 121.357 93.7C120.853 93.34 120.521 92.856 120.361 92.248L117.217 93.088C117.457 93.936 117.853 94.68 118.405 95.32C118.957 95.96 119.613 96.46 120.373 96.82C121.141 97.18 121.961 97.36 122.833 97.36ZM138.562 97H141.874V94.312H143.41V91.264H141.874V86.944H138.562V91.264H134.794L140.242 79.72H136.498L131.05 91.264V94.312H138.562V97Z" fill="#15141F"/>
<path d="M73.3441 123.21C74.0441 123.21 74.6788 123.093 75.2481 122.86C75.8174 122.627 76.2701 122.286 76.6061 121.838C76.9468 121.385 77.1171 120.835 77.1171 120.186C77.1171 119.701 77.0284 119.299 76.8511 118.982C76.6738 118.66 76.4498 118.403 76.1791 118.212C75.9084 118.016 75.6284 117.864 75.3391 117.757C75.0544 117.65 74.8024 117.566 74.5831 117.505L72.6651 116.952C72.4178 116.882 72.1634 116.793 71.9021 116.686C71.6408 116.574 71.4214 116.425 71.2441 116.238C71.0714 116.047 70.9851 115.797 70.9851 115.489C70.9851 115.176 71.0808 114.901 71.2721 114.663C71.4681 114.42 71.7318 114.231 72.0631 114.096C72.3991 113.961 72.7724 113.895 73.1831 113.9C73.8224 113.905 74.3801 114.087 74.8561 114.446C75.3368 114.801 75.6284 115.284 75.7311 115.895L77.0541 115.664C76.8674 114.745 76.4311 114.026 75.7451 113.508C75.0638 112.985 74.2144 112.722 73.1971 112.717C72.5298 112.712 71.9278 112.822 71.3911 113.046C70.8591 113.27 70.4391 113.594 70.1311 114.019C69.8231 114.439 69.6691 114.948 69.6691 115.545C69.6691 116.04 69.7718 116.45 69.9771 116.777C70.1871 117.104 70.4578 117.365 70.7891 117.561C71.1251 117.752 71.4798 117.904 71.8531 118.016L74.4221 118.779C74.7814 118.886 75.1058 119.05 75.3951 119.269C75.6844 119.484 75.8291 119.813 75.8291 120.256C75.8291 120.62 75.7194 120.935 75.5001 121.201C75.2854 121.467 74.9961 121.672 74.6321 121.817C74.2681 121.957 73.8598 122.027 73.4071 122.027C72.7024 122.027 72.0934 121.85 71.5801 121.495C71.0668 121.136 70.7284 120.639 70.5651 120.004L69.2771 120.207C69.3891 120.823 69.6294 121.357 69.9981 121.81C70.3714 122.258 70.8428 122.603 71.4121 122.846C71.9861 123.089 72.6301 123.21 73.3441 123.21ZM78.5785 126.36H79.8315V122.3C80.1021 122.585 80.4218 122.809 80.7905 122.972C81.1638 123.131 81.5861 123.21 82.0575 123.21C82.7621 123.21 83.3665 123.035 83.8705 122.685C84.3791 122.33 84.7688 121.852 85.0395 121.25C85.3101 120.648 85.4455 119.969 85.4455 119.213C85.4455 118.457 85.3101 117.778 85.0395 117.176C84.7688 116.574 84.3791 116.1 83.8705 115.755C83.3665 115.405 82.7645 115.23 82.0645 115.23C81.5511 115.23 81.0961 115.323 80.6995 115.51C80.3028 115.697 79.9668 115.956 79.6915 116.287V115.44H78.5785V126.36ZM81.9035 122.069C81.1428 122.069 80.5828 121.801 80.2235 121.264C79.8688 120.727 79.6915 120.044 79.6915 119.213C79.6915 118.378 79.8688 117.696 80.2235 117.169C80.5828 116.637 81.1311 116.371 81.8685 116.371C82.3818 116.371 82.8041 116.497 83.1355 116.749C83.4715 117.001 83.7188 117.342 83.8775 117.771C84.0408 118.2 84.1225 118.681 84.1225 119.213C84.1225 119.75 84.0408 120.235 83.8775 120.669C83.7141 121.098 83.4691 121.439 83.1425 121.691C82.8158 121.943 82.4028 122.069 81.9035 122.069ZM90.256 123.21C90.9887 123.21 91.649 123.028 92.237 122.664C92.825 122.295 93.2683 121.777 93.567 121.11L92.37 120.697C91.936 121.584 91.2127 122.027 90.2 122.027C89.5047 122.027 88.9587 121.815 88.562 121.39C88.17 120.961 87.9483 120.354 87.897 119.57H93.693C93.7303 118.674 93.6137 117.902 93.343 117.253C93.077 116.604 92.6757 116.105 92.139 115.755C91.607 115.405 90.9607 115.23 90.2 115.23C89.4673 115.23 88.828 115.396 88.282 115.727C87.736 116.054 87.3113 116.52 87.008 117.127C86.7093 117.729 86.56 118.443 86.56 119.269C86.56 120.058 86.7117 120.748 87.015 121.341C87.323 121.929 87.7547 122.389 88.31 122.72C88.8653 123.047 89.514 123.21 90.256 123.21ZM90.242 116.35C91.5253 116.35 92.244 117.09 92.398 118.569H87.918C88.0067 117.85 88.247 117.302 88.639 116.924C89.031 116.541 89.5653 116.35 90.242 116.35ZM95.0394 123H96.2994V119.017C96.2994 118.14 96.4884 117.489 96.8664 117.064C97.2491 116.639 97.7531 116.427 98.3784 116.427C98.9104 116.427 99.3257 116.56 99.6244 116.826C99.9231 117.092 100.131 117.437 100.247 117.862C100.369 118.287 100.429 118.737 100.429 119.213V123H101.689V118.821C101.689 118.462 101.645 118.077 101.556 117.666C101.472 117.251 101.318 116.861 101.094 116.497C100.875 116.128 100.569 115.827 100.177 115.594C99.7901 115.361 99.2907 115.244 98.6794 115.244C97.5781 115.244 96.7381 115.634 96.1594 116.413V115.44H95.0394V123ZM106.409 123.21C106.922 123.21 107.375 123.117 107.767 122.93C108.164 122.739 108.5 122.477 108.775 122.146V123H109.888V112.92H108.635V116.126C108.364 115.846 108.042 115.627 107.669 115.468C107.296 115.309 106.873 115.23 106.402 115.23C105.702 115.23 105.098 115.405 104.589 115.755C104.085 116.1 103.698 116.574 103.427 117.176C103.156 117.778 103.021 118.457 103.021 119.213C103.021 119.969 103.156 120.648 103.427 121.25C103.698 121.852 104.085 122.33 104.589 122.685C105.098 123.035 105.704 123.21 106.409 123.21ZM106.563 122.069C106.068 122.069 105.655 121.943 105.324 121.691C104.997 121.439 104.752 121.098 104.589 120.669C104.426 120.235 104.344 119.75 104.344 119.213C104.344 118.681 104.423 118.2 104.582 117.771C104.745 117.342 104.993 117.001 105.324 116.749C105.66 116.497 106.085 116.371 106.598 116.371C107.335 116.371 107.881 116.637 108.236 117.169C108.595 117.696 108.775 118.378 108.775 119.213C108.775 120.044 108.598 120.727 108.243 121.264C107.888 121.801 107.328 122.069 106.563 122.069ZM111.989 114.103H113.235V112.815H111.989V114.103ZM111.989 123H113.235V115.44H111.989V123ZM115.328 123H116.588V119.017C116.588 118.14 116.777 117.489 117.155 117.064C117.538 116.639 118.042 116.427 118.667 116.427C119.199 116.427 119.615 116.56 119.913 116.826C120.212 117.092 120.42 117.437 120.536 117.862C120.658 118.287 120.718 118.737 120.718 119.213V123H121.978V118.821C121.978 118.462 121.934 118.077 121.845 117.666C121.761 117.251 121.607 116.861 121.383 116.497C121.164 116.128 120.858 115.827 120.466 115.594C120.079 115.361 119.58 115.244 118.968 115.244C117.867 115.244 117.027 115.634 116.448 116.413V115.44H115.328V123ZM126.766 123.21C127.233 123.21 127.651 123.131 128.019 122.972C128.393 122.813 128.715 122.592 128.985 122.307V123.035C128.999 124.589 128.292 125.366 126.864 125.366C126.496 125.366 126.141 125.282 125.8 125.114C125.46 124.946 125.196 124.678 125.009 124.309L123.868 124.911C124.186 125.476 124.615 125.893 125.156 126.164C125.698 126.435 126.265 126.57 126.857 126.57C127.763 126.57 128.5 126.376 129.069 125.989C129.643 125.606 130.003 125.014 130.147 124.211C130.185 124.024 130.208 123.835 130.217 123.644C130.231 123.457 130.238 123.259 130.238 123.049V115.44H129.132V116.287C128.857 115.956 128.521 115.697 128.124 115.51C127.728 115.323 127.273 115.23 126.759 115.23C126.059 115.23 125.457 115.405 124.953 115.755C124.449 116.1 124.06 116.574 123.784 117.176C123.514 117.778 123.378 118.457 123.378 119.213C123.378 119.969 123.514 120.648 123.784 121.25C124.055 121.852 124.442 122.33 124.946 122.685C125.455 123.035 126.062 123.21 126.766 123.21ZM126.92 122.069C126.426 122.069 126.013 121.943 125.681 121.691C125.355 121.439 125.11 121.098 124.946 120.669C124.783 120.235 124.701 119.75 124.701 119.213C124.701 118.681 124.781 118.2 124.939 117.771C125.103 117.342 125.35 117.001 125.681 116.749C126.017 116.497 126.442 116.371 126.955 116.371C127.693 116.371 128.239 116.637 128.593 117.169C128.953 117.696 129.132 118.378 129.132 119.213C129.132 120.044 128.955 120.727 128.6 121.264C128.246 121.801 127.686 122.069 126.92 122.069Z" fill="#A2A0A8"/>
</svg>
