<svg width="327" height="68" viewBox="0 0 327 68" fill="none" xmlns="http://www.w3.org/2000/svg">
<rect width="327" height="68" rx="16" fill="#8A9DF0"/>
<path d="M295.91 41.9201L302.43 35.4001C303.2 34.6301 303.2 33.3701 302.43 32.6001L295.91 26.0801" stroke="white" stroke-width="2" stroke-miterlimit="10" stroke-linecap="round" stroke-linejoin="round"/>
<path d="M72.338 30.18C73.182 30.18 73.89 30.002 74.462 29.646C75.038 29.29 75.472 28.802 75.764 28.182C76.06 27.558 76.208 26.852 76.208 26.064C76.208 26.028 76.206 25.956 76.202 25.848C76.198 25.736 76.192 25.638 76.184 25.554H73.22V26.436H75.056C74.992 27.296 74.74 27.966 74.3 28.446C73.864 28.926 73.228 29.164 72.392 29.16C71.748 29.156 71.21 29.008 70.778 28.716C70.35 28.424 70.028 28.018 69.812 27.498C69.596 26.974 69.49 26.368 69.494 25.68C69.498 24.988 69.606 24.382 69.818 23.862C70.034 23.338 70.356 22.93 70.784 22.638C71.212 22.346 71.748 22.202 72.392 22.206C73.008 22.21 73.52 22.368 73.928 22.68C74.34 22.988 74.638 23.404 74.822 23.928L75.902 23.706C75.678 22.93 75.27 22.316 74.678 21.864C74.086 21.412 73.306 21.186 72.338 21.186C71.534 21.186 70.834 21.37 70.238 21.738C69.642 22.102 69.18 22.62 68.852 23.292C68.524 23.964 68.36 24.76 68.36 25.68C68.36 26.608 68.526 27.408 68.858 28.08C69.19 28.752 69.654 29.27 70.25 29.634C70.85 29.998 71.546 30.18 72.338 30.18ZM80.1664 30.18C80.8104 30.18 81.3644 30.036 81.8284 29.748C82.2964 29.46 82.6564 29.058 82.9084 28.542C83.1644 28.026 83.2924 27.43 83.2924 26.754C83.2924 26.086 83.1664 25.496 82.9144 24.984C82.6664 24.468 82.3084 24.066 81.8404 23.778C81.3724 23.486 80.8144 23.34 80.1664 23.34C79.5344 23.34 78.9844 23.484 78.5164 23.772C78.0484 24.056 77.6864 24.454 77.4304 24.966C77.1744 25.478 77.0464 26.074 77.0464 26.754C77.0464 27.422 77.1704 28.014 77.4184 28.53C77.6704 29.046 78.0304 29.45 78.4984 29.742C78.9664 30.034 79.5224 30.18 80.1664 30.18ZM80.1664 29.166C79.5144 29.166 79.0204 28.948 78.6844 28.512C78.3484 28.072 78.1804 27.486 78.1804 26.754C78.1804 26.046 78.3424 25.47 78.6664 25.026C78.9904 24.578 79.4904 24.354 80.1664 24.354C80.8304 24.354 81.3284 24.572 81.6604 25.008C81.9924 25.444 82.1584 26.026 82.1584 26.754C82.1584 27.466 81.9924 28.046 81.6604 28.494C81.3324 28.942 80.8344 29.166 80.1664 29.166ZM88.2314 30V29.082C87.7874 29.15 87.4074 29.162 87.0914 29.118C86.7794 29.074 86.5514 28.924 86.4074 28.668C86.3314 28.532 86.2894 28.372 86.2814 28.188C86.2774 28 86.2754 27.772 86.2754 27.504V24.402H88.2314V23.52H86.2754V21.72H85.2074V23.52H83.8934V24.402H85.2074V27.552C85.2074 27.888 85.2114 28.188 85.2194 28.452C85.2314 28.712 85.3014 28.968 85.4294 29.22C85.5814 29.512 85.8034 29.728 86.0954 29.868C86.3874 30.004 86.7194 30.078 87.0914 30.09C87.4674 30.106 87.8474 30.076 88.2314 30ZM93.7914 30.18C94.8714 30.18 95.6714 29.784 96.1914 28.992V30H97.1394V25.992C97.1394 25.736 97.1274 25.492 97.1034 25.26C97.0794 25.024 97.0214 24.806 96.9294 24.606C96.7454 24.182 96.4414 23.866 96.0174 23.658C95.5934 23.446 95.0894 23.34 94.5054 23.34C93.7734 23.34 93.1814 23.502 92.7294 23.826C92.2814 24.15 91.9814 24.596 91.8294 25.164L92.8434 25.47C92.9594 25.074 93.1654 24.786 93.4614 24.606C93.7574 24.426 94.1014 24.336 94.4934 24.336C95.0534 24.336 95.4554 24.462 95.6994 24.714C95.9474 24.962 96.0774 25.344 96.0894 25.86C95.6094 25.928 95.1054 26 94.5774 26.076C94.0534 26.148 93.5874 26.238 93.1794 26.346C92.6874 26.49 92.2994 26.716 92.0154 27.024C91.7314 27.328 91.5894 27.736 91.5894 28.248C91.5894 28.596 91.6714 28.916 91.8354 29.208C92.0034 29.5 92.2494 29.736 92.5734 29.916C92.9014 30.092 93.3074 30.18 93.7914 30.18ZM93.9534 29.286C93.4934 29.286 93.1614 29.18 92.9574 28.968C92.7534 28.752 92.6514 28.51 92.6514 28.242C92.6514 27.938 92.7514 27.706 92.9514 27.546C93.1554 27.382 93.3914 27.258 93.6594 27.174C93.9754 27.086 94.3434 27.012 94.7634 26.952C95.1834 26.892 95.6214 26.832 96.0774 26.772C96.0774 26.92 96.0694 27.088 96.0534 27.276C96.0414 27.464 96.0134 27.636 95.9694 27.792C95.8934 28.192 95.6814 28.542 95.3334 28.842C94.9894 29.138 94.5294 29.286 93.9534 29.286ZM98.6934 30H99.7734V26.586C99.7734 25.834 99.9354 25.276 100.259 24.912C100.587 24.548 101.019 24.366 101.555 24.366C102.011 24.366 102.367 24.48 102.623 24.708C102.879 24.936 103.057 25.232 103.157 25.596C103.261 25.96 103.313 26.346 103.313 26.754V30H104.393V26.418C104.393 26.11 104.355 25.78 104.279 25.428C104.207 25.072 104.075 24.738 103.883 24.426C103.695 24.11 103.433 23.852 103.097 23.652C102.765 23.452 102.337 23.352 101.813 23.352C100.869 23.352 100.149 23.686 99.6534 24.354V23.52H98.6934V30ZM106.619 32.88H107.657L111.185 23.52H110.099L108.203 28.62L106.181 23.52H105.059L107.687 29.976L106.619 32.88ZM117.122 30.18C117.526 30.18 117.886 30.112 118.202 29.976C118.522 29.836 118.798 29.644 119.03 29.4V32.88H120.104V23.52H119.15V24.246C118.914 23.962 118.626 23.74 118.286 23.58C117.946 23.42 117.556 23.34 117.116 23.34C116.516 23.34 116 23.49 115.568 23.79C115.136 24.086 114.802 24.492 114.566 25.008C114.334 25.524 114.218 26.106 114.218 26.754C114.218 27.402 114.334 27.984 114.566 28.5C114.798 29.016 115.13 29.426 115.562 29.73C115.998 30.03 116.518 30.18 117.122 30.18ZM117.254 29.202C116.83 29.202 116.476 29.094 116.192 28.878C115.912 28.662 115.702 28.37 115.562 28.002C115.422 27.63 115.352 27.214 115.352 26.754C115.352 26.298 115.42 25.886 115.556 25.518C115.696 25.15 115.908 24.858 116.192 24.642C116.48 24.426 116.844 24.318 117.284 24.318C117.916 24.318 118.384 24.546 118.688 25.002C118.996 25.454 119.15 26.038 119.15 26.754C119.15 27.466 118.998 28.052 118.694 28.512C118.39 28.972 117.91 29.202 117.254 29.202ZM124.245 30.168C125.189 30.168 125.909 29.834 126.405 29.166V30H127.359V23.52H126.285V26.934C126.285 27.682 126.121 28.24 125.793 28.608C125.469 28.972 125.039 29.154 124.503 29.154C124.047 29.154 123.691 29.04 123.435 28.812C123.183 28.584 123.005 28.288 122.901 27.924C122.797 27.556 122.745 27.17 122.745 26.766V23.52H121.665V27.102C121.665 27.41 121.701 27.742 121.773 28.098C121.849 28.45 121.981 28.784 122.169 29.1C122.361 29.412 122.625 29.668 122.961 29.868C123.297 30.068 123.725 30.168 124.245 30.168ZM131.847 30.18C132.475 30.18 133.041 30.024 133.545 29.712C134.049 29.396 134.429 28.952 134.685 28.38L133.659 28.026C133.287 28.786 132.667 29.166 131.799 29.166C131.203 29.166 130.735 28.984 130.395 28.62C130.059 28.252 129.869 27.732 129.825 27.06H134.793C134.825 26.292 134.725 25.63 134.493 25.074C134.265 24.518 133.921 24.09 133.461 23.79C133.005 23.49 132.451 23.34 131.799 23.34C131.171 23.34 130.623 23.482 130.155 23.766C129.687 24.046 129.323 24.446 129.063 24.966C128.807 25.482 128.679 26.094 128.679 26.802C128.679 27.478 128.809 28.07 129.069 28.578C129.333 29.082 129.703 29.476 130.179 29.76C130.655 30.04 131.211 30.18 131.847 30.18ZM131.835 24.3C132.935 24.3 133.551 24.934 133.683 26.202H129.843C129.919 25.586 130.125 25.116 130.461 24.792C130.797 24.464 131.255 24.3 131.835 24.3ZM138.577 30.174C139.385 30.174 140.019 29.996 140.479 29.64C140.939 29.284 141.169 28.792 141.169 28.164C141.169 27.828 141.099 27.546 140.959 27.318C140.819 27.086 140.583 26.886 140.251 26.718C139.923 26.546 139.473 26.388 138.901 26.244C138.393 26.116 138.005 26.002 137.737 25.902C137.473 25.802 137.291 25.696 137.191 25.584C137.095 25.472 137.047 25.338 137.047 25.182C137.047 24.906 137.177 24.686 137.437 24.522C137.701 24.358 138.043 24.282 138.463 24.294C138.903 24.306 139.265 24.414 139.549 24.618C139.833 24.818 140.001 25.09 140.053 25.434L141.145 25.236C141.077 24.664 140.797 24.206 140.305 23.862C139.817 23.514 139.203 23.34 138.463 23.34C137.715 23.34 137.113 23.514 136.657 23.862C136.201 24.206 135.973 24.664 135.973 25.236C135.973 25.544 136.041 25.806 136.177 26.022C136.317 26.238 136.551 26.428 136.879 26.592C137.211 26.756 137.663 26.914 138.235 27.066C138.763 27.206 139.157 27.328 139.417 27.432C139.681 27.532 139.855 27.638 139.939 27.75C140.023 27.862 140.065 28.01 140.065 28.194C140.065 28.51 139.937 28.76 139.681 28.944C139.429 29.128 139.083 29.22 138.643 29.22C138.175 29.22 137.783 29.118 137.467 28.914C137.151 28.706 136.949 28.426 136.861 28.074L135.769 28.248C135.881 28.856 136.183 29.33 136.675 29.67C137.171 30.006 137.805 30.174 138.577 30.174ZM146.11 30V29.082C145.666 29.15 145.286 29.162 144.97 29.118C144.658 29.074 144.43 28.924 144.286 28.668C144.21 28.532 144.168 28.372 144.16 28.188C144.156 28 144.154 27.772 144.154 27.504V24.402H146.11V23.52H144.154V21.72H143.086V23.52H141.772V24.402H143.086V27.552C143.086 27.888 143.09 28.188 143.098 28.452C143.11 28.712 143.18 28.968 143.308 29.22C143.46 29.512 143.682 29.728 143.974 29.868C144.266 30.004 144.598 30.078 144.97 30.09C145.346 30.106 145.726 30.076 146.11 30ZM147.546 22.374H148.614V21.27H147.546V22.374ZM147.546 30H148.614V23.52H147.546V30ZM153.174 30.18C153.818 30.18 154.372 30.036 154.836 29.748C155.304 29.46 155.664 29.058 155.916 28.542C156.172 28.026 156.3 27.43 156.3 26.754C156.3 26.086 156.174 25.496 155.922 24.984C155.674 24.468 155.316 24.066 154.848 23.778C154.38 23.486 153.822 23.34 153.174 23.34C152.542 23.34 151.992 23.484 151.524 23.772C151.056 24.056 150.694 24.454 150.438 24.966C150.182 25.478 150.054 26.074 150.054 26.754C150.054 27.422 150.178 28.014 150.426 28.53C150.678 29.046 151.038 29.45 151.506 29.742C151.974 30.034 152.53 30.18 153.174 30.18ZM153.174 29.166C152.522 29.166 152.028 28.948 151.692 28.512C151.356 28.072 151.188 27.486 151.188 26.754C151.188 26.046 151.35 25.47 151.674 25.026C151.998 24.578 152.498 24.354 153.174 24.354C153.838 24.354 154.336 24.572 154.668 25.008C155 25.444 155.166 26.026 155.166 26.754C155.166 27.466 155 28.046 154.668 28.494C154.34 28.942 153.842 29.166 153.174 29.166ZM157.615 30H158.695V26.586C158.695 25.834 158.857 25.276 159.181 24.912C159.509 24.548 159.941 24.366 160.477 24.366C160.933 24.366 161.289 24.48 161.545 24.708C161.801 24.936 161.979 25.232 162.079 25.596C162.183 25.96 162.235 26.346 162.235 26.754V30H163.315V26.418C163.315 26.11 163.277 25.78 163.201 25.428C163.129 25.072 162.997 24.738 162.805 24.426C162.617 24.11 162.355 23.852 162.019 23.652C161.687 23.452 161.259 23.352 160.735 23.352C159.791 23.352 159.071 23.686 158.575 24.354V23.52H157.615V30ZM167.323 30.174C168.131 30.174 168.765 29.996 169.225 29.64C169.685 29.284 169.915 28.792 169.915 28.164C169.915 27.828 169.845 27.546 169.705 27.318C169.565 27.086 169.329 26.886 168.997 26.718C168.669 26.546 168.219 26.388 167.647 26.244C167.139 26.116 166.751 26.002 166.483 25.902C166.219 25.802 166.037 25.696 165.937 25.584C165.841 25.472 165.793 25.338 165.793 25.182C165.793 24.906 165.923 24.686 166.183 24.522C166.447 24.358 166.789 24.282 167.209 24.294C167.649 24.306 168.011 24.414 168.295 24.618C168.579 24.818 168.747 25.09 168.799 25.434L169.891 25.236C169.823 24.664 169.543 24.206 169.051 23.862C168.563 23.514 167.949 23.34 167.209 23.34C166.461 23.34 165.859 23.514 165.403 23.862C164.947 24.206 164.719 24.664 164.719 25.236C164.719 25.544 164.787 25.806 164.923 26.022C165.063 26.238 165.297 26.428 165.625 26.592C165.957 26.756 166.409 26.914 166.981 27.066C167.509 27.206 167.903 27.328 168.163 27.432C168.427 27.532 168.601 27.638 168.685 27.75C168.769 27.862 168.811 28.01 168.811 28.194C168.811 28.51 168.683 28.76 168.427 28.944C168.175 29.128 167.829 29.22 167.389 29.22C166.921 29.22 166.529 29.118 166.213 28.914C165.897 28.706 165.695 28.426 165.607 28.074L164.515 28.248C164.627 28.856 164.929 29.33 165.421 29.67C165.917 30.006 166.551 30.174 167.323 30.174ZM174.259 30H175.327V24.402H177.031V23.52H175.327V22.998C175.327 22.378 175.641 22.068 176.269 22.068H177.031V21.18H176.209C175.965 21.18 175.703 21.204 175.423 21.252C175.143 21.296 174.891 21.44 174.667 21.684C174.475 21.892 174.359 22.13 174.319 22.398C174.279 22.662 174.259 22.918 174.259 23.166V23.52H173.161V24.402H174.259V30ZM180.514 30.18C181.158 30.18 181.712 30.036 182.176 29.748C182.644 29.46 183.004 29.058 183.256 28.542C183.512 28.026 183.64 27.43 183.64 26.754C183.64 26.086 183.514 25.496 183.262 24.984C183.014 24.468 182.656 24.066 182.188 23.778C181.72 23.486 181.162 23.34 180.514 23.34C179.882 23.34 179.332 23.484 178.864 23.772C178.396 24.056 178.034 24.454 177.778 24.966C177.522 25.478 177.394 26.074 177.394 26.754C177.394 27.422 177.518 28.014 177.766 28.53C178.018 29.046 178.378 29.45 178.846 29.742C179.314 30.034 179.87 30.18 180.514 30.18ZM180.514 29.166C179.862 29.166 179.368 28.948 179.032 28.512C178.696 28.072 178.528 27.486 178.528 26.754C178.528 26.046 178.69 25.47 179.014 25.026C179.338 24.578 179.838 24.354 180.514 24.354C181.178 24.354 181.676 24.572 182.008 25.008C182.34 25.444 182.506 26.026 182.506 26.754C182.506 27.466 182.34 28.046 182.008 28.494C181.68 28.942 181.182 29.166 180.514 29.166ZM184.961 30H186.035V26.748C186.035 26.364 186.087 25.994 186.191 25.638C186.295 25.282 186.505 24.992 186.821 24.768C187.045 24.604 187.291 24.508 187.559 24.48C187.831 24.452 188.079 24.466 188.303 24.522V23.52C188.015 23.456 187.699 23.456 187.355 23.52C187.011 23.584 186.715 23.716 186.467 23.916C186.251 24.068 186.067 24.278 185.915 24.546V23.52H184.961V30ZM191.84 30H192.908V26.214H196.16V25.146H192.908V22.428H196.88V21.36H191.84V30ZM198.077 22.374H199.145V21.27H198.077V22.374ZM198.077 30H199.145V23.52H198.077V30ZM200.939 30H202.019V26.586C202.019 25.834 202.181 25.276 202.505 24.912C202.833 24.548 203.265 24.366 203.801 24.366C204.257 24.366 204.613 24.48 204.869 24.708C205.125 24.936 205.303 25.232 205.403 25.596C205.507 25.96 205.559 26.346 205.559 26.754V30H206.639V26.418C206.639 26.11 206.601 25.78 206.525 25.428C206.453 25.072 206.321 24.738 206.129 24.426C205.941 24.11 205.679 23.852 205.343 23.652C205.011 23.452 204.583 23.352 204.059 23.352C203.115 23.352 202.395 23.686 201.899 24.354V23.52H200.939V30ZM208.193 32.88H209.267V29.4C209.499 29.644 209.773 29.836 210.089 29.976C210.409 30.112 210.771 30.18 211.175 30.18C211.779 30.18 212.297 30.03 212.729 29.73C213.165 29.426 213.499 29.016 213.731 28.5C213.963 27.984 214.079 27.402 214.079 26.754C214.079 26.106 213.963 25.524 213.731 25.008C213.499 24.492 213.165 24.086 212.729 23.79C212.297 23.49 211.781 23.34 211.181 23.34C210.741 23.34 210.351 23.42 210.011 23.58C209.671 23.74 209.383 23.962 209.147 24.246V23.52H208.193V32.88ZM211.043 29.202C210.391 29.202 209.911 28.972 209.603 28.512C209.299 28.052 209.147 27.466 209.147 26.754C209.147 26.038 209.299 25.454 209.603 25.002C209.911 24.546 210.381 24.318 211.013 24.318C211.453 24.318 211.815 24.426 212.099 24.642C212.387 24.858 212.599 25.15 212.735 25.518C212.875 25.886 212.945 26.298 212.945 26.754C212.945 27.214 212.875 27.63 212.735 28.002C212.595 28.37 212.385 28.662 212.105 28.878C211.825 29.094 211.471 29.202 211.043 29.202ZM217.237 30.18C218.317 30.18 219.117 29.784 219.637 28.992V30H220.585V25.992C220.585 25.736 220.573 25.492 220.549 25.26C220.525 25.024 220.467 24.806 220.375 24.606C220.191 24.182 219.887 23.866 219.463 23.658C219.039 23.446 218.535 23.34 217.951 23.34C217.219 23.34 216.627 23.502 216.175 23.826C215.727 24.15 215.427 24.596 215.275 25.164L216.289 25.47C216.405 25.074 216.611 24.786 216.907 24.606C217.203 24.426 217.547 24.336 217.939 24.336C218.499 24.336 218.901 24.462 219.145 24.714C219.393 24.962 219.523 25.344 219.535 25.86C219.055 25.928 218.551 26 218.023 26.076C217.499 26.148 217.033 26.238 216.625 26.346C216.133 26.49 215.745 26.716 215.461 27.024C215.177 27.328 215.035 27.736 215.035 28.248C215.035 28.596 215.117 28.916 215.281 29.208C215.449 29.5 215.695 29.736 216.019 29.916C216.347 30.092 216.753 30.18 217.237 30.18ZM217.399 29.286C216.939 29.286 216.607 29.18 216.403 28.968C216.199 28.752 216.097 28.51 216.097 28.242C216.097 27.938 216.197 27.706 216.397 27.546C216.601 27.382 216.837 27.258 217.105 27.174C217.421 27.086 217.789 27.012 218.209 26.952C218.629 26.892 219.067 26.832 219.523 26.772C219.523 26.92 219.515 27.088 219.499 27.276C219.487 27.464 219.459 27.636 219.415 27.792C219.339 28.192 219.127 28.542 218.779 28.842C218.435 29.138 217.975 29.286 217.399 29.286ZM222.681 32.88H223.719L227.247 23.52H226.161L224.265 28.62L222.243 23.52H221.121L223.749 29.976L222.681 32.88ZM229.888 27.648H231.022C231.022 27.396 231.028 27.19 231.04 27.03C231.052 26.87 231.112 26.696 231.22 26.508C231.34 26.296 231.518 26.106 231.754 25.938C231.994 25.766 232.214 25.572 232.414 25.356C232.65 25.108 232.84 24.83 232.984 24.522C233.128 24.214 233.2 23.882 233.2 23.526C233.2 23.238 233.154 22.962 233.062 22.698C232.97 22.434 232.83 22.198 232.642 21.99C232.398 21.706 232.092 21.502 231.724 21.378C231.36 21.25 230.974 21.186 230.566 21.186C230.258 21.186 229.952 21.234 229.648 21.33C229.344 21.422 229.074 21.568 228.838 21.768C228.582 21.972 228.384 22.232 228.244 22.548C228.104 22.864 228.022 23.194 227.998 23.538H229.114C229.11 23.35 229.138 23.172 229.198 23.004C229.258 22.836 229.354 22.694 229.486 22.578C229.614 22.45 229.774 22.356 229.966 22.296C230.162 22.236 230.37 22.206 230.59 22.206C230.822 22.206 231.044 22.242 231.256 22.314C231.472 22.382 231.652 22.504 231.796 22.68C231.976 22.888 232.066 23.176 232.066 23.544C232.066 23.752 232.038 23.948 231.982 24.132C231.93 24.312 231.826 24.49 231.67 24.666C231.49 24.858 231.308 25.022 231.124 25.158C230.94 25.29 230.768 25.426 230.608 25.566C230.448 25.706 230.31 25.888 230.194 26.112C230.066 26.344 229.982 26.584 229.942 26.832C229.906 27.076 229.888 27.348 229.888 27.648ZM229.894 30H231.022V28.686H229.894V30ZM72.392 48.18C73.256 48.18 73.988 47.99 74.588 47.61C75.188 47.23 75.644 46.702 75.956 46.026C76.268 45.35 76.424 44.568 76.424 43.68C76.424 42.792 76.268 42.01 75.956 41.334C75.644 40.658 75.188 40.13 74.588 39.75C73.988 39.37 73.256 39.18 72.392 39.18C71.532 39.18 70.8 39.37 70.196 39.75C69.596 40.13 69.14 40.658 68.828 41.334C68.516 42.01 68.36 42.792 68.36 43.68C68.36 44.568 68.516 45.35 68.828 46.026C69.14 46.702 69.596 47.23 70.196 47.61C70.8 47.99 71.532 48.18 72.392 48.18ZM72.392 47.16C71.748 47.156 71.21 47.008 70.778 46.716C70.35 46.424 70.028 46.018 69.812 45.498C69.596 44.974 69.49 44.368 69.494 43.68C69.498 42.988 69.606 42.38 69.818 41.856C70.034 41.332 70.356 40.924 70.784 40.632C71.212 40.34 71.748 40.196 72.392 40.2C73.036 40.204 73.572 40.352 74 40.644C74.432 40.936 74.754 41.342 74.966 41.862C75.182 42.382 75.29 42.988 75.29 43.68C75.29 44.368 75.182 44.976 74.966 45.504C74.754 46.028 74.432 46.436 74 46.728C73.572 47.02 73.036 47.164 72.392 47.16ZM80.0891 48.168C81.0331 48.168 81.7531 47.834 82.2491 47.166V48H83.2031V41.52H82.1291V44.934C82.1291 45.682 81.9651 46.24 81.6371 46.608C81.3131 46.972 80.8831 47.154 80.3471 47.154C79.8911 47.154 79.5351 47.04 79.2791 46.812C79.0271 46.584 78.8491 46.288 78.7451 45.924C78.6411 45.556 78.5891 45.17 78.5891 44.766V41.52H77.5091V45.102C77.5091 45.41 77.5451 45.742 77.6171 46.098C77.6931 46.45 77.8251 46.784 78.0131 47.1C78.2051 47.412 78.4691 47.668 78.8051 47.868C79.1411 48.068 79.5691 48.168 80.0891 48.168ZM84.883 48H85.957V44.748C85.957 44.364 86.009 43.994 86.113 43.638C86.217 43.282 86.427 42.992 86.743 42.768C86.967 42.604 87.213 42.508 87.481 42.48C87.753 42.452 88.001 42.466 88.225 42.522V41.52C87.937 41.456 87.621 41.456 87.277 41.52C86.933 41.584 86.637 41.716 86.389 41.916C86.173 42.068 85.989 42.278 85.837 42.546V41.52H84.883V48ZM95.3139 48.18C96.3139 48.18 97.1359 47.926 97.7799 47.418C98.4279 46.906 98.8739 46.222 99.1179 45.366L98.0319 45.078C97.8559 45.718 97.5399 46.226 97.0839 46.602C96.6319 46.974 96.0419 47.16 95.3139 47.16C94.6699 47.16 94.1319 47.014 93.6999 46.722C93.2679 46.43 92.9439 46.022 92.7279 45.498C92.5119 44.974 92.4059 44.368 92.4099 43.68C92.4139 42.988 92.5239 42.382 92.7399 41.862C92.9559 41.338 93.2779 40.93 93.7059 40.638C94.1339 40.346 94.6699 40.2 95.3139 40.2C96.0419 40.2 96.6319 40.386 97.0839 40.758C97.5399 41.13 97.8559 41.638 98.0319 42.282L99.1179 41.994C98.8739 41.134 98.4279 40.45 97.7799 39.942C97.1359 39.434 96.3139 39.18 95.3139 39.18C94.4539 39.18 93.7219 39.37 93.1179 39.75C92.5179 40.13 92.0619 40.658 91.7499 41.334C91.4379 42.01 91.2819 42.792 91.2819 43.68C91.2819 44.568 91.4379 45.35 91.7499 46.026C92.0619 46.702 92.5179 47.23 93.1179 47.61C93.7219 47.99 94.4539 48.18 95.3139 48.18ZM103.863 48.18C104.463 48.18 105.007 48.08 105.495 47.88C105.983 47.68 106.371 47.388 106.659 47.004C106.951 46.616 107.097 46.144 107.097 45.588C107.097 45.172 107.021 44.828 106.869 44.556C106.717 44.28 106.525 44.06 106.293 43.896C106.061 43.728 105.821 43.598 105.573 43.506C105.329 43.414 105.113 43.342 104.925 43.29L103.281 42.816C103.069 42.756 102.851 42.68 102.627 42.588C102.403 42.492 102.215 42.364 102.063 42.204C101.915 42.04 101.841 41.826 101.841 41.562C101.841 41.294 101.923 41.058 102.087 40.854C102.255 40.646 102.481 40.484 102.765 40.368C103.053 40.252 103.373 40.196 103.725 40.2C104.273 40.204 104.751 40.36 105.159 40.668C105.571 40.972 105.821 41.386 105.909 41.91L107.043 41.712C106.883 40.924 106.509 40.308 105.921 39.864C105.337 39.416 104.609 39.19 103.737 39.186C103.165 39.182 102.649 39.276 102.189 39.468C101.733 39.66 101.373 39.938 101.109 40.302C100.845 40.662 100.713 41.098 100.713 41.61C100.713 42.034 100.801 42.386 100.977 42.666C101.157 42.946 101.389 43.17 101.673 43.338C101.961 43.502 102.265 43.632 102.585 43.728L104.787 44.382C105.095 44.474 105.373 44.614 105.621 44.802C105.869 44.986 105.993 45.268 105.993 45.648C105.993 45.96 105.899 46.23 105.711 46.458C105.527 46.686 105.279 46.862 104.967 46.986C104.655 47.106 104.305 47.166 103.917 47.166C103.313 47.166 102.791 47.014 102.351 46.71C101.911 46.402 101.621 45.976 101.481 45.432L100.377 45.606C100.473 46.134 100.679 46.592 100.995 46.98C101.315 47.364 101.719 47.66 102.207 47.868C102.699 48.076 103.251 48.18 103.863 48.18ZM112.6 48.18C113.68 48.18 114.48 47.784 115 46.992V48H115.948V43.992C115.948 43.736 115.936 43.492 115.912 43.26C115.888 43.024 115.83 42.806 115.738 42.606C115.554 42.182 115.25 41.866 114.826 41.658C114.402 41.446 113.898 41.34 113.314 41.34C112.582 41.34 111.99 41.502 111.538 41.826C111.09 42.15 110.79 42.596 110.638 43.164L111.652 43.47C111.768 43.074 111.974 42.786 112.27 42.606C112.566 42.426 112.91 42.336 113.302 42.336C113.862 42.336 114.264 42.462 114.508 42.714C114.756 42.962 114.886 43.344 114.898 43.86C114.418 43.928 113.914 44 113.386 44.076C112.862 44.148 112.396 44.238 111.988 44.346C111.496 44.49 111.108 44.716 110.824 45.024C110.54 45.328 110.398 45.736 110.398 46.248C110.398 46.596 110.48 46.916 110.644 47.208C110.812 47.5 111.058 47.736 111.382 47.916C111.71 48.092 112.116 48.18 112.6 48.18ZM112.762 47.286C112.302 47.286 111.97 47.18 111.766 46.968C111.562 46.752 111.46 46.51 111.46 46.242C111.46 45.938 111.56 45.706 111.76 45.546C111.964 45.382 112.2 45.258 112.468 45.174C112.784 45.086 113.152 45.012 113.572 44.952C113.992 44.892 114.43 44.832 114.886 44.772C114.886 44.92 114.878 45.088 114.862 45.276C114.85 45.464 114.822 45.636 114.778 45.792C114.702 46.192 114.49 46.542 114.142 46.842C113.798 47.138 113.338 47.286 112.762 47.286ZM117.508 48H118.582V44.748C118.582 44.364 118.634 43.994 118.738 43.638C118.842 43.282 119.052 42.992 119.368 42.768C119.592 42.604 119.838 42.508 120.106 42.48C120.378 42.452 120.626 42.466 120.85 42.522V41.52C120.562 41.456 120.246 41.456 119.902 41.52C119.558 41.584 119.262 41.716 119.014 41.916C118.798 42.068 118.614 42.278 118.462 42.546V41.52H117.508V48ZM124.675 48.18C125.303 48.18 125.869 48.024 126.373 47.712C126.877 47.396 127.257 46.952 127.513 46.38L126.487 46.026C126.115 46.786 125.495 47.166 124.627 47.166C124.031 47.166 123.563 46.984 123.223 46.62C122.887 46.252 122.697 45.732 122.653 45.06H127.621C127.653 44.292 127.553 43.63 127.321 43.074C127.093 42.518 126.749 42.09 126.289 41.79C125.833 41.49 125.279 41.34 124.627 41.34C123.999 41.34 123.451 41.482 122.983 41.766C122.515 42.046 122.151 42.446 121.891 42.966C121.635 43.482 121.507 44.094 121.507 44.802C121.507 45.478 121.637 46.07 121.897 46.578C122.161 47.082 122.531 47.476 123.007 47.76C123.483 48.04 124.039 48.18 124.675 48.18ZM124.663 42.3C125.763 42.3 126.379 42.934 126.511 44.202H122.671C122.747 43.586 122.953 43.116 123.289 42.792C123.625 42.464 124.083 42.3 124.663 42.3ZM131.36 48H132.434V44.748C132.434 44.364 132.486 43.994 132.59 43.638C132.694 43.282 132.904 42.992 133.22 42.768C133.444 42.604 133.69 42.508 133.958 42.48C134.23 42.452 134.478 42.466 134.702 42.522V41.52C134.414 41.456 134.098 41.456 133.754 41.52C133.41 41.584 133.114 41.716 132.866 41.916C132.65 42.068 132.466 42.278 132.314 42.546V41.52H131.36V48ZM138.527 48.18C139.155 48.18 139.721 48.024 140.225 47.712C140.729 47.396 141.109 46.952 141.365 46.38L140.339 46.026C139.967 46.786 139.347 47.166 138.479 47.166C137.883 47.166 137.415 46.984 137.075 46.62C136.739 46.252 136.549 45.732 136.505 45.06H141.473C141.505 44.292 141.405 43.63 141.173 43.074C140.945 42.518 140.601 42.09 140.141 41.79C139.685 41.49 139.131 41.34 138.479 41.34C137.851 41.34 137.303 41.482 136.835 41.766C136.367 42.046 136.003 42.446 135.743 42.966C135.487 43.482 135.359 44.094 135.359 44.802C135.359 45.478 135.489 46.07 135.749 46.578C136.013 47.082 136.383 47.476 136.859 47.76C137.335 48.04 137.891 48.18 138.527 48.18ZM138.515 42.3C139.615 42.3 140.231 42.934 140.363 44.202H136.523C136.599 43.586 136.805 43.116 137.141 42.792C137.477 42.464 137.935 42.3 138.515 42.3ZM144.534 48.18C145.614 48.18 146.414 47.784 146.934 46.992V48H147.882V43.992C147.882 43.736 147.87 43.492 147.846 43.26C147.822 43.024 147.764 42.806 147.672 42.606C147.488 42.182 147.184 41.866 146.76 41.658C146.336 41.446 145.832 41.34 145.248 41.34C144.516 41.34 143.924 41.502 143.472 41.826C143.024 42.15 142.724 42.596 142.572 43.164L143.586 43.47C143.702 43.074 143.908 42.786 144.204 42.606C144.5 42.426 144.844 42.336 145.236 42.336C145.796 42.336 146.198 42.462 146.442 42.714C146.69 42.962 146.82 43.344 146.832 43.86C146.352 43.928 145.848 44 145.32 44.076C144.796 44.148 144.33 44.238 143.922 44.346C143.43 44.49 143.042 44.716 142.758 45.024C142.474 45.328 142.332 45.736 142.332 46.248C142.332 46.596 142.414 46.916 142.578 47.208C142.746 47.5 142.992 47.736 143.316 47.916C143.644 48.092 144.05 48.18 144.534 48.18ZM144.696 47.286C144.236 47.286 143.904 47.18 143.7 46.968C143.496 46.752 143.394 46.51 143.394 46.242C143.394 45.938 143.494 45.706 143.694 45.546C143.898 45.382 144.134 45.258 144.402 45.174C144.718 45.086 145.086 45.012 145.506 44.952C145.926 44.892 146.364 44.832 146.82 44.772C146.82 44.92 146.812 45.088 146.796 45.276C146.784 45.464 146.756 45.636 146.712 45.792C146.636 46.192 146.424 46.542 146.076 46.842C145.732 47.138 145.272 47.286 144.696 47.286ZM151.986 48.18C152.426 48.18 152.814 48.1 153.15 47.94C153.49 47.776 153.778 47.552 154.014 47.268V48H154.968V39.36H153.894V42.108C153.662 41.868 153.386 41.68 153.066 41.544C152.746 41.408 152.384 41.34 151.98 41.34C151.38 41.34 150.862 41.49 150.426 41.79C149.994 42.086 149.662 42.492 149.43 43.008C149.198 43.524 149.082 44.106 149.082 44.754C149.082 45.402 149.198 45.984 149.43 46.5C149.662 47.016 149.994 47.426 150.426 47.73C150.862 48.03 151.382 48.18 151.986 48.18ZM152.118 47.202C151.694 47.202 151.34 47.094 151.056 46.878C150.776 46.662 150.566 46.37 150.426 46.002C150.286 45.63 150.216 45.214 150.216 44.754C150.216 44.298 150.284 43.886 150.42 43.518C150.56 43.15 150.772 42.858 151.056 42.642C151.344 42.426 151.708 42.318 152.148 42.318C152.78 42.318 153.248 42.546 153.552 43.002C153.86 43.454 154.014 44.038 154.014 44.754C154.014 45.466 153.862 46.052 153.558 46.512C153.254 46.972 152.774 47.202 152.118 47.202ZM157.549 50.88H158.587L162.115 41.52H161.029L159.133 46.62L157.111 41.52H155.989L158.617 47.976L157.549 50.88ZM165.268 47.994H171.01V46.974H166.912L169.696 44.472C169.992 44.208 170.236 43.96 170.428 43.728C170.624 43.492 170.77 43.236 170.866 42.96C170.962 42.684 171.01 42.358 171.01 41.982C171.01 41.45 170.886 40.974 170.638 40.554C170.394 40.13 170.06 39.796 169.636 39.552C169.212 39.304 168.732 39.18 168.196 39.18C167.644 39.18 167.15 39.3 166.714 39.54C166.278 39.776 165.934 40.104 165.682 40.524C165.434 40.94 165.31 41.42 165.31 41.964H166.402C166.398 41.648 166.472 41.358 166.624 41.094C166.78 40.826 166.992 40.61 167.26 40.446C167.528 40.282 167.834 40.2 168.178 40.2C168.51 40.2 168.806 40.278 169.066 40.434C169.33 40.59 169.538 40.802 169.69 41.07C169.842 41.338 169.918 41.638 169.918 41.97C169.918 42.242 169.862 42.508 169.75 42.768C169.642 43.028 169.428 43.3 169.108 43.584L165.274 47.034L165.268 47.994ZM175.943 48H177.023V46.41H177.923V45.396H177.023V42.966H175.943V45.396H173.183L176.033 39.36H174.821L171.971 45.396V46.41H175.943V48ZM181.544 39.36H182.63L180.326 48H179.24L181.544 39.36ZM184.644 48H185.796L188.898 40.386V39.36H183.828V40.386H187.752L184.644 48ZM196.36 48V47.082C195.916 47.15 195.536 47.162 195.22 47.118C194.908 47.074 194.68 46.924 194.536 46.668C194.46 46.532 194.418 46.372 194.41 46.188C194.406 46 194.404 45.772 194.404 45.504V42.402H196.36V41.52H194.404V39.72H193.336V41.52H192.022V42.402H193.336V45.552C193.336 45.888 193.34 46.188 193.348 46.452C193.36 46.712 193.43 46.968 193.558 47.22C193.71 47.512 193.932 47.728 194.224 47.868C194.516 48.004 194.848 48.078 195.22 48.09C195.596 48.106 195.976 48.076 196.36 48ZM200.166 48.18C200.81 48.18 201.364 48.036 201.828 47.748C202.296 47.46 202.656 47.058 202.908 46.542C203.164 46.026 203.292 45.43 203.292 44.754C203.292 44.086 203.166 43.496 202.914 42.984C202.666 42.468 202.308 42.066 201.84 41.778C201.372 41.486 200.814 41.34 200.166 41.34C199.534 41.34 198.984 41.484 198.516 41.772C198.048 42.056 197.686 42.454 197.43 42.966C197.174 43.478 197.046 44.074 197.046 44.754C197.046 45.422 197.17 46.014 197.418 46.53C197.67 47.046 198.03 47.45 198.498 47.742C198.966 48.034 199.522 48.18 200.166 48.18ZM200.166 47.166C199.514 47.166 199.02 46.948 198.684 46.512C198.348 46.072 198.18 45.486 198.18 44.754C198.18 44.046 198.342 43.47 198.666 43.026C198.99 42.578 199.49 42.354 200.166 42.354C200.83 42.354 201.328 42.572 201.66 43.008C201.992 43.444 202.158 44.026 202.158 44.754C202.158 45.466 201.992 46.046 201.66 46.494C201.332 46.942 200.834 47.166 200.166 47.166ZM207.01 48H208.09V44.586C208.09 43.834 208.252 43.276 208.576 42.912C208.904 42.548 209.336 42.366 209.872 42.366C210.328 42.366 210.684 42.48 210.94 42.708C211.196 42.936 211.374 43.232 211.474 43.596C211.578 43.96 211.63 44.346 211.63 44.754V48H212.71V44.418C212.71 44.11 212.672 43.78 212.596 43.428C212.524 43.072 212.392 42.738 212.2 42.426C212.012 42.11 211.75 41.852 211.414 41.652C211.082 41.452 210.654 41.352 210.13 41.352C209.186 41.352 208.466 41.686 207.97 42.354V39.36H207.01V48ZM217.078 48.18C217.706 48.18 218.272 48.024 218.776 47.712C219.28 47.396 219.66 46.952 219.916 46.38L218.89 46.026C218.518 46.786 217.898 47.166 217.03 47.166C216.434 47.166 215.966 46.984 215.626 46.62C215.29 46.252 215.1 45.732 215.056 45.06H220.024C220.056 44.292 219.956 43.63 219.724 43.074C219.496 42.518 219.152 42.09 218.692 41.79C218.236 41.49 217.682 41.34 217.03 41.34C216.402 41.34 215.854 41.482 215.386 41.766C214.918 42.046 214.554 42.446 214.294 42.966C214.038 43.482 213.91 44.094 213.91 44.802C213.91 45.478 214.04 46.07 214.3 46.578C214.564 47.082 214.934 47.476 215.41 47.76C215.886 48.04 216.442 48.18 217.078 48.18ZM217.066 42.3C218.166 42.3 218.782 42.934 218.914 44.202H215.074C215.15 43.586 215.356 43.116 215.692 42.792C216.028 42.464 216.486 42.3 217.066 42.3ZM221.48 48H222.548V39.18H221.48V48ZM224.342 50.88H225.416V47.4C225.648 47.644 225.922 47.836 226.238 47.976C226.558 48.112 226.92 48.18 227.324 48.18C227.928 48.18 228.446 48.03 228.878 47.73C229.314 47.426 229.648 47.016 229.88 46.5C230.112 45.984 230.228 45.402 230.228 44.754C230.228 44.106 230.112 43.524 229.88 43.008C229.648 42.492 229.314 42.086 228.878 41.79C228.446 41.49 227.93 41.34 227.33 41.34C226.89 41.34 226.5 41.42 226.16 41.58C225.82 41.74 225.532 41.962 225.296 42.246V41.52H224.342V50.88ZM227.192 47.202C226.54 47.202 226.06 46.972 225.752 46.512C225.448 46.052 225.296 45.466 225.296 44.754C225.296 44.038 225.448 43.454 225.752 43.002C226.06 42.546 226.53 42.318 227.162 42.318C227.602 42.318 227.964 42.426 228.248 42.642C228.536 42.858 228.748 43.15 228.884 43.518C229.024 43.886 229.094 44.298 229.094 44.754C229.094 45.214 229.024 45.63 228.884 46.002C228.744 46.37 228.534 46.662 228.254 46.878C227.974 47.094 227.62 47.202 227.192 47.202ZM232.143 45.84H233.211V39.36H232.143V45.84ZM232.143 48H233.211V46.896H232.143V48Z" fill="white"/>
<circle cx="36" cy="34" r="20" fill="#ACBBF3"/>
<path d="M41 24H31C28.24 24 26 26.23 26 28.98V34.96V35.96C26 38.71 28.24 40.94 31 40.94H32.5C32.77 40.94 33.13 41.12 33.3 41.34L34.8 43.33C35.46 44.21 36.54 44.21 37.2 43.33L38.7 41.34C38.89 41.09 39.19 40.94 39.5 40.94H41C43.76 40.94 46 38.71 46 35.96V28.98C46 26.23 43.76 24 41 24ZM39.66 36.53C39.51 36.68 39.32 36.75 39.13 36.75C38.94 36.75 38.75 36.68 38.6 36.53L37.86 35.79C37.28 36.17 36.58 36.4 35.83 36.4C33.79 36.4 32.13 34.74 32.13 32.7C32.13 30.66 33.78 29 35.83 29C37.88 29 39.53 30.66 39.53 32.7C39.53 33.45 39.3 34.15 38.92 34.73L39.66 35.47C39.95 35.76 39.95 36.24 39.66 36.53Z" fill="white"/>
</svg>
