<svg width="96" height="96" viewBox="0 0 96 96" fill="none" xmlns="http://www.w3.org/2000/svg">
<circle cx="48" cy="48" r="48" fill="#211F32"/>
<circle cx="48" cy="48" r="36" fill="#4263EB"/>
<path d="M55.9999 40.0001C55.1866 40.0001 54.4399 39.5334 54.0666 38.8134L53.1066 36.8801C52.4932 35.6667 50.8932 34.6667 49.5332 34.6667H46.4799C45.1066 34.6667 43.5066 35.6667 42.8932 36.8801L41.9332 38.8134C41.5599 39.5334 40.8132 40.0001 39.9999 40.0001C37.1066 40.0001 34.8132 42.4401 34.9999 45.3201L35.6932 56.3334C35.8532 59.0801 37.3332 61.3334 41.0132 61.3334H54.9866C58.6666 61.3334 60.1332 59.0801 60.3066 56.3334L60.9999 45.3201C61.1866 42.4401 58.8932 40.0001 55.9999 40.0001ZM45.9999 41.6667H49.9999C50.5466 41.6667 50.9999 42.1201 50.9999 42.6667C50.9999 43.2134 50.5466 43.6667 49.9999 43.6667H45.9999C45.4532 43.6667 44.9999 43.2134 44.9999 42.6667C44.9999 42.1201 45.4532 41.6667 45.9999 41.6667ZM47.9999 56.1601C45.5199 56.1601 43.4932 54.1467 43.4932 51.6534C43.4932 49.1601 45.5066 47.1467 47.9999 47.1467C50.4932 47.1467 52.5066 49.1601 52.5066 51.6534C52.5066 54.1467 50.4799 56.1601 47.9999 56.1601Z" fill="white"/>
</svg>
