<svg width="172" height="180" viewBox="0 0 172 180" fill="none" xmlns="http://www.w3.org/2000/svg">
<circle cx="80" cy="80" r="80" fill="#52525C"/>
<g filter="url(#filter0_d_63_5461)">
<path d="M80 144C115.346 144 144 115.346 144 80C144 44.6538 115.346 16 80 16C44.6538 16 16 44.6538 16 80C16 115.346 44.6538 144 80 144Z" fill="white"/>
</g>
<path d="M101.667 53.6999L85.0334 47.4665C82.2667 46.4332 77.7334 46.4332 74.9667 47.4665L58.3334 53.6999C54.5 55.1332 51.3667 59.6665 51.3667 63.7332V88.4999C51.3667 92.4332 53.9667 97.5999 57.1334 99.9665L71.4667 110.667C76.1667 114.2 83.9 114.2 88.6 110.667L102.933 99.9665C106.1 97.5999 108.7 92.4332 108.7 88.4999V63.7332C108.633 59.6665 105.5 55.1332 101.667 53.6999ZM79.7667 63.4332C83.7 63.4332 86.9 66.6332 86.9 70.5665C86.9 74.4332 83.8667 77.5332 80.0334 77.6665H79.9667H79.9C79.8334 77.6665 79.7667 77.6665 79.7 77.6665C75.7 77.5332 72.7 74.4332 72.7 70.5665C72.6667 66.6332 75.8667 63.4332 79.7667 63.4332ZM87.3 94.5332C85.2667 95.8665 82.6334 96.5665 80 96.5665C77.3667 96.5665 74.7 95.8999 72.7 94.5332C70.8 93.2665 69.7667 91.5332 69.7334 89.6332C69.7334 87.7665 70.8 85.9665 72.7 84.6999C76.7334 82.0332 83.3 82.0332 87.3334 84.6999C89.2334 85.9665 90.3 87.6999 90.3 89.5999C90.2667 91.4665 89.2 93.2665 87.3 94.5332Z" fill="#4263EB"/>
<defs>
<filter id="filter0_d_63_5461" x="12" y="16" width="160" height="164" filterUnits="userSpaceOnUse" color-interpolation-filters="sRGB">
<feFlood flood-opacity="0" result="BackgroundImageFix"/>
<feColorMatrix in="SourceAlpha" type="matrix" values="0 0 0 0 0 0 0 0 0 0 0 0 0 0 0 0 0 0 127 0" result="hardAlpha"/>
<feOffset dx="12" dy="20"/>
<feGaussianBlur stdDeviation="8"/>
<feColorMatrix type="matrix" values="0 0 0 0 0.1024 0 0 0 0 0.0219429 0 0 0 0 0.618057 0 0 0 0.09 0"/>
<feBlend mode="normal" in2="BackgroundImageFix" result="effect1_dropShadow_63_5461"/>
<feBlend mode="normal" in="SourceGraphic" in2="effect1_dropShadow_63_5461" result="shape"/>
</filter>
</defs>
</svg>
