<svg width="48" height="48" viewBox="0 0 48 48" fill="none" xmlns="http://www.w3.org/2000/svg">
<circle cx="24" cy="24" r="23.5" stroke="#52525C"/>
<path d="M14.5798 31.01L14.5598 31.03C14.2898 30.44 14.1198 29.77 14.0498 29.03C14.1198 29.76 14.3098 30.42 14.5798 31.01Z" fill="#4263EB"/>
<path d="M21.0001 22.3801C22.3146 22.3801 23.3801 21.3146 23.3801 20.0001C23.3801 18.6857 22.3146 17.6201 21.0001 17.6201C19.6857 17.6201 18.6201 18.6857 18.6201 20.0001C18.6201 21.3146 19.6857 22.3801 21.0001 22.3801Z" fill="#4263EB"/>
<path d="M28.19 14H19.81C16.17 14 14 16.17 14 19.81V28.19C14 29.28 14.19 30.23 14.56 31.03C15.42 32.93 17.26 34 19.81 34H28.19C31.83 34 34 31.83 34 28.19V25.9V19.81C34 16.17 31.83 14 28.19 14ZM32.37 24.5C31.59 23.83 30.33 23.83 29.55 24.5L25.39 28.07C24.61 28.74 23.35 28.74 22.57 28.07L22.23 27.79C21.52 27.17 20.39 27.11 19.59 27.65L15.85 30.16C15.63 29.6 15.5 28.95 15.5 28.19V19.81C15.5 16.99 16.99 15.5 19.81 15.5H28.19C31.01 15.5 32.5 16.99 32.5 19.81V24.61L32.37 24.5Z" fill="#4263EB"/>
</svg>
