<svg width="311" height="224" viewBox="0 0 311 224" fill="none" xmlns="http://www.w3.org/2000/svg">
<path d="M7.59572 15H8.85572V13.145H9.90572V11.962H8.85572V9.127H7.59572V11.962H4.37572L7.70072 4.92H6.28672L2.96172 11.962V13.145H7.59572V15ZM11.5746 15H12.8416V11.36L16.2786 15H18.0216L14.2906 11.22L17.6296 7.44H16.0126L12.8416 11.08V4.92H11.5816L11.5746 15Z" fill="#A2A0A8"/>
<line x1="36" y1="9.5" x2="311" y2="9.5" stroke="#52525C" stroke-dasharray="4 4"/>
<path d="M6.23914 59.196C6.86447 59.196 7.42447 59.056 7.91914 58.776C8.41381 58.496 8.80581 58.1087 9.09514 57.614C9.38447 57.1147 9.52914 56.543 9.52914 55.899C9.52914 55.311 9.41014 54.7837 9.17214 54.317C8.93881 53.8503 8.60747 53.477 8.17814 53.197C7.75347 52.917 7.25181 52.7607 6.67314 52.728L9.39614 50.117V48.92H3.45314V50.11H7.84914L4.57314 53.071L5.17514 54.058C5.33381 53.9787 5.50414 53.9157 5.68614 53.869C5.86814 53.8177 6.04547 53.792 6.21814 53.792C6.82481 53.792 7.31481 53.988 7.68814 54.38C8.06147 54.7673 8.24814 55.2737 8.24814 55.899C8.24814 56.515 8.06381 57.019 7.69514 57.411C7.33114 57.7983 6.84347 57.9967 6.23214 58.006C5.78414 58.0107 5.37814 57.8917 5.01414 57.649C4.65481 57.4063 4.40047 57.0517 4.25114 56.585L3.05414 56.928C3.26881 57.628 3.66547 58.181 4.24414 58.587C4.82747 58.993 5.49247 59.196 6.23914 59.196ZM11.3421 59H12.6091V55.36L16.0461 59H17.7891L14.0581 55.22L17.3971 51.44H15.7801L12.6091 55.08V48.92H11.3491L11.3421 59Z" fill="#A2A0A8"/>
<line x1="36" y1="53.5" x2="311" y2="53.5" stroke="#52525C" stroke-dasharray="4 4"/>
<path d="M3.08477 102.993H9.78377V101.803H5.00277L8.25077 98.884C8.5961 98.576 8.88077 98.2867 9.10477 98.016C9.33343 97.7407 9.50377 97.442 9.61577 97.12C9.72777 96.798 9.78377 96.4177 9.78377 95.979C9.78377 95.3583 9.6391 94.803 9.34977 94.313C9.0651 93.8183 8.67543 93.4287 8.18077 93.144C7.6861 92.8547 7.1261 92.71 6.50077 92.71C5.85677 92.71 5.28043 92.85 4.77177 93.13C4.2631 93.4053 3.86177 93.788 3.56777 94.278C3.27843 94.7633 3.13377 95.3233 3.13377 95.958H4.40777C4.4031 95.5893 4.48943 95.251 4.66677 94.943C4.84877 94.6303 5.0961 94.3783 5.40877 94.187C5.72143 93.9957 6.07843 93.9 6.47977 93.9C6.8671 93.9 7.21243 93.991 7.51577 94.173C7.82377 94.355 8.06643 94.6023 8.24377 94.915C8.4211 95.2277 8.50977 95.5777 8.50977 95.965C8.50977 96.2823 8.44443 96.5927 8.31377 96.896C8.18777 97.1993 7.9381 97.5167 7.56477 97.848L3.09177 101.873L3.08477 102.993ZM11.4515 103H12.7185V99.36L16.1555 103H17.8985L14.1675 99.22L17.5065 95.44H15.8895L12.7185 99.08V92.92H11.4585L11.4515 103Z" fill="#A2A0A8"/>
<line x1="36" y1="97.5" x2="311" y2="97.5" stroke="#52525C" stroke-dasharray="4 4"/>
<path d="M6.32489 147H7.59189V136.92H6.32489L4.42789 138.054V139.447L6.32489 138.299V147ZM10.2484 147H11.5154V143.36L14.9524 147H16.6954L12.9644 143.22L16.3034 139.44H14.6864L11.5154 143.08V136.92H10.2554L10.2484 147Z" fill="#A2A0A8"/>
<line x1="36" y1="141.5" x2="311" y2="141.5" stroke="#52525C" stroke-dasharray="4 4"/>
<path d="M10.0002 191.21C10.6535 191.21 11.2368 191.063 11.7502 190.769C12.2635 190.475 12.6672 190.071 12.9612 189.558C13.2552 189.045 13.4022 188.461 13.4022 187.808V184.112C13.4022 183.459 13.2552 182.875 12.9612 182.362C12.6672 181.849 12.2635 181.445 11.7502 181.151C11.2368 180.857 10.6535 180.71 10.0002 180.71C9.34683 180.71 8.7635 180.857 8.25016 181.151C7.73683 181.445 7.33316 181.849 7.03916 182.362C6.74516 182.875 6.59816 183.459 6.59816 184.112V187.808C6.59816 188.461 6.74516 189.045 7.03916 189.558C7.33316 190.071 7.73683 190.475 8.25016 190.769C8.7635 191.063 9.34683 191.21 10.0002 191.21ZM10.0002 190.013C9.60816 190.013 9.24883 189.917 8.92216 189.726C8.60016 189.535 8.3435 189.278 8.15216 188.956C7.96083 188.629 7.86516 188.27 7.86516 187.878V184.035C7.86516 183.638 7.96083 183.279 8.15216 182.957C8.3435 182.635 8.60016 182.378 8.92216 182.187C9.24883 181.996 9.60816 181.9 10.0002 181.9C10.3968 181.9 10.7562 181.996 11.0782 182.187C11.4002 182.378 11.6568 182.635 11.8482 182.957C12.0395 183.279 12.1352 183.638 12.1352 184.035V187.878C12.1352 188.27 12.0395 188.629 11.8482 188.956C11.6568 189.278 11.4002 189.535 11.0782 189.726C10.7562 189.917 10.3968 190.013 10.0002 190.013Z" fill="#A2A0A8"/>
<line x1="36" y1="185.5" x2="311" y2="185.5" stroke="#52525C" stroke-dasharray="4 4"/>
<path d="M43.008 219.203C43.5167 219.203 43.981 219.098 44.401 218.888C44.821 218.673 45.1593 218.344 45.416 217.901C45.6027 217.579 45.703 217.264 45.717 216.956C45.7357 216.643 45.745 216.27 45.745 215.836V208.92H44.485V215.836C44.485 216.149 44.478 216.419 44.464 216.648C44.45 216.872 44.3963 217.075 44.303 217.257C44.1677 217.528 43.9717 217.724 43.715 217.845C43.463 217.962 43.218 218.02 42.98 218.02C42.6067 218.02 42.2753 217.901 41.986 217.663C41.7013 217.425 41.5217 217.136 41.447 216.795L40.208 217.089C40.3853 217.733 40.719 218.246 41.209 218.629C41.7037 219.012 42.3033 219.203 43.008 219.203ZM50.7162 219.196C51.8175 219.196 52.6575 218.806 53.2362 218.027V219H54.3492V211.44H53.0962V215.423C53.0962 216.296 52.9049 216.947 52.5222 217.376C52.1442 217.801 51.6425 218.013 51.0172 218.013C50.4852 218.013 50.0699 217.88 49.7712 217.614C49.4772 217.348 49.2695 217.003 49.1482 216.578C49.0269 216.149 48.9662 215.698 48.9662 215.227V211.44H47.7062V215.619C47.7062 215.978 47.7482 216.366 47.8322 216.781C47.9209 217.192 48.0749 217.581 48.2942 217.95C48.5182 218.314 48.8262 218.613 49.2182 218.846C49.6102 219.079 50.1095 219.196 50.7162 219.196ZM56.3021 219H57.5621V215.017C57.5621 214.14 57.7511 213.489 58.1291 213.064C58.5118 212.639 59.0158 212.427 59.6411 212.427C60.1731 212.427 60.5884 212.56 60.8871 212.826C61.1858 213.092 61.3934 213.437 61.5101 213.862C61.6314 214.287 61.6921 214.737 61.6921 215.213V219H62.9521V214.821C62.9521 214.462 62.9078 214.077 62.8191 213.666C62.7351 213.251 62.5811 212.861 62.3571 212.497C62.1378 212.128 61.8321 211.827 61.4401 211.594C61.0528 211.361 60.5534 211.244 59.9421 211.244C58.8408 211.244 58.0008 211.634 57.4221 212.413V211.44H56.3021V219Z" fill="#A2A0A8"/>
<path d="M93.4963 219.203C94.005 219.203 94.4693 219.098 94.8893 218.888C95.3093 218.673 95.6476 218.344 95.9043 217.901C96.091 217.579 96.1913 217.264 96.2053 216.956C96.224 216.643 96.2333 216.27 96.2333 215.836V208.92H94.9733V215.836C94.9733 216.149 94.9663 216.419 94.9523 216.648C94.9383 216.872 94.8846 217.075 94.7913 217.257C94.656 217.528 94.46 217.724 94.2033 217.845C93.9513 217.962 93.7063 218.02 93.4683 218.02C93.095 218.02 92.7636 217.901 92.4743 217.663C92.1896 217.425 92.01 217.136 91.9353 216.795L90.6963 217.089C90.8736 217.733 91.2073 218.246 91.6973 218.629C92.192 219.012 92.7916 219.203 93.4963 219.203ZM101.204 219.196C102.306 219.196 103.146 218.806 103.724 218.027V219H104.837V211.44H103.584V215.423C103.584 216.296 103.393 216.947 103.01 217.376C102.632 217.801 102.131 218.013 101.505 218.013C100.973 218.013 100.558 217.88 100.259 217.614C99.9655 217.348 99.7578 217.003 99.6365 216.578C99.5152 216.149 99.4545 215.698 99.4545 215.227V211.44H98.1945V215.619C98.1945 215.978 98.2365 216.366 98.3205 216.781C98.4092 217.192 98.5632 217.581 98.7825 217.95C99.0065 218.314 99.3145 218.613 99.7065 218.846C100.098 219.079 100.598 219.196 101.204 219.196ZM106.937 219H108.183V208.71H106.937V219Z" fill="#A2A0A8"/>
<path d="M135.333 219H136.628L137.419 216.641H141.724L142.522 219H143.817L140.443 208.92H138.707L135.333 219ZM137.811 215.472L139.561 210.229L141.332 215.472H137.811ZM147.94 219.196C149.041 219.196 149.881 218.806 150.46 218.027V219H151.573V211.44H150.32V215.423C150.32 216.296 150.129 216.947 149.746 217.376C149.368 217.801 148.866 218.013 148.241 218.013C147.709 218.013 147.294 217.88 146.995 217.614C146.701 217.348 146.493 217.003 146.372 216.578C146.251 216.149 146.19 215.698 146.19 215.227V211.44H144.93V215.619C144.93 215.978 144.972 216.366 145.056 216.781C145.145 217.192 145.299 217.581 145.518 217.95C145.742 218.314 146.05 218.613 146.442 218.846C146.834 219.079 147.333 219.196 147.94 219.196ZM156.501 219.21C156.967 219.21 157.385 219.131 157.754 218.972C158.127 218.813 158.449 218.592 158.72 218.307V219.035C158.734 220.589 158.027 221.366 156.599 221.366C156.23 221.366 155.875 221.282 155.535 221.114C155.194 220.946 154.93 220.678 154.744 220.309L153.603 220.911C153.92 221.476 154.349 221.893 154.891 222.164C155.432 222.435 155.999 222.57 156.592 222.57C157.497 222.57 158.234 222.376 158.804 221.989C159.378 221.606 159.737 221.014 159.882 220.211C159.919 220.024 159.942 219.835 159.952 219.644C159.966 219.457 159.973 219.259 159.973 219.049V211.44H158.867V212.287C158.591 211.956 158.255 211.697 157.859 211.51C157.462 211.323 157.007 211.23 156.494 211.23C155.794 211.23 155.192 211.405 154.688 211.755C154.184 212.1 153.794 212.574 153.519 213.176C153.248 213.778 153.113 214.457 153.113 215.213C153.113 215.969 153.248 216.648 153.519 217.25C153.789 217.852 154.177 218.33 154.681 218.685C155.189 219.035 155.796 219.21 156.501 219.21ZM156.655 218.069C156.16 218.069 155.747 217.943 155.416 217.691C155.089 217.439 154.844 217.098 154.681 216.669C154.517 216.235 154.436 215.75 154.436 215.213C154.436 214.681 154.515 214.2 154.674 213.771C154.837 213.342 155.084 213.001 155.416 212.749C155.752 212.497 156.176 212.371 156.69 212.371C157.427 212.371 157.973 212.637 158.328 213.169C158.687 213.696 158.867 214.378 158.867 215.213C158.867 216.044 158.689 216.727 158.335 217.264C157.98 217.801 157.42 218.069 156.655 218.069Z" fill="#A2A0A8"/>
<path d="M187.917 219.21C188.617 219.21 189.252 219.093 189.821 218.86C190.391 218.627 190.843 218.286 191.179 217.838C191.52 217.385 191.69 216.835 191.69 216.186C191.69 215.701 191.602 215.299 191.424 214.982C191.247 214.66 191.023 214.403 190.752 214.212C190.482 214.016 190.202 213.864 189.912 213.757C189.628 213.65 189.376 213.566 189.156 213.505L187.238 212.952C186.991 212.882 186.737 212.793 186.475 212.686C186.214 212.574 185.995 212.425 185.817 212.238C185.645 212.047 185.558 211.797 185.558 211.489C185.558 211.176 185.654 210.901 185.845 210.663C186.041 210.42 186.305 210.231 186.636 210.096C186.972 209.961 187.346 209.895 187.756 209.9C188.396 209.905 188.953 210.087 189.429 210.446C189.91 210.801 190.202 211.284 190.304 211.895L191.627 211.664C191.441 210.745 191.004 210.026 190.318 209.508C189.637 208.985 188.788 208.722 187.77 208.717C187.103 208.712 186.501 208.822 185.964 209.046C185.432 209.27 185.012 209.594 184.704 210.019C184.396 210.439 184.242 210.948 184.242 211.545C184.242 212.04 184.345 212.45 184.55 212.777C184.76 213.104 185.031 213.365 185.362 213.561C185.698 213.752 186.053 213.904 186.426 214.016L188.995 214.779C189.355 214.886 189.679 215.05 189.968 215.269C190.258 215.484 190.402 215.813 190.402 216.256C190.402 216.62 190.293 216.935 190.073 217.201C189.859 217.467 189.569 217.672 189.205 217.817C188.841 217.957 188.433 218.027 187.98 218.027C187.276 218.027 186.667 217.85 186.153 217.495C185.64 217.136 185.302 216.639 185.138 216.004L183.85 216.207C183.962 216.823 184.203 217.357 184.571 217.81C184.945 218.258 185.416 218.603 185.985 218.846C186.559 219.089 187.203 219.21 187.917 219.21ZM196.435 219.21C197.167 219.21 197.828 219.028 198.416 218.664C199.004 218.295 199.447 217.777 199.746 217.11L198.549 216.697C198.115 217.584 197.391 218.027 196.379 218.027C195.683 218.027 195.137 217.815 194.741 217.39C194.349 216.961 194.127 216.354 194.076 215.57H199.872C199.909 214.674 199.792 213.902 199.522 213.253C199.256 212.604 198.854 212.105 198.318 211.755C197.786 211.405 197.139 211.23 196.379 211.23C195.646 211.23 195.007 211.396 194.461 211.727C193.915 212.054 193.49 212.52 193.187 213.127C192.888 213.729 192.739 214.443 192.739 215.269C192.739 216.058 192.89 216.748 193.194 217.341C193.502 217.929 193.933 218.389 194.489 218.72C195.044 219.047 195.693 219.21 196.435 219.21ZM196.421 212.35C197.704 212.35 198.423 213.09 198.577 214.569H194.097C194.185 213.85 194.426 213.302 194.818 212.924C195.21 212.541 195.744 212.35 196.421 212.35ZM201.218 222.36H202.471V218.3C202.742 218.585 203.061 218.809 203.43 218.972C203.803 219.131 204.226 219.21 204.697 219.21C205.402 219.21 206.006 219.035 206.51 218.685C207.019 218.33 207.408 217.852 207.679 217.25C207.95 216.648 208.085 215.969 208.085 215.213C208.085 214.457 207.95 213.778 207.679 213.176C207.408 212.574 207.019 212.1 206.51 211.755C206.006 211.405 205.404 211.23 204.704 211.23C204.191 211.23 203.736 211.323 203.339 211.51C202.942 211.697 202.606 211.956 202.331 212.287V211.44H201.218V222.36ZM204.543 218.069C203.782 218.069 203.222 217.801 202.863 217.264C202.508 216.727 202.331 216.044 202.331 215.213C202.331 214.378 202.508 213.696 202.863 213.169C203.222 212.637 203.771 212.371 204.508 212.371C205.021 212.371 205.444 212.497 205.775 212.749C206.111 213.001 206.358 213.342 206.517 213.771C206.68 214.2 206.762 214.681 206.762 215.213C206.762 215.75 206.68 216.235 206.517 216.669C206.354 217.098 206.109 217.439 205.782 217.691C205.455 217.943 205.042 218.069 204.543 218.069Z" fill="#A2A0A8"/>
<path d="M237.067 219.21C238.075 219.21 238.934 218.988 239.643 218.545C240.352 218.102 240.894 217.488 241.267 216.704C241.64 215.915 241.827 215.001 241.827 213.96C241.827 212.919 241.64 212.007 241.267 211.223C240.894 210.434 240.352 209.818 239.643 209.375C238.934 208.932 238.075 208.71 237.067 208.71C236.059 208.71 235.2 208.932 234.491 209.375C233.782 209.818 233.238 210.434 232.86 211.223C232.487 212.007 232.3 212.919 232.3 213.96C232.3 215.001 232.487 215.915 232.86 216.704C233.238 217.488 233.782 218.102 234.491 218.545C235.2 218.988 236.059 219.21 237.067 219.21ZM237.067 217.817C235.998 217.808 235.193 217.451 234.652 216.746C234.115 216.041 233.849 215.113 233.854 213.96C233.859 213.19 233.978 212.516 234.211 211.937C234.449 211.354 234.806 210.901 235.282 210.579C235.758 210.252 236.353 210.094 237.067 210.103C238.14 210.108 238.943 210.462 239.475 211.167C240.007 211.872 240.273 212.803 240.273 213.96C240.273 214.73 240.154 215.407 239.916 215.99C239.683 216.569 239.328 217.019 238.852 217.341C238.376 217.663 237.781 217.822 237.067 217.817ZM246.457 219.21C247.269 219.21 247.96 219.014 248.529 218.622C249.098 218.23 249.507 217.663 249.754 216.921L248.27 216.571C248.116 216.977 247.892 217.29 247.598 217.509C247.309 217.724 246.928 217.831 246.457 217.831C245.766 217.831 245.244 217.591 244.889 217.11C244.539 216.629 244.362 215.999 244.357 215.22C244.362 214.464 244.532 213.841 244.868 213.351C245.209 212.856 245.738 212.609 246.457 212.609C246.882 212.609 247.257 212.728 247.584 212.966C247.915 213.199 248.153 213.528 248.298 213.953L249.754 213.533C249.567 212.824 249.18 212.264 248.592 211.853C248.009 211.438 247.304 211.23 246.478 211.23C245.717 211.23 245.062 211.4 244.511 211.741C243.965 212.082 243.545 212.553 243.251 213.155C242.957 213.752 242.808 214.441 242.803 215.22C242.808 215.985 242.952 216.669 243.237 217.271C243.526 217.873 243.942 218.347 244.483 218.692C245.029 219.037 245.687 219.21 246.457 219.21ZM255.506 219V217.761C255.012 217.836 254.58 217.852 254.211 217.81C253.847 217.763 253.581 217.598 253.413 217.313C253.325 217.159 253.276 216.97 253.266 216.746C253.262 216.522 253.259 216.258 253.259 215.955V212.616H255.506V211.44H253.259V209.34H251.789V211.44H250.34V212.616H251.789V216.025C251.789 216.436 251.794 216.804 251.803 217.131C251.817 217.453 251.906 217.77 252.069 218.083C252.256 218.433 252.529 218.69 252.888 218.853C253.248 219.016 253.656 219.105 254.113 219.119C254.571 219.133 255.035 219.093 255.506 219Z" fill="white"/>
<path d="M280.381 219H281.641V211.118L286.898 219H288.158V208.92H286.898V216.795L281.641 208.92H280.381V219ZM293.336 219.21C294.087 219.21 294.733 219.042 295.275 218.706C295.821 218.37 296.241 217.901 296.535 217.299C296.833 216.697 296.983 216.002 296.983 215.213C296.983 214.434 296.836 213.745 296.542 213.148C296.252 212.546 295.835 212.077 295.289 211.741C294.743 211.4 294.092 211.23 293.336 211.23C292.598 211.23 291.957 211.398 291.411 211.734C290.865 212.065 290.442 212.53 290.144 213.127C289.845 213.724 289.696 214.42 289.696 215.213C289.696 215.992 289.84 216.683 290.13 217.285C290.424 217.887 290.844 218.358 291.39 218.699C291.936 219.04 292.584 219.21 293.336 219.21ZM293.336 218.027C292.575 218.027 291.999 217.773 291.607 217.264C291.215 216.751 291.019 216.067 291.019 215.213C291.019 214.387 291.208 213.715 291.586 213.197C291.964 212.674 292.547 212.413 293.336 212.413C294.11 212.413 294.691 212.667 295.079 213.176C295.466 213.685 295.66 214.364 295.66 215.213C295.66 216.044 295.466 216.72 295.079 217.243C294.696 217.766 294.115 218.027 293.336 218.027ZM300.295 219H301.569L304.313 211.44H303.046L300.932 217.411L298.811 211.44H297.551L300.295 219Z" fill="#A2A0A8"/>
<path d="M36 134C36 125.163 43.1634 118 52 118C60.8366 118 68 125.163 68 134V186H36V134Z" fill="#52525C"/>
<path d="M84 86C84 77.1634 91.1634 70 100 70C108.837 70 116 77.1634 116 86V186H84V86Z" fill="#52525C"/>
<path d="M132 119C132 110.163 139.163 103 148 103C156.837 103 164 110.163 164 119V186H132V119Z" fill="#52525C"/>
<path d="M276 142C276 133.163 283.163 126 292 126C300.837 126 308 133.163 308 142V186H276V142Z" fill="#52525C"/>
<path d="M180 129C180 120.163 187.163 113 196 113C204.837 113 212 120.163 212 129V186H180V129Z" fill="#52525C"/>
<path d="M228 80C228 71.1634 235.163 64 244 64C252.837 64 260 71.1634 260 80V186H228V80Z" fill="#6C56F9"/>
<line x1="243.5" y1="185.5" x2="243.5" y2="64.5" stroke="#907FFA" stroke-linecap="round" stroke-dasharray="8 8"/>
<rect x="209" y="26" width="71" height="26" rx="8" fill="white"/>
<path d="M220.333 45.194H221.587V44.144C222.371 44.048 222.997 43.768 223.465 43.304C223.933 42.836 224.167 42.248 224.167 41.54C224.167 40.936 224.005 40.452 223.681 40.088C223.357 39.724 222.831 39.434 222.103 39.218L220.513 38.756C220.073 38.628 219.751 38.472 219.547 38.288C219.343 38.1 219.241 37.874 219.241 37.61C219.241 37.25 219.399 36.952 219.715 36.716C220.035 36.48 220.431 36.366 220.903 36.374C221.403 36.378 221.829 36.526 222.181 36.818C222.533 37.106 222.751 37.482 222.835 37.946L224.113 37.718C223.965 37.038 223.671 36.486 223.231 36.062C222.795 35.634 222.247 35.362 221.587 35.246V34.166H220.333V35.222C219.613 35.318 219.041 35.584 218.617 36.02C218.197 36.452 217.987 37.002 217.987 37.67C217.987 38.738 218.587 39.458 219.787 39.83L221.815 40.454C222.207 40.578 222.489 40.73 222.661 40.91C222.837 41.09 222.925 41.324 222.925 41.612C222.925 42.016 222.753 42.348 222.409 42.608C222.065 42.868 221.623 42.998 221.083 42.998C220.535 42.998 220.065 42.848 219.673 42.548C219.281 42.244 219.025 41.836 218.905 41.324L217.663 41.522C217.779 42.23 218.073 42.812 218.545 43.268C219.021 43.724 219.617 44.01 220.333 44.126V45.194ZM225.207 43.994H231.051V42.8H227.145L229.647 40.568C229.959 40.292 230.219 40.036 230.427 39.8C230.635 39.564 230.791 39.308 230.895 39.032C230.999 38.752 231.051 38.416 231.051 38.024C231.051 37.476 230.925 36.988 230.673 36.56C230.425 36.132 230.085 35.796 229.653 35.552C229.221 35.304 228.733 35.18 228.189 35.18C227.617 35.18 227.107 35.3 226.659 35.54C226.215 35.776 225.867 36.106 225.615 36.53C225.363 36.95 225.237 37.44 225.237 38H226.521C226.517 37.708 226.585 37.44 226.725 37.196C226.869 36.948 227.065 36.75 227.313 36.602C227.561 36.45 227.845 36.374 228.165 36.374C228.629 36.374 229.011 36.53 229.311 36.842C229.611 37.154 229.761 37.542 229.761 38.006C229.761 38.25 229.705 38.494 229.593 38.738C229.485 38.978 229.279 39.234 228.975 39.506L225.213 42.878L225.207 43.994ZM232.37 45.434C232.802 45.51 233.13 45.428 233.354 45.188C233.582 44.948 233.696 44.592 233.696 44.12V42.554H232.37V44H233.06C233.092 44.256 233.062 44.47 232.97 44.642C232.882 44.818 232.708 44.896 232.448 44.876L232.37 45.434ZM238.737 44.18C239.301 44.18 239.799 44.066 240.231 43.838C240.667 43.61 241.009 43.294 241.257 42.89C241.505 42.486 241.629 42.02 241.629 41.492C241.629 41.06 241.539 40.66 241.359 40.292C241.183 39.92 240.921 39.612 240.573 39.368C241.125 38.924 241.401 38.33 241.401 37.586C241.401 37.094 241.287 36.668 241.059 36.308C240.831 35.948 240.517 35.67 240.117 35.474C239.717 35.278 239.257 35.18 238.737 35.18C238.217 35.18 237.755 35.278 237.351 35.474C236.951 35.67 236.637 35.948 236.409 36.308C236.181 36.668 236.067 37.094 236.067 37.586C236.067 38.314 236.343 38.908 236.895 39.368C236.547 39.616 236.285 39.924 236.109 40.292C235.937 40.66 235.851 41.06 235.851 41.492C235.851 42.02 235.973 42.486 236.217 42.89C236.465 43.294 236.805 43.61 237.237 43.838C237.673 44.066 238.173 44.18 238.737 44.18ZM238.737 38.786C238.341 38.786 238.019 38.686 237.771 38.486C237.523 38.286 237.399 37.986 237.399 37.586C237.399 37.182 237.523 36.88 237.771 36.68C238.019 36.476 238.341 36.374 238.737 36.374C239.133 36.374 239.453 36.476 239.697 36.68C239.945 36.88 240.069 37.182 240.069 37.586C240.069 37.986 239.945 38.286 239.697 38.486C239.453 38.686 239.133 38.786 238.737 38.786ZM238.737 42.986C238.273 42.986 237.897 42.86 237.609 42.608C237.321 42.352 237.177 41.98 237.177 41.492C237.177 41.004 237.319 40.632 237.603 40.376C237.891 40.116 238.269 39.986 238.737 39.986C239.205 39.986 239.581 40.116 239.865 40.376C240.153 40.632 240.297 41.004 240.297 41.492C240.297 41.98 240.153 42.352 239.865 42.608C239.577 42.86 239.201 42.986 238.737 42.986ZM245.956 44.18C246.52 44.18 247.018 44.066 247.45 43.838C247.886 43.61 248.228 43.294 248.476 42.89C248.724 42.486 248.848 42.02 248.848 41.492C248.848 41.06 248.758 40.66 248.578 40.292C248.402 39.92 248.14 39.612 247.792 39.368C248.344 38.924 248.62 38.33 248.62 37.586C248.62 37.094 248.506 36.668 248.278 36.308C248.05 35.948 247.736 35.67 247.336 35.474C246.936 35.278 246.476 35.18 245.956 35.18C245.436 35.18 244.974 35.278 244.57 35.474C244.17 35.67 243.856 35.948 243.628 36.308C243.4 36.668 243.286 37.094 243.286 37.586C243.286 38.314 243.562 38.908 244.114 39.368C243.766 39.616 243.504 39.924 243.328 40.292C243.156 40.66 243.07 41.06 243.07 41.492C243.07 42.02 243.192 42.486 243.436 42.89C243.684 43.294 244.024 43.61 244.456 43.838C244.892 44.066 245.392 44.18 245.956 44.18ZM245.956 38.786C245.56 38.786 245.238 38.686 244.99 38.486C244.742 38.286 244.618 37.986 244.618 37.586C244.618 37.182 244.742 36.88 244.99 36.68C245.238 36.476 245.56 36.374 245.956 36.374C246.352 36.374 246.672 36.476 246.916 36.68C247.164 36.88 247.288 37.182 247.288 37.586C247.288 37.986 247.164 38.286 246.916 38.486C246.672 38.686 246.352 38.786 245.956 38.786ZM245.956 42.986C245.492 42.986 245.116 42.86 244.828 42.608C244.54 42.352 244.396 41.98 244.396 41.492C244.396 41.004 244.538 40.632 244.822 40.376C245.11 40.116 245.488 39.986 245.956 39.986C246.424 39.986 246.8 40.116 247.084 40.376C247.372 40.632 247.516 41.004 247.516 41.492C247.516 41.98 247.372 42.352 247.084 42.608C246.796 42.86 246.42 42.986 245.956 42.986ZM253.378 44.18C253.918 44.18 254.412 44.052 254.86 43.796C255.308 43.536 255.666 43.188 255.934 42.752C256.206 42.312 256.342 41.822 256.342 41.282C256.342 40.742 256.22 40.258 255.976 39.83C255.736 39.402 255.406 39.064 254.986 38.816C254.566 38.568 254.086 38.444 253.546 38.444C253.19 38.444 252.852 38.512 252.532 38.648C252.212 38.784 251.93 38.974 251.686 39.218V38.186C251.686 37.87 251.762 37.574 251.914 37.298C252.07 37.022 252.284 36.8 252.556 36.632C252.832 36.46 253.148 36.374 253.504 36.374C253.784 36.374 254.046 36.438 254.29 36.566C254.538 36.69 254.744 36.858 254.908 37.07L255.826 36.212C255.534 35.872 255.188 35.616 254.788 35.444C254.388 35.272 253.96 35.186 253.504 35.186C252.896 35.186 252.358 35.318 251.89 35.582C251.426 35.846 251.062 36.216 250.798 36.692C250.538 37.164 250.408 37.716 250.408 38.348V41.102C250.408 41.694 250.538 42.222 250.798 42.686C251.062 43.15 251.418 43.516 251.866 43.784C252.318 44.048 252.822 44.18 253.378 44.18ZM253.378 42.974C253.066 42.974 252.782 42.898 252.526 42.746C252.27 42.59 252.066 42.384 251.914 42.128C251.762 41.872 251.686 41.59 251.686 41.282C251.686 40.97 251.762 40.686 251.914 40.43C252.07 40.174 252.276 39.97 252.532 39.818C252.788 39.666 253.072 39.59 253.384 39.59C253.696 39.59 253.98 39.666 254.236 39.818C254.492 39.97 254.694 40.174 254.842 40.43C254.994 40.686 255.07 40.97 255.07 41.282C255.07 41.594 254.994 41.878 254.842 42.134C254.69 42.39 254.486 42.594 254.23 42.746C253.974 42.898 253.69 42.974 253.378 42.974ZM258.077 44H259.403V42.674H258.077V44ZM261.36 44H262.638V35.36H261.36L259.734 36.332V37.73L261.36 36.74V44ZM267.928 44.18C268.516 44.18 269.036 44.052 269.488 43.796C269.94 43.536 270.294 43.18 270.55 42.728C270.81 42.272 270.94 41.752 270.94 41.168V38.192C270.94 37.604 270.81 37.084 270.55 36.632C270.294 36.18 269.94 35.826 269.488 35.57C269.036 35.31 268.516 35.18 267.928 35.18C267.344 35.18 266.824 35.31 266.368 35.57C265.916 35.826 265.56 36.18 265.3 36.632C265.044 37.084 264.916 37.604 264.916 38.192V41.168C264.916 41.752 265.044 42.272 265.3 42.728C265.56 43.18 265.916 43.536 266.368 43.796C266.824 44.052 267.344 44.18 267.928 44.18ZM267.928 42.98C267.608 42.98 267.316 42.904 267.052 42.752C266.788 42.596 266.578 42.386 266.422 42.122C266.27 41.858 266.194 41.566 266.194 41.246V38.102C266.194 37.782 266.27 37.492 266.422 37.232C266.578 36.968 266.788 36.76 267.052 36.608C267.316 36.452 267.608 36.374 267.928 36.374C268.252 36.374 268.544 36.452 268.804 36.608C269.068 36.76 269.276 36.968 269.428 37.232C269.584 37.492 269.662 37.782 269.662 38.102V41.246C269.662 41.566 269.584 41.858 269.428 42.122C269.276 42.386 269.068 42.596 268.804 42.752C268.544 42.904 268.252 42.98 267.928 42.98Z" fill="#15141F"/>
<path d="M244.756 55.1271C244.357 55.5876 243.643 55.5876 243.244 55.1271L240.237 51.6547C239.676 51.007 240.136 50 240.993 50L247.007 50C247.864 50 248.324 51.007 247.763 51.6547L244.756 55.1271Z" fill="white"/>
</svg>
