<svg width="311" height="180" viewBox="0 0 311 180" fill="none" xmlns="http://www.w3.org/2000/svg">
<rect width="311" height="180" rx="16" fill="#0C2073"/>
<mask id="mask0_63_4366" style="mask-type:alpha" maskUnits="userSpaceOnUse" x="0" y="0" width="311" height="180">
<rect width="311" height="180" rx="16" fill="#2378FA"/>
</mask>
<g mask="url(#mask0_63_4366)">
<path d="M164 39.8806C155.779 18.8347 149 -16 149 -16H364.5V192H239C239 192 236.116 157.38 229.431 136.378C215.621 92.9886 180.568 82.2929 164 39.8806Z" fill="#C8D1F9" stroke="black"/>
<mask id="mask1_63_4366" style="mask-type:alpha" maskUnits="userSpaceOnUse" x="-279" y="0" width="553" height="180">
<rect width="551.621" height="180" transform="matrix(1 9.19204e-08 8.31452e-08 -1 -278.272 180)" fill="white"/>
</mask>
<g mask="url(#mask1_63_4366)">
<mask id="mask2_63_4366" style="mask-type:alpha" maskUnits="userSpaceOnUse" x="-279" y="0" width="553" height="180">
<rect width="551.621" height="180" transform="matrix(1 9.19204e-08 8.31452e-08 -1 -278.272 180)" fill="white"/>
</mask>
<g mask="url(#mask2_63_4366)">
<mask id="mask3_63_4366" style="mask-type:alpha" maskUnits="userSpaceOnUse" x="-248" y="0" width="525" height="181">
<path fill-rule="evenodd" clip-rule="evenodd" d="M-247.626 180.092L-247.626 0.0917969L154.049 0.0918357C187.003 0.159095 205.717 12.2366 214.907 40.6916L254.183 158.275C261.292 178.798 276.241 180.081 276.375 180.092" fill="white"/>
</mask>
<g mask="url(#mask3_63_4366)">
<path fill-rule="evenodd" clip-rule="evenodd" d="M196.794 153.746L180.111 104.018L208.589 19.1193C208.589 19.1193 215.558 1.18203 221.944 0.0918011L283.984 0.0918074L283.984 180.092L226.367 180.092C209.795 180.092 203.177 174.289 196.794 153.746" fill="#4263EB"/>
</g>
<mask id="mask4_63_4366" style="mask-type:alpha" maskUnits="userSpaceOnUse" x="-248" y="0" width="525" height="181">
<path fill-rule="evenodd" clip-rule="evenodd" d="M-247.626 180.068L-247.626 0.0905869L154.049 0.0906257C187.003 0.157877 205.717 12.2339 214.907 40.6854L254.183 158.254C261.292 178.775 276.241 180.057 276.375 180.068" fill="white"/>
</mask>
<g mask="url(#mask4_63_4366)">
<path fill-rule="evenodd" clip-rule="evenodd" d="M180.112 105.25L151.631 19.3467C151.631 19.3467 144.666 1.19564 138.305 0.0944505L221.945 0.094459C215.558 1.19565 208.59 19.3467 208.59 19.3467L180.112 105.25Z" fill="#173EDD"/>
</g>
</g>
</g>
<g filter="url(#filter0_b_63_4366)">
<rect x="-15" y="-62" width="348" height="126" fill="white" fill-opacity="0.2"/>
</g>
</g>
<path fill-rule="evenodd" clip-rule="evenodd" d="M29 29L34 24V34H24L29 29ZM34 34H44C44 34 38.9707 34.9436 37.0571 36.8571C35.0655 38.8488 34 44 34 44V34Z" fill="white"/>
<path d="M48.98 39H50.884V34.912H54.3V33.008H50.884V30.824H55.14V28.92H48.98V39ZM56.4038 30.39H58.3078V28.71H56.4038V30.39ZM56.4038 39H58.3078V31.44H56.4038V39ZM60.2524 39H62.1844V35.164C62.1844 34.6927 62.2357 34.3147 62.3384 34.03C62.4457 33.7453 62.5811 33.5307 62.7444 33.386C62.9077 33.2367 63.0827 33.1363 63.2694 33.085C63.4561 33.0337 63.6311 33.008 63.7944 33.008C64.2004 33.008 64.5131 33.099 64.7324 33.281C64.9564 33.463 65.1174 33.6893 65.2154 33.96C65.3134 34.2307 65.3717 34.5013 65.3904 34.772C65.4091 35.038 65.4184 35.2573 65.4184 35.43V39H67.3504V34.758C67.3504 34.632 67.3411 34.4313 67.3224 34.156C67.3037 33.8807 67.2501 33.5773 67.1614 33.246C67.0727 32.91 66.9234 32.588 66.7134 32.28C66.5081 31.972 66.2187 31.7177 65.8454 31.517C65.4721 31.3163 64.9891 31.216 64.3964 31.216C63.8504 31.216 63.3744 31.307 62.9684 31.489C62.5624 31.671 62.2217 31.9137 61.9464 32.217V31.44H60.2524V39ZM69.0128 42.36H70.9308V38.727C71.1781 38.881 71.4511 39 71.7498 39.084C72.0531 39.168 72.3821 39.21 72.7368 39.21C73.4321 39.21 74.0411 39.035 74.5638 38.685C75.0865 38.335 75.4925 37.859 75.7818 37.257C76.0758 36.655 76.2228 35.976 76.2228 35.22C76.2228 34.45 76.0735 33.7663 75.7748 33.169C75.4808 32.567 75.0655 32.0933 74.5288 31.748C73.9921 31.4027 73.3621 31.23 72.6388 31.23C72.2468 31.23 71.8875 31.286 71.5608 31.398C71.2388 31.5053 70.9495 31.6593 70.6928 31.86V31.44H69.0128V42.36ZM72.4288 37.516C71.7941 37.516 71.3461 37.306 71.0848 36.886C70.8235 36.4613 70.6928 35.906 70.6928 35.22C70.6928 34.534 70.8211 33.981 71.0778 33.561C71.3391 33.1363 71.7661 32.924 72.3588 32.924C72.7835 32.924 73.1311 33.029 73.4018 33.239C73.6771 33.4443 73.8801 33.722 74.0108 34.072C74.1415 34.4173 74.2068 34.8 74.2068 35.22C74.2068 35.6447 74.1438 36.032 74.0178 36.382C73.8918 36.7273 73.6981 37.0027 73.4368 37.208C73.1755 37.4133 72.8395 37.516 72.4288 37.516ZM79.7231 39.21C80.3065 39.21 80.7965 39.1213 81.1931 38.944C81.5945 38.762 81.9631 38.4727 82.2991 38.076V39H83.9651V34.38C83.9651 34.0347 83.9511 33.722 83.9231 33.442C83.8951 33.162 83.8065 32.882 83.6571 32.602C83.3911 32.098 82.9991 31.7433 82.4811 31.538C81.9631 31.3327 81.3705 31.23 80.7031 31.23C79.7931 31.23 79.0745 31.426 78.5471 31.818C78.0198 32.21 77.6605 32.7187 77.4691 33.344L79.1911 33.89C79.3125 33.5447 79.5248 33.3043 79.8281 33.169C80.1315 33.0337 80.4231 32.966 80.7031 32.966C81.1511 32.966 81.4848 33.05 81.7041 33.218C81.9235 33.3813 82.0518 33.6403 82.0891 33.995C81.3798 34.0977 80.7545 34.198 80.2131 34.296C79.6718 34.3893 79.2191 34.5013 78.8551 34.632C78.2485 34.856 77.8215 35.1617 77.5741 35.549C77.3268 35.9317 77.2031 36.3867 77.2031 36.914C77.2031 37.334 77.2988 37.719 77.4901 38.069C77.6861 38.4143 77.9708 38.692 78.3441 38.902C78.7221 39.1073 79.1818 39.21 79.7231 39.21ZM80.1291 37.712C79.8025 37.712 79.5435 37.6397 79.3521 37.495C79.1608 37.3457 79.0651 37.1427 79.0651 36.886C79.0651 36.6947 79.1258 36.5313 79.2471 36.396C79.3685 36.256 79.5691 36.13 79.8491 36.018C80.0638 35.9387 80.3275 35.8663 80.6401 35.801C80.9575 35.731 81.4358 35.6423 82.0751 35.535C82.0705 35.717 82.0565 35.9177 82.0331 36.137C82.0098 36.3517 81.9585 36.5407 81.8791 36.704C81.8278 36.8113 81.7298 36.9443 81.5851 37.103C81.4451 37.2617 81.2538 37.404 81.0111 37.53C80.7731 37.6513 80.4791 37.712 80.1291 37.712ZM86.1874 42.36H87.9514L92.2214 31.44H90.3174L88.3434 36.585L86.3554 31.44H84.3814L87.4334 38.937L86.1874 42.36ZM100.055 39.21C101.212 39.21 102.183 38.923 102.967 38.349C103.755 37.775 104.311 36.998 104.633 36.018L102.715 35.486C102.528 36.0927 102.213 36.5663 101.77 36.907C101.326 37.2477 100.755 37.418 100.055 37.418C99.0978 37.418 98.3768 37.1053 97.8915 36.48C97.4108 35.85 97.1705 35.01 97.1705 33.96C97.1705 32.91 97.4108 32.0723 97.8915 31.447C98.3768 30.817 99.0978 30.502 100.055 30.502C100.755 30.502 101.326 30.6723 101.77 31.013C102.213 31.349 102.528 31.8227 102.715 32.434L104.633 31.902C104.311 30.922 103.755 30.145 102.967 29.571C102.183 28.997 101.212 28.71 100.055 28.71C99.0465 28.71 98.1762 28.9293 97.4435 29.368C96.7155 29.8067 96.1532 30.4203 95.7565 31.209C95.3645 31.9977 95.1685 32.9147 95.1685 33.96C95.1685 35.0053 95.3645 35.9223 95.7565 36.711C96.1532 37.4997 96.7155 38.1133 97.4435 38.552C98.1762 38.9907 99.0465 39.21 100.055 39.21ZM108.134 39.21C108.717 39.21 109.207 39.1213 109.604 38.944C110.005 38.762 110.374 38.4727 110.71 38.076V39H112.376V34.38C112.376 34.0347 112.362 33.722 112.334 33.442C112.306 33.162 112.217 32.882 112.068 32.602C111.802 32.098 111.41 31.7433 110.892 31.538C110.374 31.3327 109.781 31.23 109.114 31.23C108.204 31.23 107.485 31.426 106.958 31.818C106.43 32.21 106.071 32.7187 105.88 33.344L107.602 33.89C107.723 33.5447 107.935 33.3043 108.239 33.169C108.542 33.0337 108.834 32.966 109.114 32.966C109.562 32.966 109.895 33.05 110.115 33.218C110.334 33.3813 110.462 33.6403 110.5 33.995C109.79 34.0977 109.165 34.198 108.624 34.296C108.082 34.3893 107.63 34.5013 107.266 34.632C106.659 34.856 106.232 35.1617 105.985 35.549C105.737 35.9317 105.614 36.3867 105.614 36.914C105.614 37.334 105.709 37.719 105.901 38.069C106.097 38.4143 106.381 38.692 106.755 38.902C107.133 39.1073 107.592 39.21 108.134 39.21ZM108.54 37.712C108.213 37.712 107.954 37.6397 107.763 37.495C107.571 37.3457 107.476 37.1427 107.476 36.886C107.476 36.6947 107.536 36.5313 107.658 36.396C107.779 36.256 107.98 36.13 108.26 36.018C108.474 35.9387 108.738 35.8663 109.051 35.801C109.368 35.731 109.846 35.6423 110.486 35.535C110.481 35.717 110.467 35.9177 110.444 36.137C110.42 36.3517 110.369 36.5407 110.29 36.704C110.238 36.8113 110.14 36.9443 109.996 37.103C109.856 37.2617 109.664 37.404 109.422 37.53C109.184 37.6513 108.89 37.712 108.54 37.712ZM114.056 39H115.974V35.136C115.974 34.2587 116.319 33.6613 117.01 33.344C117.234 33.2367 117.484 33.1737 117.759 33.155C118.039 33.1317 118.284 33.1527 118.494 33.218V31.44C118.153 31.398 117.813 31.4073 117.472 31.468C117.131 31.524 116.823 31.636 116.548 31.804C116.371 31.9067 116.214 32.0303 116.079 32.175C115.948 32.3197 115.834 32.4807 115.736 32.658V31.44H114.056V39ZM122.615 39.21C123.03 39.21 123.408 39.154 123.749 39.042C124.089 38.93 124.393 38.7713 124.659 38.566V39H126.339V28.92H124.421V31.692C124.187 31.5427 123.926 31.4283 123.637 31.349C123.352 31.2697 123.044 31.23 122.713 31.23C121.989 31.23 121.359 31.4027 120.823 31.748C120.286 32.0933 119.868 32.567 119.57 33.169C119.276 33.7663 119.129 34.45 119.129 35.22C119.129 35.976 119.273 36.655 119.563 37.257C119.857 37.859 120.265 38.335 120.788 38.685C121.31 39.035 121.919 39.21 122.615 39.21ZM122.923 37.516C122.512 37.516 122.176 37.4133 121.915 37.208C121.653 37.0027 121.46 36.7273 121.334 36.382C121.208 36.032 121.145 35.6447 121.145 35.22C121.145 34.8 121.21 34.4173 121.341 34.072C121.471 33.722 121.672 33.4443 121.943 33.239C122.218 33.029 122.568 32.924 122.993 32.924C123.59 32.924 124.017 33.1363 124.274 33.561C124.53 33.981 124.659 34.534 124.659 35.22C124.659 35.906 124.528 36.4613 124.267 36.886C124.01 37.306 123.562 37.516 122.923 37.516Z" fill="white"/>
<path d="M30.192 115.4H33.456V113.228C34.96 112.964 36.164 112.356 37.068 111.404C37.972 110.444 38.424 109.264 38.424 107.864C38.424 106.624 38.084 105.628 37.404 104.876C36.732 104.124 35.632 103.528 34.104 103.088L31.056 102.224C30.288 102.008 29.728 101.752 29.376 101.456C29.024 101.152 28.848 100.792 28.848 100.376C28.848 99.808 29.12 99.336 29.664 98.96C30.216 98.584 30.888 98.408 31.68 98.432C32.512 98.456 33.22 98.708 33.804 99.188C34.396 99.66 34.776 100.28 34.944 101.048L38.304 100.448C37.968 99.128 37.384 98.056 36.552 97.232C35.728 96.4 34.696 95.848 33.456 95.576V93.344H30.192V95.504C28.768 95.736 27.648 96.296 26.832 97.184C26.016 98.072 25.608 99.192 25.608 100.544C25.608 102.792 26.84 104.296 29.304 105.056L33.576 106.376C34.648 106.728 35.184 107.304 35.184 108.104C35.184 108.728 34.884 109.252 34.284 109.676C33.692 110.1 32.944 110.312 32.04 110.312C31.08 110.312 30.252 110.032 29.556 109.472C28.868 108.912 28.416 108.16 28.2 107.216L24.96 107.72C25.176 109.176 25.744 110.384 26.664 111.344C27.592 112.304 28.768 112.924 30.192 113.204V115.4ZM40.335 112.976H52.431V109.904H45.399L49.263 106.52C49.951 105.92 50.531 105.384 51.003 104.912C51.475 104.432 51.831 103.912 52.071 103.352C52.311 102.784 52.431 102.072 52.431 101.216C52.431 100.056 52.175 99.036 51.663 98.156C51.151 97.276 50.447 96.592 49.551 96.104C48.663 95.608 47.655 95.36 46.527 95.36C45.295 95.36 44.215 95.596 43.287 96.068C42.359 96.54 41.635 97.208 41.115 98.072C40.595 98.936 40.335 99.96 40.335 101.144H43.695C43.679 100.664 43.787 100.22 44.019 99.812C44.251 99.396 44.575 99.064 44.991 98.816C45.415 98.56 45.903 98.432 46.455 98.432C47.247 98.432 47.879 98.692 48.351 99.212C48.831 99.724 49.071 100.376 49.071 101.168C49.071 101.536 48.959 101.932 48.735 102.356C48.511 102.78 48.127 103.232 47.583 103.712L40.335 110.144V112.976ZM54.8194 116.24C55.9234 116.416 56.7434 116.208 57.2794 115.616C57.8154 115.024 58.0834 114.152 58.0834 113V109.736H54.8194V113H56.4994C56.5874 113.576 56.5034 114.044 56.2474 114.404C55.9994 114.764 55.5874 114.92 55.0114 114.872L54.8194 116.24ZM63.2771 113H66.8051L72.5891 98.792V95.72H61.6931V98.792H69.0851L63.2771 113ZM80.2678 113.312C81.3558 113.312 82.3558 113.06 83.2678 112.556C84.1798 112.044 84.9118 111.356 85.4638 110.492C86.0158 109.62 86.2918 108.64 86.2918 107.552C86.2918 106.744 86.1438 105.98 85.8478 105.26C85.5598 104.532 85.1318 103.9 84.5638 103.364C83.9958 102.82 83.2998 102.428 82.4758 102.188L85.9798 98.792V95.72H75.1798V98.792H82.1158L77.4598 102.656L78.9238 105.224C79.3558 104.968 79.8038 104.84 80.2678 104.84C81.0598 104.84 81.7078 105.108 82.2118 105.644C82.7238 106.172 82.9798 106.808 82.9798 107.552C82.9798 108.048 82.8558 108.5 82.6078 108.908C82.3678 109.316 82.0398 109.64 81.6238 109.88C81.2158 110.12 80.7638 110.24 80.2678 110.24C79.6918 110.24 79.1558 110.068 78.6598 109.724C78.1718 109.372 77.8438 108.88 77.6758 108.248L74.5078 109.088C74.7558 109.944 75.1678 110.688 75.7438 111.32C76.3278 111.952 77.0118 112.444 77.7958 112.796C78.5798 113.14 79.4038 113.312 80.2678 113.312ZM95.1915 113.36C96.2795 113.36 97.2795 113.104 98.1915 112.592C99.1035 112.072 99.8355 111.376 100.387 110.504C100.939 109.624 101.215 108.64 101.215 107.552C101.215 106.464 100.979 105.496 100.507 104.648C100.043 103.8 99.3955 103.132 98.5635 102.644C97.7395 102.156 96.7835 101.912 95.6955 101.912C94.5035 101.912 93.4395 102.268 92.5035 102.98V101.504C92.5035 100.976 92.6275 100.48 92.8755 100.016C93.1315 99.544 93.4875 99.164 93.9435 98.876C94.4075 98.58 94.9515 98.432 95.5755 98.432C96.4075 98.432 97.1275 98.736 97.7355 99.344L100.064 97.016C99.4315 96.424 98.7355 96.004 97.9755 95.756C97.2155 95.508 96.4155 95.384 95.5755 95.384C94.2795 95.384 93.1515 95.652 92.1915 96.188C91.2315 96.716 90.4875 97.476 89.9595 98.468C89.4315 99.452 89.1675 100.624 89.1675 101.984V107C89.1675 108.256 89.4315 109.364 89.9595 110.324C90.4875 111.276 91.2035 112.02 92.1075 112.556C93.0195 113.092 94.0475 113.36 95.1915 113.36ZM95.1915 110.24C94.6955 110.24 94.2435 110.116 93.8355 109.868C93.4275 109.62 93.1035 109.292 92.8635 108.884C92.6235 108.476 92.5035 108.032 92.5035 107.552C92.5035 107.056 92.6235 106.604 92.8635 106.196C93.1115 105.78 93.4395 105.452 93.8475 105.212C94.2635 104.964 94.7195 104.84 95.2155 104.84C95.7115 104.84 96.1635 104.964 96.5715 105.212C96.9795 105.452 97.3035 105.78 97.5435 106.196C97.7835 106.604 97.9035 107.056 97.9035 107.552C97.9035 108.048 97.7795 108.5 97.5315 108.908C97.2915 109.316 96.9635 109.64 96.5475 109.88C96.1395 110.12 95.6875 110.24 95.1915 110.24ZM104.385 113H107.649V109.736H104.385V113ZM111.422 113H114.758V95.72H111.422L108.182 97.664V101.264L111.422 99.272V113ZM124.216 113.36C125.304 113.36 126.312 113.104 127.24 112.592C128.168 112.072 128.916 111.376 129.484 110.504C130.052 109.624 130.336 108.64 130.336 107.552C130.336 106.464 130.1 105.5 129.628 104.66C129.164 103.812 128.516 103.148 127.684 102.668C126.86 102.18 125.904 101.936 124.816 101.936C124.44 101.936 124.04 101.984 123.616 102.08C123.192 102.176 122.788 102.328 122.404 102.536L122.644 98.768H129.184V95.72H119.752L119.224 104.912L121.984 105.752C122.176 105.568 122.464 105.376 122.848 105.176C123.232 104.968 123.728 104.864 124.336 104.864C124.832 104.864 125.284 104.984 125.692 105.224C126.108 105.464 126.436 105.788 126.676 106.196C126.924 106.604 127.048 107.056 127.048 107.552C127.048 108.048 126.924 108.5 126.676 108.908C126.436 109.316 126.108 109.64 125.692 109.88C125.284 110.12 124.832 110.24 124.336 110.24C123.776 110.24 123.244 110.06 122.74 109.7C122.236 109.34 121.904 108.856 121.744 108.248L118.6 109.088C118.84 109.936 119.236 110.68 119.788 111.32C120.34 111.96 120.996 112.46 121.756 112.82C122.524 113.18 123.344 113.36 124.216 113.36Z" fill="white"/>
<path d="M154.18 102.12C153.987 101.813 153.78 101.526 153.567 101.26C153.32 100.946 152.853 100.92 152.573 101.2L150.573 103.2C150.72 103.64 150.747 104.146 150.613 104.673C150.38 105.613 149.62 106.373 148.68 106.606C148.153 106.74 147.647 106.713 147.207 106.566C147.207 106.566 146.253 107.52 145.567 108.206C145.233 108.54 145.34 109.126 145.787 109.3C146.5 109.573 147.24 109.713 148 109.713C149.187 109.713 150.34 109.366 151.393 108.72C152.467 108.053 153.433 107.073 154.213 105.826C154.847 104.82 154.813 103.126 154.18 102.12Z" fill="white"/>
<path d="M149.347 102.653L146.653 105.346C146.313 105 146.093 104.52 146.093 104C146.093 102.953 146.947 102.093 148 102.093C148.52 102.093 149 102.313 149.347 102.653Z" fill="white"/>
<path d="M152.167 99.8335L149.907 102.094C149.42 101.6 148.747 101.307 148 101.307C146.507 101.307 145.307 102.514 145.307 104C145.307 104.747 145.607 105.42 146.093 105.907L143.84 108.167H143.833C143.093 107.567 142.413 106.8 141.833 105.894C141.167 104.847 141.167 103.147 141.833 102.1C142.607 100.887 143.553 99.9335 144.607 99.2802C145.66 98.6402 146.813 98.2869 148 98.2869C149.487 98.2869 150.927 98.8335 152.167 99.8335Z" fill="white"/>
<path d="M149.907 104C149.907 105.047 149.053 105.907 148 105.907C147.96 105.907 147.927 105.907 147.887 105.893L149.893 103.887C149.907 103.927 149.907 103.96 149.907 104Z" fill="white"/>
<path d="M154.513 97.4864C154.313 97.2864 153.987 97.2864 153.787 97.4864L141.487 109.793C141.287 109.993 141.287 110.32 141.487 110.52C141.587 110.613 141.713 110.666 141.847 110.666C141.98 110.666 142.107 110.613 142.207 110.513L154.513 98.2064C154.72 98.0064 154.72 97.6864 154.513 97.4864Z" fill="white"/>
<circle cx="27" cy="145" r="3" fill="white"/>
<circle cx="37" cy="145" r="3" fill="white"/>
<circle cx="47" cy="145" r="3" fill="white"/>
<circle cx="57" cy="145" r="3" fill="white"/>
<path d="M80.536 151.24C81.256 151.24 81.9173 151.067 82.52 150.72C83.128 150.373 83.616 149.909 83.984 149.328C84.352 148.741 84.536 148.091 84.536 147.376C84.536 146.656 84.3733 146.011 84.048 145.44C83.728 144.869 83.2853 144.421 82.72 144.096C82.16 143.765 81.52 143.6 80.8 143.6C80.4587 143.6 80.1147 143.653 79.768 143.76C79.4267 143.867 79.1147 144.021 78.832 144.224L79.024 141.056H83.744V139.48H77.528L77.176 145.536L78.632 146.048C78.8133 145.808 79.0667 145.595 79.392 145.408C79.7173 145.216 80.1147 145.12 80.584 145.12C80.9947 145.12 81.3707 145.221 81.712 145.424C82.0587 145.621 82.3333 145.891 82.536 146.232C82.744 146.573 82.848 146.955 82.848 147.376C82.848 147.787 82.7467 148.163 82.544 148.504C82.3413 148.845 82.0693 149.117 81.728 149.32C81.3867 149.523 81.0053 149.624 80.584 149.624C80.104 149.624 79.6533 149.475 79.232 149.176C78.816 148.872 78.5413 148.464 78.408 147.952L76.8 148.384C76.96 148.944 77.2213 149.44 77.584 149.872C77.9467 150.299 78.3813 150.635 78.888 150.88C79.3947 151.12 79.944 151.24 80.536 151.24ZM89.6721 151.216C90.3921 151.216 91.0428 151.053 91.6241 150.728C92.2055 150.403 92.6668 149.955 93.0081 149.384C93.3495 148.808 93.5201 148.155 93.5201 147.424C93.5201 146.8 93.3975 146.229 93.1521 145.712C92.9121 145.195 92.5655 144.771 92.1121 144.44C91.6641 144.104 91.1281 143.893 90.5041 143.808L93.3521 141.072V139.48H86.4241V141.072H91.3041L87.7841 144.184L88.5681 145.504C88.9255 145.312 89.2881 145.216 89.6561 145.216C90.2961 145.216 90.8135 145.424 91.2081 145.84C91.6081 146.256 91.8081 146.784 91.8081 147.424C91.8081 148.059 91.6108 148.584 91.2161 149C90.8215 149.411 90.3068 149.621 89.6721 149.632C89.2028 149.637 88.7761 149.509 88.3921 149.248C88.0081 148.987 87.7388 148.605 87.5841 148.104L85.9681 148.552C86.1335 149.096 86.3975 149.568 86.7601 149.968C87.1281 150.368 87.5628 150.677 88.0641 150.896C88.5655 151.109 89.1015 151.216 89.6721 151.216ZM97.6124 151H99.3164V139.48H97.6124L95.4444 140.776V142.64L97.6124 141.32V151ZM106.042 151.24C106.794 151.24 107.458 151.088 108.034 150.784C108.616 150.48 109.072 150.059 109.402 149.52C109.733 148.981 109.898 148.36 109.898 147.656C109.898 147.08 109.778 146.547 109.538 146.056C109.304 145.56 108.954 145.149 108.49 144.824C109.226 144.232 109.594 143.44 109.594 142.448C109.594 141.792 109.442 141.224 109.138 140.744C108.834 140.264 108.416 139.893 107.882 139.632C107.349 139.371 106.736 139.24 106.042 139.24C105.349 139.24 104.733 139.371 104.194 139.632C103.661 139.893 103.242 140.264 102.938 140.744C102.634 141.224 102.482 141.792 102.482 142.448C102.482 143.419 102.85 144.211 103.586 144.824C103.122 145.155 102.773 145.565 102.538 146.056C102.309 146.547 102.194 147.08 102.194 147.656C102.194 148.36 102.357 148.981 102.682 149.52C103.013 150.059 103.466 150.48 104.042 150.784C104.624 151.088 105.29 151.24 106.042 151.24ZM106.042 144.048C105.514 144.048 105.085 143.915 104.754 143.648C104.424 143.381 104.258 142.981 104.258 142.448C104.258 141.909 104.424 141.507 104.754 141.24C105.085 140.968 105.514 140.832 106.042 140.832C106.57 140.832 106.997 140.968 107.322 141.24C107.653 141.507 107.818 141.909 107.818 142.448C107.818 142.981 107.653 143.381 107.322 143.648C106.997 143.915 106.57 144.048 106.042 144.048ZM106.042 149.648C105.424 149.648 104.922 149.48 104.538 149.144C104.154 148.803 103.962 148.307 103.962 147.656C103.962 147.005 104.152 146.509 104.53 146.168C104.914 145.821 105.418 145.648 106.042 145.648C106.666 145.648 107.168 145.821 107.546 146.168C107.93 146.509 108.122 147.005 108.122 147.656C108.122 148.307 107.93 148.803 107.546 149.144C107.162 149.48 106.661 149.648 106.042 149.648Z" fill="white"/>
<path d="M264.333 46.6667C269.488 46.6667 273.667 42.488 273.667 37.3333C273.667 32.1787 269.488 28 264.333 28C259.179 28 255 32.1787 255 37.3333C255 42.488 259.179 46.6667 264.333 46.6667Z" fill="white" fill-opacity="0.7"/>
<path d="M277.667 46.6667C282.821 46.6667 287 42.488 287 37.3333C287 32.1787 282.821 28 277.667 28C272.512 28 268.333 32.1787 268.333 37.3333C268.333 42.488 272.512 46.6667 277.667 46.6667Z" fill="white" fill-opacity="0.5"/>
<path d="M286.37 52.0075V52.0692H286.429C286.441 52.0694 286.452 52.0667 286.461 52.0613C286.465 52.0587 286.468 52.0551 286.471 52.051C286.473 52.0469 286.474 52.0423 286.473 52.0377C286.474 52.0332 286.473 52.0288 286.47 52.0247C286.468 52.0207 286.465 52.0173 286.461 52.0148C286.452 52.0092 286.441 52.0064 286.429 52.0069H286.37V52.0075ZM286.43 51.9639C286.456 51.9623 286.481 51.9694 286.502 51.9839C286.51 51.9905 286.517 51.9988 286.521 52.0083C286.525 52.0178 286.527 52.0281 286.527 52.0385C286.527 52.0474 286.526 52.0563 286.522 52.0646C286.519 52.0729 286.513 52.0803 286.507 52.0865C286.491 52.0999 286.471 52.108 286.449 52.1095L286.529 52.1974H286.468L286.394 52.1101H286.37V52.1974H286.319V51.964H286.431L286.43 51.9639ZM286.414 52.2779C286.441 52.2781 286.468 52.2729 286.493 52.2625C286.516 52.2526 286.538 52.2384 286.557 52.2207C286.575 52.203 286.59 52.182 286.6 52.159C286.621 52.1101 286.621 52.0552 286.6 52.0063C286.59 51.9833 286.575 51.9624 286.557 51.9446C286.538 51.9269 286.516 51.9127 286.493 51.9028C286.468 51.8929 286.441 51.888 286.414 51.8883C286.387 51.888 286.359 51.893 286.334 51.9028C286.31 51.9125 286.287 51.9267 286.269 51.9446C286.24 51.9726 286.221 52.008 286.214 52.0464C286.206 52.0847 286.21 52.1244 286.226 52.1605C286.236 52.1837 286.25 52.2047 286.269 52.2222C286.287 52.2401 286.31 52.2543 286.334 52.264C286.359 52.2744 286.387 52.2797 286.414 52.2794V52.2779ZM286.414 51.8321C286.484 51.8321 286.552 51.8587 286.602 51.9062C286.626 51.929 286.645 51.9562 286.659 51.9862C286.672 52.0171 286.679 52.0502 286.679 52.0838C286.679 52.1173 286.672 52.1505 286.659 52.1813C286.645 52.2112 286.626 52.2384 286.602 52.2614C286.577 52.2841 286.549 52.3024 286.518 52.3154C286.485 52.3288 286.45 52.3356 286.414 52.3354C286.378 52.3357 286.342 52.3288 286.309 52.3154C286.277 52.3027 286.249 52.2843 286.224 52.2614C286.2 52.2375 286.181 52.2094 286.168 52.1787C286.155 52.1479 286.148 52.1147 286.148 52.0812C286.148 52.0476 286.155 52.0144 286.168 51.9836C286.181 51.9536 286.201 51.9264 286.225 51.9036C286.249 51.8802 286.278 51.8618 286.31 51.8496C286.343 51.8361 286.379 51.8293 286.415 51.8295L286.414 51.8321ZM261.915 50.9309C261.915 50.4859 262.217 50.1204 262.711 50.1204C263.184 50.1204 263.503 50.4702 263.503 50.9309C263.503 51.3916 263.184 51.7414 262.711 51.7414C262.217 51.7414 261.915 51.3759 261.915 50.9309V50.9309ZM264.041 50.9309V49.6646H263.47V49.9731C263.289 49.7451 263.014 49.6022 262.64 49.6022C261.904 49.6022 261.327 50.1587 261.327 50.9315C261.327 51.7044 261.904 52.2609 262.64 52.2609C263.014 52.2609 263.289 52.1178 263.47 51.89V52.1974H264.04V50.9309H264.041ZM283.336 50.9309C283.336 50.4859 283.638 50.1204 284.132 50.1204C284.605 50.1204 284.923 50.4702 284.923 50.9309C284.923 51.3916 284.605 51.7414 284.132 51.7414C283.638 51.7414 283.336 51.3759 283.336 50.9309ZM285.462 50.9309V48.6482H284.891V49.9731C284.71 49.7451 284.435 49.6022 284.061 49.6022C283.325 49.6022 282.748 50.1587 282.748 50.9315C282.748 51.7044 283.325 52.2609 284.061 52.2609C284.435 52.2609 284.71 52.1178 284.891 51.89V52.1974H285.462V50.9309ZM271.128 50.0943C271.496 50.0943 271.733 50.3167 271.793 50.7084H270.43C270.491 50.3428 270.722 50.0943 271.128 50.0943H271.128ZM271.14 49.6008C270.37 49.6008 269.832 50.1406 269.832 50.9302C269.832 51.7351 270.392 52.2595 271.178 52.2595C271.574 52.2595 271.936 52.1644 272.255 51.9048L271.975 51.4968C271.755 51.6665 271.474 51.7617 271.211 51.7617C270.843 51.7617 270.508 51.5974 270.425 51.1416H272.375C272.381 51.0731 272.387 51.004 272.387 50.93C272.381 50.1408 271.875 49.6006 271.139 49.6006L271.14 49.6008ZM278.034 50.93C278.034 50.485 278.336 50.1195 278.831 50.1195C279.303 50.1195 279.622 50.4693 279.622 50.93C279.622 51.3907 279.303 51.7405 278.831 51.7405C278.336 51.7405 278.034 51.375 278.034 50.93H278.034ZM280.16 50.93V49.6646H279.589V49.9731C279.407 49.7451 279.133 49.6022 278.76 49.6022C278.024 49.6022 277.446 50.1587 277.446 50.9315C277.446 51.7044 278.023 52.2609 278.76 52.2609C279.133 52.2609 279.407 52.1178 279.589 51.89V52.1974H280.16V50.9309L280.16 50.93ZM274.809 50.93C274.809 51.698 275.364 52.2594 276.21 52.2594C276.606 52.2594 276.869 52.1745 277.154 51.9575L276.88 51.5126C276.665 51.6611 276.44 51.7405 276.192 51.7405C275.736 51.7351 275.401 51.4174 275.401 50.93C275.401 50.4426 275.736 50.125 276.192 50.1195C276.44 50.1195 276.665 50.1989 276.88 50.3474L277.154 49.9025C276.869 49.6854 276.605 49.6006 276.21 49.6006C275.364 49.6006 274.809 50.1619 274.809 50.93V50.93ZM282.171 49.6006C281.841 49.6006 281.627 49.7491 281.478 49.9716V49.6646H280.912V52.196H281.484V50.777C281.484 50.3581 281.671 50.1253 282.044 50.1253C282.166 50.1236 282.288 50.1453 282.401 50.189L282.577 49.6702C282.451 49.6222 282.286 49.6011 282.17 49.6011L282.171 49.6006ZM266.864 49.8659C266.589 49.6913 266.211 49.6011 265.793 49.6011C265.128 49.6011 264.7 49.9085 264.7 50.4114C264.7 50.8242 265.019 51.0788 265.606 51.1583L265.875 51.1953C266.189 51.2377 266.336 51.3171 266.336 51.4601C266.336 51.6558 266.128 51.7675 265.738 51.7675C265.342 51.7675 265.057 51.6457 264.864 51.5027L264.596 51.9319C264.909 52.1543 265.305 52.2605 265.733 52.2605C266.491 52.2605 266.931 51.9162 266.931 51.4342C266.931 50.9892 266.585 50.7565 266.014 50.677L265.744 50.6394C265.497 50.6086 265.299 50.5606 265.299 50.3909C265.299 50.2058 265.486 50.0945 265.799 50.0945C266.134 50.0945 266.459 50.2163 266.618 50.3115L266.865 49.8665L266.864 49.8659ZM274.232 49.6015C273.903 49.6015 273.688 49.7501 273.541 49.9725V49.6646H272.975V52.196H273.546V50.777C273.546 50.3581 273.732 50.1253 274.106 50.1253C274.228 50.1236 274.349 50.1453 274.463 50.189L274.639 49.6702C274.512 49.6222 274.348 49.6011 274.232 49.6011L274.232 49.6015ZM269.359 49.6646H268.426V48.8967H267.848V49.6646H267.316V50.1678H267.848V51.3225C267.848 51.9099 268.085 52.2597 268.76 52.2597C269.008 52.2597 269.294 52.1857 269.475 52.064L269.31 51.5926C269.139 51.6878 268.953 51.7357 268.804 51.7357C268.519 51.7357 268.426 51.5661 268.426 51.312V50.1682H269.359V49.6646ZM260.822 52.1966V50.6079C260.822 50.0097 260.426 49.6071 259.789 49.6017C259.454 49.5963 259.108 49.6969 258.866 50.0521C258.685 49.7714 258.399 49.6017 257.998 49.6017C257.717 49.6017 257.443 49.6811 257.229 49.9776V49.6646H256.657V52.196H257.233V50.7924C257.233 50.353 257.486 50.1195 257.876 50.1195C258.256 50.1195 258.447 50.3578 258.447 50.7869V52.1957H259.025V50.7921C259.025 50.3527 259.288 50.1192 259.667 50.1192C260.057 50.1192 260.243 50.3575 260.243 50.7866V52.1954L260.822 52.1966Z" fill="white"/>
<defs>
<filter id="filter0_b_63_4366" x="-45" y="-92" width="408" height="186" filterUnits="userSpaceOnUse" color-interpolation-filters="sRGB">
<feFlood flood-opacity="0" result="BackgroundImageFix"/>
<feGaussianBlur in="BackgroundImage" stdDeviation="15"/>
<feComposite in2="SourceAlpha" operator="in" result="effect1_backgroundBlur_63_4366"/>
<feBlend mode="normal" in="SourceGraphic" in2="effect1_backgroundBlur_63_4366" result="shape"/>
</filter>
</defs>
</svg>
