<svg width="40" height="40" viewBox="0 0 40 40" fill="none" xmlns="http://www.w3.org/2000/svg">
<g clip-path="url(#clip0_117_4749)">
<path d="M0 20C0 8.95431 8.95431 0 20 0C31.0457 0 40 8.95431 40 20C40 31.0457 31.0457 40 20 40C8.95431 40 0 31.0457 0 20Z" fill="#E3E7F7"/>
<rect x="4" y="12" width="32" height="32" rx="4" fill="#4263EB"/>
<rect opacity="0.5" x="9" y="23.834" width="12" height="2.5" rx="1.25" fill="white"/>
<rect x="9" y="28.834" width="18" height="2.5" rx="1.25" fill="white"/>
<ellipse cx="29" cy="12" rx="8" ry="8" fill="#E3E7F7"/>
<path d="M28.9625 17.625C32.075 17.625 34.5875 15.1125 34.5875 12H23.3375C23.3375 15.1125 25.85 17.625 28.9625 17.625Z" fill="white"/>
<path d="M28.9625 6.375C25.85 6.375 23.3375 8.8875 23.3375 12H34.5875C34.5875 8.8875 32.075 6.375 28.9625 6.375Z" fill="#ED4C5C"/>
</g>
<defs>
<clipPath id="clip0_117_4749">
<path d="M0 20C0 8.95431 8.95431 0 20 0C31.0457 0 40 8.95431 40 20C40 31.0457 31.0457 40 20 40C8.95431 40 0 31.0457 0 20Z" fill="white"/>
</clipPath>
</defs>
</svg>
