<svg width="27" height="20" viewBox="0 0 27 20" fill="none" xmlns="http://www.w3.org/2000/svg">
<path d="M23.8333 0H3.16668C1.74584 0 0.59626 1.125 0.59626 2.5L0.583344 17.5C0.583344 18.875 1.74584 20 3.16668 20H23.8333C25.2542 20 26.4167 18.875 26.4167 17.5V2.5C26.4167 1.125 25.2542 0 23.8333 0ZM23.3167 5.3125L14.1846 10.8375C13.7713 11.0875 13.2288 11.0875 12.8154 10.8375L3.68334 5.3125C3.36043 5.1125 3.16668 4.775 3.16668 4.4125C3.16668 3.575 4.10959 3.075 4.84584 3.5125L13.5 8.75L22.1542 3.5125C22.8904 3.075 23.8333 3.575 23.8333 4.4125C23.8333 4.775 23.6396 5.1125 23.3167 5.3125Z" fill="#6C56F9"/>
</svg>
