<svg width="24" height="22" viewBox="0 0 24 22" fill="none" xmlns="http://www.w3.org/2000/svg">
<path d="M4 17V10M8 17V10M12 17V10M16 17V10M20 17V10M1 21H23M12.37 1.15L21.37 4.75C21.72 4.89 22 5.31 22 5.68V9C22 9.55 21.55 10 21 10H3C2.45 10 2 9.55 2 9V5.68C2 5.31 2.28 4.89 2.63 4.75L11.63 1.15C11.83 1.07 12.17 1.07 12.37 1.15ZM22 21H2V18C2 17.45 2.45 17 3 17H21C21.55 17 22 17.45 22 18V21Z" stroke="#4263EB" stroke-width="1.5" stroke-miterlimit="10" stroke-linecap="round" stroke-linejoin="round"/>
</svg>
