<svg width="30" height="20" viewBox="0 0 30 20" fill="none" xmlns="http://www.w3.org/2000/svg">
<path fill-rule="evenodd" clip-rule="evenodd" d="M23.2441 20H3.08186C1.38438 20 0 18.9113 0 17.5685V5.54902C0 4.21093 1.3825 3.116 3.08186 3.116H23.2441C24.9434 3.116 26.3278 4.21093 26.3278 5.54902V17.5685C26.3259 18.9113 24.9434 20 23.2441 20ZM1.83704 6.78489V16.4039L4.41909 18.6217H22.0162L24.519 16.4767V6.85613L22.0162 4.4959H4.41909L1.83704 6.78489Z" fill="#4263EB"/>
<path fill-rule="evenodd" clip-rule="evenodd" d="M26.8333 0H5.70728L5.69974 1.44959H24.9623L28.3101 4.25894V13.7897L30 13.7649V2.52439C30 1.17702 28.5553 0.0247793 26.8333 0Z" fill="#4263EB"/>
<path fill-rule="evenodd" clip-rule="evenodd" d="M3.73254 10.7898H5.52998V12.3138H3.73254V10.7898Z" fill="#4263EB"/>
<path fill-rule="evenodd" clip-rule="evenodd" d="M20.7073 10.7898H22.5632V12.2658H20.7073V10.7898Z" fill="#4263EB"/>
<path fill-rule="evenodd" clip-rule="evenodd" d="M9.39078 9.24113H11.2184V10.7418H9.39078V9.24113Z" fill="#4263EB"/>
<path fill-rule="evenodd" clip-rule="evenodd" d="M16.9351 12.3385H18.791V13.8392H16.9351V12.3385Z" fill="#4263EB"/>
<path fill-rule="evenodd" clip-rule="evenodd" d="M15.049 6.1685H13.2214V7.74044H11.2769V9.19312H13.2214V10.8379H11.2769V12.2905H13.2214V13.9353H11.2769V15.388H13.2214V16.9367H15.049V15.388H16.905V13.9353H15.049V12.2905H16.905V10.8379H15.049V9.19312H16.905V7.74044H15.049V6.1685Z" fill="#4263EB"/>
</svg>
