<svg width="64" height="64" viewBox="0 0 64 64" fill="none" xmlns="http://www.w3.org/2000/svg">
<rect width="64" height="64" rx="12" fill="#F5F7FE"/>
<path fill-rule="evenodd" clip-rule="evenodd" d="M18 32.0782C18 39.0385 23.0552 44.8263 29.6667 46V35.8885H26.1667V32H29.6667V28.8885C29.6667 25.3885 31.9218 23.4448 35.1115 23.4448C36.1218 23.4448 37.2115 23.6 38.2218 23.7552V27.3333H36.4333C34.7218 27.3333 34.3333 28.1885 34.3333 29.2782V32H38.0667L37.4448 35.8885H34.3333V46C40.9448 44.8263 46 39.0397 46 32.0782C46 24.335 39.7 18 32 18C24.3 18 18 24.335 18 32.0782Z" fill="#6680EE"/>
</svg>
