<svg width="375" height="272" viewBox="0 0 375 272" fill="none" xmlns="http://www.w3.org/2000/svg">
<g filter="url(#filter0_d_115_4222)">
<rect x="24" y="26" width="327" height="180" rx="16" fill="white"/>
</g>
<mask id="mask0_115_4222" style="mask-type:alpha" maskUnits="userSpaceOnUse" x="24" y="26" width="327" height="180">
<rect x="24" y="26" width="327" height="180" rx="16" fill="#2378FA"/>
</mask>
<g mask="url(#mask0_115_4222)">
<path d="M193.283 65.8806C184.639 44.8347 184.871 10 184.871 10H404.098V218H272.142C272.142 218 269.833 183.149 262.08 162.378C245.33 117.5 214.074 116.5 193.283 65.8806Z" stroke="#EDF0FD" stroke-opacity="0.7"/>
<path d="M202.746 65.8806C194.102 44.8347 195.386 10 195.386 10H413.561V218H281.605C281.605 218 278.572 183.38 271.543 162.378C257.023 118.989 220.167 108.293 202.746 65.8806Z" fill="#F0EEFE"/>
</g>
<path d="M72.98 65H74.884V60.912H78.3V59.008H74.884V56.824H79.14V54.92H72.98V65ZM80.4038 56.39H82.3078V54.71H80.4038V56.39ZM80.4038 65H82.3078V57.44H80.4038V65ZM84.2524 65H86.1844V61.164C86.1844 60.6927 86.2357 60.3147 86.3384 60.03C86.4457 59.7453 86.5811 59.5307 86.7444 59.386C86.9077 59.2367 87.0827 59.1363 87.2694 59.085C87.4561 59.0337 87.6311 59.008 87.7944 59.008C88.2004 59.008 88.5131 59.099 88.7324 59.281C88.9564 59.463 89.1174 59.6893 89.2154 59.96C89.3134 60.2307 89.3717 60.5013 89.3904 60.772C89.4091 61.038 89.4184 61.2573 89.4184 61.43V65H91.3504V60.758C91.3504 60.632 91.3411 60.4313 91.3224 60.156C91.3037 59.8807 91.2501 59.5773 91.1614 59.246C91.0727 58.91 90.9234 58.588 90.7134 58.28C90.5081 57.972 90.2187 57.7177 89.8454 57.517C89.4721 57.3163 88.9891 57.216 88.3964 57.216C87.8504 57.216 87.3744 57.307 86.9684 57.489C86.5624 57.671 86.2217 57.9137 85.9464 58.217V57.44H84.2524V65ZM93.0128 68.36H94.9308V64.727C95.1781 64.881 95.4511 65 95.7498 65.084C96.0531 65.168 96.3821 65.21 96.7368 65.21C97.4321 65.21 98.0411 65.035 98.5638 64.685C99.0865 64.335 99.4925 63.859 99.7818 63.257C100.076 62.655 100.223 61.976 100.223 61.22C100.223 60.45 100.073 59.7663 99.7748 59.169C99.4808 58.567 99.0655 58.0933 98.5288 57.748C97.9921 57.4027 97.3621 57.23 96.6388 57.23C96.2468 57.23 95.8875 57.286 95.5608 57.398C95.2388 57.5053 94.9495 57.6593 94.6928 57.86V57.44H93.0128V68.36ZM96.4288 63.516C95.7941 63.516 95.3461 63.306 95.0848 62.886C94.8235 62.4613 94.6928 61.906 94.6928 61.22C94.6928 60.534 94.8211 59.981 95.0778 59.561C95.3391 59.1363 95.7661 58.924 96.3588 58.924C96.7835 58.924 97.1311 59.029 97.4018 59.239C97.6771 59.4443 97.8801 59.722 98.0108 60.072C98.1415 60.4173 98.2068 60.8 98.2068 61.22C98.2068 61.6447 98.1438 62.032 98.0178 62.382C97.8918 62.7273 97.6981 63.0027 97.4368 63.208C97.1755 63.4133 96.8395 63.516 96.4288 63.516ZM103.723 65.21C104.306 65.21 104.796 65.1213 105.193 64.944C105.594 64.762 105.963 64.4727 106.299 64.076V65H107.965V60.38C107.965 60.0347 107.951 59.722 107.923 59.442C107.895 59.162 107.806 58.882 107.657 58.602C107.391 58.098 106.999 57.7433 106.481 57.538C105.963 57.3327 105.37 57.23 104.703 57.23C103.793 57.23 103.074 57.426 102.547 57.818C102.02 58.21 101.66 58.7187 101.469 59.344L103.191 59.89C103.312 59.5447 103.525 59.3043 103.828 59.169C104.131 59.0337 104.423 58.966 104.703 58.966C105.151 58.966 105.485 59.05 105.704 59.218C105.923 59.3813 106.052 59.6403 106.089 59.995C105.38 60.0977 104.754 60.198 104.213 60.296C103.672 60.3893 103.219 60.5013 102.855 60.632C102.248 60.856 101.821 61.1617 101.574 61.549C101.327 61.9317 101.203 62.3867 101.203 62.914C101.203 63.334 101.299 63.719 101.49 64.069C101.686 64.4143 101.971 64.692 102.344 64.902C102.722 65.1073 103.182 65.21 103.723 65.21ZM104.129 63.712C103.802 63.712 103.543 63.6397 103.352 63.495C103.161 63.3457 103.065 63.1427 103.065 62.886C103.065 62.6947 103.126 62.5313 103.247 62.396C103.368 62.256 103.569 62.13 103.849 62.018C104.064 61.9387 104.327 61.8663 104.64 61.801C104.957 61.731 105.436 61.6423 106.075 61.535C106.07 61.717 106.056 61.9177 106.033 62.137C106.01 62.3517 105.958 62.5407 105.879 62.704C105.828 62.8113 105.73 62.9443 105.585 63.103C105.445 63.2617 105.254 63.404 105.011 63.53C104.773 63.6513 104.479 63.712 104.129 63.712ZM110.187 68.36H111.951L116.221 57.44H114.317L112.343 62.585L110.355 57.44H108.381L111.433 64.937L110.187 68.36ZM124.055 65.21C125.212 65.21 126.183 64.923 126.967 64.349C127.755 63.775 128.311 62.998 128.633 62.018L126.715 61.486C126.528 62.0927 126.213 62.5663 125.77 62.907C125.326 63.2477 124.755 63.418 124.055 63.418C123.098 63.418 122.377 63.1053 121.892 62.48C121.411 61.85 121.171 61.01 121.171 59.96C121.171 58.91 121.411 58.0723 121.892 57.447C122.377 56.817 123.098 56.502 124.055 56.502C124.755 56.502 125.326 56.6723 125.77 57.013C126.213 57.349 126.528 57.8227 126.715 58.434L128.633 57.902C128.311 56.922 127.755 56.145 126.967 55.571C126.183 54.997 125.212 54.71 124.055 54.71C123.047 54.71 122.176 54.9293 121.444 55.368C120.716 55.8067 120.153 56.4203 119.757 57.209C119.365 57.9977 119.169 58.9147 119.169 59.96C119.169 61.0053 119.365 61.9223 119.757 62.711C120.153 63.4997 120.716 64.1133 121.444 64.552C122.176 64.9907 123.047 65.21 124.055 65.21ZM132.134 65.21C132.717 65.21 133.207 65.1213 133.604 64.944C134.005 64.762 134.374 64.4727 134.71 64.076V65H136.376V60.38C136.376 60.0347 136.362 59.722 136.334 59.442C136.306 59.162 136.217 58.882 136.068 58.602C135.802 58.098 135.41 57.7433 134.892 57.538C134.374 57.3327 133.781 57.23 133.114 57.23C132.204 57.23 131.485 57.426 130.958 57.818C130.43 58.21 130.071 58.7187 129.88 59.344L131.602 59.89C131.723 59.5447 131.935 59.3043 132.239 59.169C132.542 59.0337 132.834 58.966 133.114 58.966C133.562 58.966 133.895 59.05 134.115 59.218C134.334 59.3813 134.462 59.6403 134.5 59.995C133.79 60.0977 133.165 60.198 132.624 60.296C132.082 60.3893 131.63 60.5013 131.266 60.632C130.659 60.856 130.232 61.1617 129.985 61.549C129.737 61.9317 129.614 62.3867 129.614 62.914C129.614 63.334 129.709 63.719 129.901 64.069C130.097 64.4143 130.381 64.692 130.755 64.902C131.133 65.1073 131.592 65.21 132.134 65.21ZM132.54 63.712C132.213 63.712 131.954 63.6397 131.763 63.495C131.571 63.3457 131.476 63.1427 131.476 62.886C131.476 62.6947 131.536 62.5313 131.658 62.396C131.779 62.256 131.98 62.13 132.26 62.018C132.474 61.9387 132.738 61.8663 133.051 61.801C133.368 61.731 133.846 61.6423 134.486 61.535C134.481 61.717 134.467 61.9177 134.444 62.137C134.42 62.3517 134.369 62.5407 134.29 62.704C134.238 62.8113 134.14 62.9443 133.996 63.103C133.856 63.2617 133.664 63.404 133.422 63.53C133.184 63.6513 132.89 63.712 132.54 63.712ZM138.056 65H139.974V61.136C139.974 60.2587 140.319 59.6613 141.01 59.344C141.234 59.2367 141.484 59.1737 141.759 59.155C142.039 59.1317 142.284 59.1527 142.494 59.218V57.44C142.153 57.398 141.813 57.4073 141.472 57.468C141.131 57.524 140.823 57.636 140.548 57.804C140.371 57.9067 140.214 58.0303 140.079 58.175C139.948 58.3197 139.834 58.4807 139.736 58.658V57.44H138.056V65ZM146.615 65.21C147.03 65.21 147.408 65.154 147.749 65.042C148.089 64.93 148.393 64.7713 148.659 64.566V65H150.339V54.92H148.421V57.692C148.187 57.5427 147.926 57.4283 147.637 57.349C147.352 57.2697 147.044 57.23 146.713 57.23C145.989 57.23 145.359 57.4027 144.823 57.748C144.286 58.0933 143.868 58.567 143.57 59.169C143.276 59.7663 143.129 60.45 143.129 61.22C143.129 61.976 143.273 62.655 143.563 63.257C143.857 63.859 144.265 64.335 144.788 64.685C145.31 65.035 145.919 65.21 146.615 65.21ZM146.923 63.516C146.512 63.516 146.176 63.4133 145.915 63.208C145.653 63.0027 145.46 62.7273 145.334 62.382C145.208 62.032 145.145 61.6447 145.145 61.22C145.145 60.8 145.21 60.4173 145.341 60.072C145.471 59.722 145.672 59.4443 145.943 59.239C146.218 59.029 146.568 58.924 146.993 58.924C147.59 58.924 148.017 59.1363 148.274 59.561C148.53 59.981 148.659 60.534 148.659 61.22C148.659 61.906 148.528 62.4613 148.267 62.886C148.01 63.306 147.562 63.516 146.923 63.516Z" fill="#0C2073"/>
<path fill-rule="evenodd" clip-rule="evenodd" d="M53 55L58 50V60H48L53 55ZM58 60H68C68 60 62.9707 60.9436 61.0571 62.8571C59.0655 64.8488 58 70 58 70V60Z" fill="#0C2073"/>
<path fill-rule="evenodd" clip-rule="evenodd" d="M53 55L58 50V60H48L53 55ZM58 60H68C68 60 62.9707 60.9436 61.0571 62.8571C59.0655 64.8488 58 70 58 70V60Z" fill="#6C56F9"/>
<path d="M72.98 65H74.884V60.912H78.3V59.008H74.884V56.824H79.14V54.92H72.98V65ZM80.4038 56.39H82.3078V54.71H80.4038V56.39ZM80.4038 65H82.3078V57.44H80.4038V65ZM84.2524 65H86.1844V61.164C86.1844 60.6927 86.2357 60.3147 86.3384 60.03C86.4457 59.7453 86.5811 59.5307 86.7444 59.386C86.9077 59.2367 87.0827 59.1363 87.2694 59.085C87.4561 59.0337 87.6311 59.008 87.7944 59.008C88.2004 59.008 88.5131 59.099 88.7324 59.281C88.9564 59.463 89.1174 59.6893 89.2154 59.96C89.3134 60.2307 89.3717 60.5013 89.3904 60.772C89.4091 61.038 89.4184 61.2573 89.4184 61.43V65H91.3504V60.758C91.3504 60.632 91.3411 60.4313 91.3224 60.156C91.3037 59.8807 91.2501 59.5773 91.1614 59.246C91.0727 58.91 90.9234 58.588 90.7134 58.28C90.5081 57.972 90.2187 57.7177 89.8454 57.517C89.4721 57.3163 88.9891 57.216 88.3964 57.216C87.8504 57.216 87.3744 57.307 86.9684 57.489C86.5624 57.671 86.2217 57.9137 85.9464 58.217V57.44H84.2524V65ZM93.0128 68.36H94.9308V64.727C95.1781 64.881 95.4511 65 95.7498 65.084C96.0531 65.168 96.3821 65.21 96.7368 65.21C97.4321 65.21 98.0411 65.035 98.5638 64.685C99.0865 64.335 99.4925 63.859 99.7818 63.257C100.076 62.655 100.223 61.976 100.223 61.22C100.223 60.45 100.073 59.7663 99.7748 59.169C99.4808 58.567 99.0655 58.0933 98.5288 57.748C97.9921 57.4027 97.3621 57.23 96.6388 57.23C96.2468 57.23 95.8875 57.286 95.5608 57.398C95.2388 57.5053 94.9495 57.6593 94.6928 57.86V57.44H93.0128V68.36ZM96.4288 63.516C95.7941 63.516 95.3461 63.306 95.0848 62.886C94.8235 62.4613 94.6928 61.906 94.6928 61.22C94.6928 60.534 94.8211 59.981 95.0778 59.561C95.3391 59.1363 95.7661 58.924 96.3588 58.924C96.7835 58.924 97.1311 59.029 97.4018 59.239C97.6771 59.4443 97.8801 59.722 98.0108 60.072C98.1415 60.4173 98.2068 60.8 98.2068 61.22C98.2068 61.6447 98.1438 62.032 98.0178 62.382C97.8918 62.7273 97.6981 63.0027 97.4368 63.208C97.1755 63.4133 96.8395 63.516 96.4288 63.516ZM103.723 65.21C104.306 65.21 104.796 65.1213 105.193 64.944C105.594 64.762 105.963 64.4727 106.299 64.076V65H107.965V60.38C107.965 60.0347 107.951 59.722 107.923 59.442C107.895 59.162 107.806 58.882 107.657 58.602C107.391 58.098 106.999 57.7433 106.481 57.538C105.963 57.3327 105.37 57.23 104.703 57.23C103.793 57.23 103.074 57.426 102.547 57.818C102.02 58.21 101.66 58.7187 101.469 59.344L103.191 59.89C103.312 59.5447 103.525 59.3043 103.828 59.169C104.131 59.0337 104.423 58.966 104.703 58.966C105.151 58.966 105.485 59.05 105.704 59.218C105.923 59.3813 106.052 59.6403 106.089 59.995C105.38 60.0977 104.754 60.198 104.213 60.296C103.672 60.3893 103.219 60.5013 102.855 60.632C102.248 60.856 101.821 61.1617 101.574 61.549C101.327 61.9317 101.203 62.3867 101.203 62.914C101.203 63.334 101.299 63.719 101.49 64.069C101.686 64.4143 101.971 64.692 102.344 64.902C102.722 65.1073 103.182 65.21 103.723 65.21ZM104.129 63.712C103.802 63.712 103.543 63.6397 103.352 63.495C103.161 63.3457 103.065 63.1427 103.065 62.886C103.065 62.6947 103.126 62.5313 103.247 62.396C103.368 62.256 103.569 62.13 103.849 62.018C104.064 61.9387 104.327 61.8663 104.64 61.801C104.957 61.731 105.436 61.6423 106.075 61.535C106.07 61.717 106.056 61.9177 106.033 62.137C106.01 62.3517 105.958 62.5407 105.879 62.704C105.828 62.8113 105.73 62.9443 105.585 63.103C105.445 63.2617 105.254 63.404 105.011 63.53C104.773 63.6513 104.479 63.712 104.129 63.712ZM110.187 68.36H111.951L116.221 57.44H114.317L112.343 62.585L110.355 57.44H108.381L111.433 64.937L110.187 68.36ZM124.055 65.21C125.212 65.21 126.183 64.923 126.967 64.349C127.755 63.775 128.311 62.998 128.633 62.018L126.715 61.486C126.528 62.0927 126.213 62.5663 125.77 62.907C125.326 63.2477 124.755 63.418 124.055 63.418C123.098 63.418 122.377 63.1053 121.892 62.48C121.411 61.85 121.171 61.01 121.171 59.96C121.171 58.91 121.411 58.0723 121.892 57.447C122.377 56.817 123.098 56.502 124.055 56.502C124.755 56.502 125.326 56.6723 125.77 57.013C126.213 57.349 126.528 57.8227 126.715 58.434L128.633 57.902C128.311 56.922 127.755 56.145 126.967 55.571C126.183 54.997 125.212 54.71 124.055 54.71C123.047 54.71 122.176 54.9293 121.444 55.368C120.716 55.8067 120.153 56.4203 119.757 57.209C119.365 57.9977 119.169 58.9147 119.169 59.96C119.169 61.0053 119.365 61.9223 119.757 62.711C120.153 63.4997 120.716 64.1133 121.444 64.552C122.176 64.9907 123.047 65.21 124.055 65.21ZM132.134 65.21C132.717 65.21 133.207 65.1213 133.604 64.944C134.005 64.762 134.374 64.4727 134.71 64.076V65H136.376V60.38C136.376 60.0347 136.362 59.722 136.334 59.442C136.306 59.162 136.217 58.882 136.068 58.602C135.802 58.098 135.41 57.7433 134.892 57.538C134.374 57.3327 133.781 57.23 133.114 57.23C132.204 57.23 131.485 57.426 130.958 57.818C130.43 58.21 130.071 58.7187 129.88 59.344L131.602 59.89C131.723 59.5447 131.935 59.3043 132.239 59.169C132.542 59.0337 132.834 58.966 133.114 58.966C133.562 58.966 133.895 59.05 134.115 59.218C134.334 59.3813 134.462 59.6403 134.5 59.995C133.79 60.0977 133.165 60.198 132.624 60.296C132.082 60.3893 131.63 60.5013 131.266 60.632C130.659 60.856 130.232 61.1617 129.985 61.549C129.737 61.9317 129.614 62.3867 129.614 62.914C129.614 63.334 129.709 63.719 129.901 64.069C130.097 64.4143 130.381 64.692 130.755 64.902C131.133 65.1073 131.592 65.21 132.134 65.21ZM132.54 63.712C132.213 63.712 131.954 63.6397 131.763 63.495C131.571 63.3457 131.476 63.1427 131.476 62.886C131.476 62.6947 131.536 62.5313 131.658 62.396C131.779 62.256 131.98 62.13 132.26 62.018C132.474 61.9387 132.738 61.8663 133.051 61.801C133.368 61.731 133.846 61.6423 134.486 61.535C134.481 61.717 134.467 61.9177 134.444 62.137C134.42 62.3517 134.369 62.5407 134.29 62.704C134.238 62.8113 134.14 62.9443 133.996 63.103C133.856 63.2617 133.664 63.404 133.422 63.53C133.184 63.6513 132.89 63.712 132.54 63.712ZM138.056 65H139.974V61.136C139.974 60.2587 140.319 59.6613 141.01 59.344C141.234 59.2367 141.484 59.1737 141.759 59.155C142.039 59.1317 142.284 59.1527 142.494 59.218V57.44C142.153 57.398 141.813 57.4073 141.472 57.468C141.131 57.524 140.823 57.636 140.548 57.804C140.371 57.9067 140.214 58.0303 140.079 58.175C139.948 58.3197 139.834 58.4807 139.736 58.658V57.44H138.056V65ZM146.615 65.21C147.03 65.21 147.408 65.154 147.749 65.042C148.089 64.93 148.393 64.7713 148.659 64.566V65H150.339V54.92H148.421V57.692C148.187 57.5427 147.926 57.4283 147.637 57.349C147.352 57.2697 147.044 57.23 146.713 57.23C145.989 57.23 145.359 57.4027 144.823 57.748C144.286 58.0933 143.868 58.567 143.57 59.169C143.276 59.7663 143.129 60.45 143.129 61.22C143.129 61.976 143.273 62.655 143.563 63.257C143.857 63.859 144.265 64.335 144.788 64.685C145.31 65.035 145.919 65.21 146.615 65.21ZM146.923 63.516C146.512 63.516 146.176 63.4133 145.915 63.208C145.653 63.0027 145.46 62.7273 145.334 62.382C145.208 62.032 145.145 61.6447 145.145 61.22C145.145 60.8 145.21 60.4173 145.341 60.072C145.471 59.722 145.672 59.4443 145.943 59.239C146.218 59.029 146.568 58.924 146.993 58.924C147.59 58.924 148.017 59.1363 148.274 59.561C148.53 59.981 148.659 60.534 148.659 61.22C148.659 61.906 148.528 62.4613 148.267 62.886C148.01 63.306 147.562 63.516 146.923 63.516Z" fill="#15141F"/>
<path d="M54.192 141.4H57.456V139.228C58.96 138.964 60.164 138.356 61.068 137.404C61.972 136.444 62.424 135.264 62.424 133.864C62.424 132.624 62.084 131.628 61.404 130.876C60.732 130.124 59.632 129.528 58.104 129.088L55.056 128.224C54.288 128.008 53.728 127.752 53.376 127.456C53.024 127.152 52.848 126.792 52.848 126.376C52.848 125.808 53.12 125.336 53.664 124.96C54.216 124.584 54.888 124.408 55.68 124.432C56.512 124.456 57.22 124.708 57.804 125.188C58.396 125.66 58.776 126.28 58.944 127.048L62.304 126.448C61.968 125.128 61.384 124.056 60.552 123.232C59.728 122.4 58.696 121.848 57.456 121.576V119.344H54.192V121.504C52.768 121.736 51.648 122.296 50.832 123.184C50.016 124.072 49.608 125.192 49.608 126.544C49.608 128.792 50.84 130.296 53.304 131.056L57.576 132.376C58.648 132.728 59.184 133.304 59.184 134.104C59.184 134.728 58.884 135.252 58.284 135.676C57.692 136.1 56.944 136.312 56.04 136.312C55.08 136.312 54.252 136.032 53.556 135.472C52.868 134.912 52.416 134.16 52.2 133.216L48.96 133.72C49.176 135.176 49.744 136.384 50.664 137.344C51.592 138.304 52.768 138.924 54.192 139.204V141.4ZM64.335 138.976H76.431V135.904H69.399L73.263 132.52C73.951 131.92 74.531 131.384 75.003 130.912C75.475 130.432 75.831 129.912 76.071 129.352C76.311 128.784 76.431 128.072 76.431 127.216C76.431 126.056 76.175 125.036 75.663 124.156C75.151 123.276 74.447 122.592 73.551 122.104C72.663 121.608 71.655 121.36 70.527 121.36C69.295 121.36 68.215 121.596 67.287 122.068C66.359 122.54 65.635 123.208 65.115 124.072C64.595 124.936 64.335 125.96 64.335 127.144H67.695C67.679 126.664 67.787 126.22 68.019 125.812C68.251 125.396 68.575 125.064 68.991 124.816C69.415 124.56 69.903 124.432 70.455 124.432C71.247 124.432 71.879 124.692 72.351 125.212C72.831 125.724 73.071 126.376 73.071 127.168C73.071 127.536 72.959 127.932 72.735 128.356C72.511 128.78 72.127 129.232 71.583 129.712L64.335 136.144V138.976ZM78.8194 142.24C79.9234 142.416 80.7434 142.208 81.2794 141.616C81.8154 141.024 82.0834 140.152 82.0834 139V135.736H78.8194V139H80.4994C80.5874 139.576 80.5034 140.044 80.2474 140.404C79.9994 140.764 79.5874 140.92 79.0114 140.872L78.8194 142.24ZM87.2771 139H90.8051L96.5891 124.792V121.72H85.6931V124.792H93.0851L87.2771 139ZM104.268 139.312C105.356 139.312 106.356 139.06 107.268 138.556C108.18 138.044 108.912 137.356 109.464 136.492C110.016 135.62 110.292 134.64 110.292 133.552C110.292 132.744 110.144 131.98 109.848 131.26C109.56 130.532 109.132 129.9 108.564 129.364C107.996 128.82 107.3 128.428 106.476 128.188L109.98 124.792V121.72H99.1798V124.792H106.116L101.46 128.656L102.924 131.224C103.356 130.968 103.804 130.84 104.268 130.84C105.06 130.84 105.708 131.108 106.212 131.644C106.724 132.172 106.98 132.808 106.98 133.552C106.98 134.048 106.856 134.5 106.608 134.908C106.368 135.316 106.04 135.64 105.624 135.88C105.216 136.12 104.764 136.24 104.268 136.24C103.692 136.24 103.156 136.068 102.66 135.724C102.172 135.372 101.844 134.88 101.676 134.248L98.5078 135.088C98.7558 135.944 99.1678 136.688 99.7438 137.32C100.328 137.952 101.012 138.444 101.796 138.796C102.58 139.14 103.404 139.312 104.268 139.312ZM119.191 139.36C120.279 139.36 121.279 139.104 122.191 138.592C123.103 138.072 123.835 137.376 124.387 136.504C124.939 135.624 125.215 134.64 125.215 133.552C125.215 132.464 124.979 131.496 124.507 130.648C124.043 129.8 123.395 129.132 122.563 128.644C121.739 128.156 120.783 127.912 119.695 127.912C118.503 127.912 117.439 128.268 116.503 128.98V127.504C116.503 126.976 116.627 126.48 116.875 126.016C117.131 125.544 117.487 125.164 117.943 124.876C118.407 124.58 118.951 124.432 119.575 124.432C120.407 124.432 121.127 124.736 121.735 125.344L124.064 123.016C123.431 122.424 122.735 122.004 121.975 121.756C121.215 121.508 120.415 121.384 119.575 121.384C118.279 121.384 117.151 121.652 116.191 122.188C115.231 122.716 114.487 123.476 113.959 124.468C113.431 125.452 113.167 126.624 113.167 127.984V133C113.167 134.256 113.431 135.364 113.959 136.324C114.487 137.276 115.203 138.02 116.107 138.556C117.019 139.092 118.047 139.36 119.191 139.36ZM119.191 136.24C118.695 136.24 118.243 136.116 117.835 135.868C117.427 135.62 117.103 135.292 116.863 134.884C116.623 134.476 116.503 134.032 116.503 133.552C116.503 133.056 116.623 132.604 116.863 132.196C117.111 131.78 117.439 131.452 117.847 131.212C118.263 130.964 118.719 130.84 119.215 130.84C119.711 130.84 120.163 130.964 120.571 131.212C120.979 131.452 121.303 131.78 121.543 132.196C121.783 132.604 121.903 133.056 121.903 133.552C121.903 134.048 121.779 134.5 121.531 134.908C121.291 135.316 120.963 135.64 120.547 135.88C120.139 136.12 119.687 136.24 119.191 136.24ZM128.385 139H131.649V135.736H128.385V139ZM135.422 139H138.758V121.72H135.422L132.182 123.664V127.264L135.422 125.272V139ZM148.216 139.36C149.304 139.36 150.312 139.104 151.24 138.592C152.168 138.072 152.916 137.376 153.484 136.504C154.052 135.624 154.336 134.64 154.336 133.552C154.336 132.464 154.1 131.5 153.628 130.66C153.164 129.812 152.516 129.148 151.684 128.668C150.86 128.18 149.904 127.936 148.816 127.936C148.44 127.936 148.04 127.984 147.616 128.08C147.192 128.176 146.788 128.328 146.404 128.536L146.644 124.768H153.184V121.72H143.752L143.224 130.912L145.984 131.752C146.176 131.568 146.464 131.376 146.848 131.176C147.232 130.968 147.728 130.864 148.336 130.864C148.832 130.864 149.284 130.984 149.692 131.224C150.108 131.464 150.436 131.788 150.676 132.196C150.924 132.604 151.048 133.056 151.048 133.552C151.048 134.048 150.924 134.5 150.676 134.908C150.436 135.316 150.108 135.64 149.692 135.88C149.284 136.12 148.832 136.24 148.336 136.24C147.776 136.24 147.244 136.06 146.74 135.7C146.236 135.34 145.904 134.856 145.744 134.248L142.6 135.088C142.84 135.936 143.236 136.68 143.788 137.32C144.34 137.96 144.996 138.46 145.756 138.82C146.524 139.18 147.344 139.36 148.216 139.36Z" fill="#15141F"/>
<circle cx="51" cy="171" r="3" fill="#15141F"/>
<circle cx="61" cy="171" r="3" fill="#15141F"/>
<circle cx="71" cy="171" r="3" fill="#15141F"/>
<circle cx="81" cy="171" r="3" fill="#15141F"/>
<path d="M104.536 177.24C105.256 177.24 105.917 177.067 106.52 176.72C107.128 176.373 107.616 175.909 107.984 175.328C108.352 174.741 108.536 174.091 108.536 173.376C108.536 172.656 108.373 172.011 108.048 171.44C107.728 170.869 107.285 170.421 106.72 170.096C106.16 169.765 105.52 169.6 104.8 169.6C104.459 169.6 104.115 169.653 103.768 169.76C103.427 169.867 103.115 170.021 102.832 170.224L103.024 167.056H107.744V165.48H101.528L101.176 171.536L102.632 172.048C102.813 171.808 103.067 171.595 103.392 171.408C103.717 171.216 104.115 171.12 104.584 171.12C104.995 171.12 105.371 171.221 105.712 171.424C106.059 171.621 106.333 171.891 106.536 172.232C106.744 172.573 106.848 172.955 106.848 173.376C106.848 173.787 106.747 174.163 106.544 174.504C106.341 174.845 106.069 175.117 105.728 175.32C105.387 175.523 105.005 175.624 104.584 175.624C104.104 175.624 103.653 175.475 103.232 175.176C102.816 174.872 102.541 174.464 102.408 173.952L100.8 174.384C100.96 174.944 101.221 175.44 101.584 175.872C101.947 176.299 102.381 176.635 102.888 176.88C103.395 177.12 103.944 177.24 104.536 177.24ZM113.672 177.216C114.392 177.216 115.043 177.053 115.624 176.728C116.205 176.403 116.667 175.955 117.008 175.384C117.349 174.808 117.52 174.155 117.52 173.424C117.52 172.8 117.397 172.229 117.152 171.712C116.912 171.195 116.565 170.771 116.112 170.44C115.664 170.104 115.128 169.893 114.504 169.808L117.352 167.072V165.48H110.424V167.072H115.304L111.784 170.184L112.568 171.504C112.925 171.312 113.288 171.216 113.656 171.216C114.296 171.216 114.813 171.424 115.208 171.84C115.608 172.256 115.808 172.784 115.808 173.424C115.808 174.059 115.611 174.584 115.216 175C114.821 175.411 114.307 175.621 113.672 175.632C113.203 175.637 112.776 175.509 112.392 175.248C112.008 174.987 111.739 174.605 111.584 174.104L109.968 174.552C110.133 175.096 110.397 175.568 110.76 175.968C111.128 176.368 111.563 176.677 112.064 176.896C112.565 177.109 113.101 177.216 113.672 177.216ZM121.612 177H123.316V165.48H121.612L119.444 166.776V168.64L121.612 167.32V177ZM130.042 177.24C130.794 177.24 131.458 177.088 132.034 176.784C132.616 176.48 133.072 176.059 133.402 175.52C133.733 174.981 133.898 174.36 133.898 173.656C133.898 173.08 133.778 172.547 133.538 172.056C133.304 171.56 132.954 171.149 132.49 170.824C133.226 170.232 133.594 169.44 133.594 168.448C133.594 167.792 133.442 167.224 133.138 166.744C132.834 166.264 132.416 165.893 131.882 165.632C131.349 165.371 130.736 165.24 130.042 165.24C129.349 165.24 128.733 165.371 128.194 165.632C127.661 165.893 127.242 166.264 126.938 166.744C126.634 167.224 126.482 167.792 126.482 168.448C126.482 169.419 126.85 170.211 127.586 170.824C127.122 171.155 126.773 171.565 126.538 172.056C126.309 172.547 126.194 173.08 126.194 173.656C126.194 174.36 126.357 174.981 126.682 175.52C127.013 176.059 127.466 176.48 128.042 176.784C128.624 177.088 129.29 177.24 130.042 177.24ZM130.042 170.048C129.514 170.048 129.085 169.915 128.754 169.648C128.424 169.381 128.258 168.981 128.258 168.448C128.258 167.909 128.424 167.507 128.754 167.24C129.085 166.968 129.514 166.832 130.042 166.832C130.57 166.832 130.997 166.968 131.322 167.24C131.653 167.507 131.818 167.909 131.818 168.448C131.818 168.981 131.653 169.381 131.322 169.648C130.997 169.915 130.57 170.048 130.042 170.048ZM130.042 175.648C129.424 175.648 128.922 175.48 128.538 175.144C128.154 174.803 127.962 174.307 127.962 173.656C127.962 173.005 128.152 172.509 128.53 172.168C128.914 171.821 129.418 171.648 130.042 171.648C130.666 171.648 131.168 171.821 131.546 172.168C131.93 172.509 132.122 173.005 132.122 173.656C132.122 174.307 131.93 174.803 131.546 175.144C131.162 175.48 130.661 175.648 130.042 175.648Z" fill="#15141F"/>
<g clip-path="url(#clip0_115_4222)">
<path d="M326.695 171.442V171.072H326.595L326.479 171.326L326.364 171.072H326.264V171.442H326.335V171.164L326.443 171.404H326.517L326.625 171.163V171.442H326.695H326.695ZM326.061 171.442V171.136H326.189V171.073H325.862V171.136H325.99V171.442H326.06H326.061Z" fill="#F79410"/>
<path d="M315.329 173.665H306.676V158.113H315.329L315.329 173.665Z" fill="#FF5F00"/>
<path d="M307.224 165.891C307.224 162.736 308.701 159.926 311.001 158.115C309.26 156.742 307.107 155.997 304.889 156C299.428 156 295 160.428 295 165.891C295 171.353 299.428 175.781 304.889 175.781C307.107 175.785 309.26 175.04 311.001 173.667C308.701 171.856 307.224 169.046 307.224 165.891Z" fill="#EB001B"/>
<path d="M327.004 165.891C327.004 171.353 322.577 175.781 317.115 175.781C314.897 175.785 312.743 175.04 311.002 173.667C313.303 171.856 314.78 169.046 314.78 165.891C314.78 162.736 313.303 159.926 311.002 158.115C312.743 156.742 314.897 155.997 317.115 156C322.577 156 327.004 160.428 327.004 165.891" fill="#F79E1B"/>
</g>
<rect x="23" y="89" width="329" height="182" rx="17" fill="#0C2073" stroke="white" stroke-width="2"/>
<mask id="mask1_115_4222" style="mask-type:alpha" maskUnits="userSpaceOnUse" x="24" y="90" width="327" height="180">
<rect x="24" y="90" width="327" height="180" rx="16" fill="#2378FA"/>
</mask>
<g mask="url(#mask1_115_4222)">
<path d="M188 129.881C179.779 108.835 173 74 173 74H388.5V282H263C263 282 260.116 247.38 253.431 226.378C239.621 182.989 204.568 172.293 188 129.881Z" fill="#C8D1F9"/>
<mask id="mask2_115_4222" style="mask-type:alpha" maskUnits="userSpaceOnUse" x="-269" y="90" width="581" height="180">
<rect width="580" height="180" transform="matrix(1 8.74228e-08 8.74228e-08 -1 -268.589 270)" fill="white"/>
</mask>
<g mask="url(#mask2_115_4222)">
<mask id="mask3_115_4222" style="mask-type:alpha" maskUnits="userSpaceOnUse" x="-269" y="90" width="581" height="180">
<rect width="580" height="180" transform="matrix(1 8.74228e-08 8.74228e-08 -1 -268.589 270)" fill="white"/>
</mask>
<g mask="url(#mask3_115_4222)">
<mask id="mask4_115_4222" style="mask-type:alpha" maskUnits="userSpaceOnUse" x="-237" y="90" width="552" height="181">
<path fill-rule="evenodd" clip-rule="evenodd" d="M-236.366 270.092L-236.366 90.0918L185.975 90.0918C220.623 90.1591 240.3 102.237 249.964 130.692L291.26 248.275C298.734 268.798 314.452 270.081 314.594 270.092" fill="white"/>
</mask>
<g mask="url(#mask4_115_4222)">
<path fill-rule="evenodd" clip-rule="evenodd" d="M230.918 243.746L213.377 194.018L243.32 109.119C243.32 109.119 250.648 91.182 257.362 90.0918L322.594 90.0918L322.594 270.092L262.012 270.092C244.588 270.092 237.629 264.289 230.918 243.746Z" fill="#4263EB"/>
</g>
<mask id="mask5_115_4222" style="mask-type:alpha" maskUnits="userSpaceOnUse" x="-237" y="90" width="552" height="181">
<path fill-rule="evenodd" clip-rule="evenodd" d="M-236.366 270.068L-236.366 90.0906L185.975 90.0906C220.623 90.1579 240.3 102.234 249.964 130.685L291.26 248.254C298.734 268.775 314.452 270.057 314.594 270.068" fill="white"/>
</mask>
<g mask="url(#mask5_115_4222)">
<path fill-rule="evenodd" clip-rule="evenodd" d="M213.378 195.25L183.432 109.347C183.432 109.347 176.109 91.1956 169.421 90.0945L257.363 90.0945C250.648 91.1956 243.321 109.347 243.321 109.347L213.378 195.25Z" fill="#173EDD"/>
</g>
</g>
</g>
<g filter="url(#filter1_b_115_4222)">
<rect x="8.22827" y="28" width="365.904" height="126" fill="white" fill-opacity="0.2"/>
</g>
</g>
<path fill-rule="evenodd" clip-rule="evenodd" d="M53 119L58 114V124H48L53 119ZM58 124H68C68 124 62.9707 124.944 61.0571 126.857C59.0655 128.849 58 134 58 134V124Z" fill="white"/>
<path d="M72.98 129H74.884V124.912H78.3V123.008H74.884V120.824H79.14V118.92H72.98V129ZM80.4038 120.39H82.3078V118.71H80.4038V120.39ZM80.4038 129H82.3078V121.44H80.4038V129ZM84.2524 129H86.1844V125.164C86.1844 124.693 86.2357 124.315 86.3384 124.03C86.4457 123.745 86.5811 123.531 86.7444 123.386C86.9077 123.237 87.0827 123.136 87.2694 123.085C87.4561 123.034 87.6311 123.008 87.7944 123.008C88.2004 123.008 88.5131 123.099 88.7324 123.281C88.9564 123.463 89.1174 123.689 89.2154 123.96C89.3134 124.231 89.3717 124.501 89.3904 124.772C89.4091 125.038 89.4184 125.257 89.4184 125.43V129H91.3504V124.758C91.3504 124.632 91.3411 124.431 91.3224 124.156C91.3037 123.881 91.2501 123.577 91.1614 123.246C91.0727 122.91 90.9234 122.588 90.7134 122.28C90.5081 121.972 90.2187 121.718 89.8454 121.517C89.4721 121.316 88.9891 121.216 88.3964 121.216C87.8504 121.216 87.3744 121.307 86.9684 121.489C86.5624 121.671 86.2217 121.914 85.9464 122.217V121.44H84.2524V129ZM93.0128 132.36H94.9308V128.727C95.1781 128.881 95.4511 129 95.7498 129.084C96.0531 129.168 96.3821 129.21 96.7368 129.21C97.4321 129.21 98.0411 129.035 98.5638 128.685C99.0865 128.335 99.4925 127.859 99.7818 127.257C100.076 126.655 100.223 125.976 100.223 125.22C100.223 124.45 100.073 123.766 99.7748 123.169C99.4808 122.567 99.0655 122.093 98.5288 121.748C97.9921 121.403 97.3621 121.23 96.6388 121.23C96.2468 121.23 95.8875 121.286 95.5608 121.398C95.2388 121.505 94.9495 121.659 94.6928 121.86V121.44H93.0128V132.36ZM96.4288 127.516C95.7941 127.516 95.3461 127.306 95.0848 126.886C94.8235 126.461 94.6928 125.906 94.6928 125.22C94.6928 124.534 94.8211 123.981 95.0778 123.561C95.3391 123.136 95.7661 122.924 96.3588 122.924C96.7835 122.924 97.1311 123.029 97.4018 123.239C97.6771 123.444 97.8801 123.722 98.0108 124.072C98.1415 124.417 98.2068 124.8 98.2068 125.22C98.2068 125.645 98.1438 126.032 98.0178 126.382C97.8918 126.727 97.6981 127.003 97.4368 127.208C97.1755 127.413 96.8395 127.516 96.4288 127.516ZM103.723 129.21C104.306 129.21 104.796 129.121 105.193 128.944C105.594 128.762 105.963 128.473 106.299 128.076V129H107.965V124.38C107.965 124.035 107.951 123.722 107.923 123.442C107.895 123.162 107.806 122.882 107.657 122.602C107.391 122.098 106.999 121.743 106.481 121.538C105.963 121.333 105.37 121.23 104.703 121.23C103.793 121.23 103.074 121.426 102.547 121.818C102.02 122.21 101.66 122.719 101.469 123.344L103.191 123.89C103.312 123.545 103.525 123.304 103.828 123.169C104.131 123.034 104.423 122.966 104.703 122.966C105.151 122.966 105.485 123.05 105.704 123.218C105.923 123.381 106.052 123.64 106.089 123.995C105.38 124.098 104.754 124.198 104.213 124.296C103.672 124.389 103.219 124.501 102.855 124.632C102.248 124.856 101.821 125.162 101.574 125.549C101.327 125.932 101.203 126.387 101.203 126.914C101.203 127.334 101.299 127.719 101.49 128.069C101.686 128.414 101.971 128.692 102.344 128.902C102.722 129.107 103.182 129.21 103.723 129.21ZM104.129 127.712C103.802 127.712 103.543 127.64 103.352 127.495C103.161 127.346 103.065 127.143 103.065 126.886C103.065 126.695 103.126 126.531 103.247 126.396C103.368 126.256 103.569 126.13 103.849 126.018C104.064 125.939 104.327 125.866 104.64 125.801C104.957 125.731 105.436 125.642 106.075 125.535C106.07 125.717 106.056 125.918 106.033 126.137C106.01 126.352 105.958 126.541 105.879 126.704C105.828 126.811 105.73 126.944 105.585 127.103C105.445 127.262 105.254 127.404 105.011 127.53C104.773 127.651 104.479 127.712 104.129 127.712ZM110.187 132.36H111.951L116.221 121.44H114.317L112.343 126.585L110.355 121.44H108.381L111.433 128.937L110.187 132.36ZM124.055 129.21C125.212 129.21 126.183 128.923 126.967 128.349C127.755 127.775 128.311 126.998 128.633 126.018L126.715 125.486C126.528 126.093 126.213 126.566 125.77 126.907C125.326 127.248 124.755 127.418 124.055 127.418C123.098 127.418 122.377 127.105 121.892 126.48C121.411 125.85 121.171 125.01 121.171 123.96C121.171 122.91 121.411 122.072 121.892 121.447C122.377 120.817 123.098 120.502 124.055 120.502C124.755 120.502 125.326 120.672 125.77 121.013C126.213 121.349 126.528 121.823 126.715 122.434L128.633 121.902C128.311 120.922 127.755 120.145 126.967 119.571C126.183 118.997 125.212 118.71 124.055 118.71C123.047 118.71 122.176 118.929 121.444 119.368C120.716 119.807 120.153 120.42 119.757 121.209C119.365 121.998 119.169 122.915 119.169 123.96C119.169 125.005 119.365 125.922 119.757 126.711C120.153 127.5 120.716 128.113 121.444 128.552C122.176 128.991 123.047 129.21 124.055 129.21ZM132.134 129.21C132.717 129.21 133.207 129.121 133.604 128.944C134.005 128.762 134.374 128.473 134.71 128.076V129H136.376V124.38C136.376 124.035 136.362 123.722 136.334 123.442C136.306 123.162 136.217 122.882 136.068 122.602C135.802 122.098 135.41 121.743 134.892 121.538C134.374 121.333 133.781 121.23 133.114 121.23C132.204 121.23 131.485 121.426 130.958 121.818C130.43 122.21 130.071 122.719 129.88 123.344L131.602 123.89C131.723 123.545 131.935 123.304 132.239 123.169C132.542 123.034 132.834 122.966 133.114 122.966C133.562 122.966 133.895 123.05 134.115 123.218C134.334 123.381 134.462 123.64 134.5 123.995C133.79 124.098 133.165 124.198 132.624 124.296C132.082 124.389 131.63 124.501 131.266 124.632C130.659 124.856 130.232 125.162 129.985 125.549C129.737 125.932 129.614 126.387 129.614 126.914C129.614 127.334 129.709 127.719 129.901 128.069C130.097 128.414 130.381 128.692 130.755 128.902C131.133 129.107 131.592 129.21 132.134 129.21ZM132.54 127.712C132.213 127.712 131.954 127.64 131.763 127.495C131.571 127.346 131.476 127.143 131.476 126.886C131.476 126.695 131.536 126.531 131.658 126.396C131.779 126.256 131.98 126.13 132.26 126.018C132.474 125.939 132.738 125.866 133.051 125.801C133.368 125.731 133.846 125.642 134.486 125.535C134.481 125.717 134.467 125.918 134.444 126.137C134.42 126.352 134.369 126.541 134.29 126.704C134.238 126.811 134.14 126.944 133.996 127.103C133.856 127.262 133.664 127.404 133.422 127.53C133.184 127.651 132.89 127.712 132.54 127.712ZM138.056 129H139.974V125.136C139.974 124.259 140.319 123.661 141.01 123.344C141.234 123.237 141.484 123.174 141.759 123.155C142.039 123.132 142.284 123.153 142.494 123.218V121.44C142.153 121.398 141.813 121.407 141.472 121.468C141.131 121.524 140.823 121.636 140.548 121.804C140.371 121.907 140.214 122.03 140.079 122.175C139.948 122.32 139.834 122.481 139.736 122.658V121.44H138.056V129ZM146.615 129.21C147.03 129.21 147.408 129.154 147.749 129.042C148.089 128.93 148.393 128.771 148.659 128.566V129H150.339V118.92H148.421V121.692C148.187 121.543 147.926 121.428 147.637 121.349C147.352 121.27 147.044 121.23 146.713 121.23C145.989 121.23 145.359 121.403 144.823 121.748C144.286 122.093 143.868 122.567 143.57 123.169C143.276 123.766 143.129 124.45 143.129 125.22C143.129 125.976 143.273 126.655 143.563 127.257C143.857 127.859 144.265 128.335 144.788 128.685C145.31 129.035 145.919 129.21 146.615 129.21ZM146.923 127.516C146.512 127.516 146.176 127.413 145.915 127.208C145.653 127.003 145.46 126.727 145.334 126.382C145.208 126.032 145.145 125.645 145.145 125.22C145.145 124.8 145.21 124.417 145.341 124.072C145.471 123.722 145.672 123.444 145.943 123.239C146.218 123.029 146.568 122.924 146.993 122.924C147.59 122.924 148.017 123.136 148.274 123.561C148.53 123.981 148.659 124.534 148.659 125.22C148.659 125.906 148.528 126.461 148.267 126.886C148.01 127.306 147.562 127.516 146.923 127.516Z" fill="white"/>
<path d="M54.192 205.4H57.456V203.228C58.96 202.964 60.164 202.356 61.068 201.404C61.972 200.444 62.424 199.264 62.424 197.864C62.424 196.624 62.084 195.628 61.404 194.876C60.732 194.124 59.632 193.528 58.104 193.088L55.056 192.224C54.288 192.008 53.728 191.752 53.376 191.456C53.024 191.152 52.848 190.792 52.848 190.376C52.848 189.808 53.12 189.336 53.664 188.96C54.216 188.584 54.888 188.408 55.68 188.432C56.512 188.456 57.22 188.708 57.804 189.188C58.396 189.66 58.776 190.28 58.944 191.048L62.304 190.448C61.968 189.128 61.384 188.056 60.552 187.232C59.728 186.4 58.696 185.848 57.456 185.576V183.344H54.192V185.504C52.768 185.736 51.648 186.296 50.832 187.184C50.016 188.072 49.608 189.192 49.608 190.544C49.608 192.792 50.84 194.296 53.304 195.056L57.576 196.376C58.648 196.728 59.184 197.304 59.184 198.104C59.184 198.728 58.884 199.252 58.284 199.676C57.692 200.1 56.944 200.312 56.04 200.312C55.08 200.312 54.252 200.032 53.556 199.472C52.868 198.912 52.416 198.16 52.2 197.216L48.96 197.72C49.176 199.176 49.744 200.384 50.664 201.344C51.592 202.304 52.768 202.924 54.192 203.204V205.4ZM64.335 202.976H76.431V199.904H69.399L73.263 196.52C73.951 195.92 74.531 195.384 75.003 194.912C75.475 194.432 75.831 193.912 76.071 193.352C76.311 192.784 76.431 192.072 76.431 191.216C76.431 190.056 76.175 189.036 75.663 188.156C75.151 187.276 74.447 186.592 73.551 186.104C72.663 185.608 71.655 185.36 70.527 185.36C69.295 185.36 68.215 185.596 67.287 186.068C66.359 186.54 65.635 187.208 65.115 188.072C64.595 188.936 64.335 189.96 64.335 191.144H67.695C67.679 190.664 67.787 190.22 68.019 189.812C68.251 189.396 68.575 189.064 68.991 188.816C69.415 188.56 69.903 188.432 70.455 188.432C71.247 188.432 71.879 188.692 72.351 189.212C72.831 189.724 73.071 190.376 73.071 191.168C73.071 191.536 72.959 191.932 72.735 192.356C72.511 192.78 72.127 193.232 71.583 193.712L64.335 200.144V202.976ZM78.8194 206.24C79.9234 206.416 80.7434 206.208 81.2794 205.616C81.8154 205.024 82.0834 204.152 82.0834 203V199.736H78.8194V203H80.4994C80.5874 203.576 80.5034 204.044 80.2474 204.404C79.9994 204.764 79.5874 204.92 79.0114 204.872L78.8194 206.24ZM87.2771 203H90.8051L96.5891 188.792V185.72H85.6931V188.792H93.0851L87.2771 203ZM104.268 203.312C105.356 203.312 106.356 203.06 107.268 202.556C108.18 202.044 108.912 201.356 109.464 200.492C110.016 199.62 110.292 198.64 110.292 197.552C110.292 196.744 110.144 195.98 109.848 195.26C109.56 194.532 109.132 193.9 108.564 193.364C107.996 192.82 107.3 192.428 106.476 192.188L109.98 188.792V185.72H99.1798V188.792H106.116L101.46 192.656L102.924 195.224C103.356 194.968 103.804 194.84 104.268 194.84C105.06 194.84 105.708 195.108 106.212 195.644C106.724 196.172 106.98 196.808 106.98 197.552C106.98 198.048 106.856 198.5 106.608 198.908C106.368 199.316 106.04 199.64 105.624 199.88C105.216 200.12 104.764 200.24 104.268 200.24C103.692 200.24 103.156 200.068 102.66 199.724C102.172 199.372 101.844 198.88 101.676 198.248L98.5078 199.088C98.7558 199.944 99.1678 200.688 99.7438 201.32C100.328 201.952 101.012 202.444 101.796 202.796C102.58 203.14 103.404 203.312 104.268 203.312ZM119.191 203.36C120.279 203.36 121.279 203.104 122.191 202.592C123.103 202.072 123.835 201.376 124.387 200.504C124.939 199.624 125.215 198.64 125.215 197.552C125.215 196.464 124.979 195.496 124.507 194.648C124.043 193.8 123.395 193.132 122.563 192.644C121.739 192.156 120.783 191.912 119.695 191.912C118.503 191.912 117.439 192.268 116.503 192.98V191.504C116.503 190.976 116.627 190.48 116.875 190.016C117.131 189.544 117.487 189.164 117.943 188.876C118.407 188.58 118.951 188.432 119.575 188.432C120.407 188.432 121.127 188.736 121.735 189.344L124.064 187.016C123.431 186.424 122.735 186.004 121.975 185.756C121.215 185.508 120.415 185.384 119.575 185.384C118.279 185.384 117.151 185.652 116.191 186.188C115.231 186.716 114.487 187.476 113.959 188.468C113.431 189.452 113.167 190.624 113.167 191.984V197C113.167 198.256 113.431 199.364 113.959 200.324C114.487 201.276 115.203 202.02 116.107 202.556C117.019 203.092 118.047 203.36 119.191 203.36ZM119.191 200.24C118.695 200.24 118.243 200.116 117.835 199.868C117.427 199.62 117.103 199.292 116.863 198.884C116.623 198.476 116.503 198.032 116.503 197.552C116.503 197.056 116.623 196.604 116.863 196.196C117.111 195.78 117.439 195.452 117.847 195.212C118.263 194.964 118.719 194.84 119.215 194.84C119.711 194.84 120.163 194.964 120.571 195.212C120.979 195.452 121.303 195.78 121.543 196.196C121.783 196.604 121.903 197.056 121.903 197.552C121.903 198.048 121.779 198.5 121.531 198.908C121.291 199.316 120.963 199.64 120.547 199.88C120.139 200.12 119.687 200.24 119.191 200.24ZM128.385 203H131.649V199.736H128.385V203ZM135.422 203H138.758V185.72H135.422L132.182 187.664V191.264L135.422 189.272V203ZM148.216 203.36C149.304 203.36 150.312 203.104 151.24 202.592C152.168 202.072 152.916 201.376 153.484 200.504C154.052 199.624 154.336 198.64 154.336 197.552C154.336 196.464 154.1 195.5 153.628 194.66C153.164 193.812 152.516 193.148 151.684 192.668C150.86 192.18 149.904 191.936 148.816 191.936C148.44 191.936 148.04 191.984 147.616 192.08C147.192 192.176 146.788 192.328 146.404 192.536L146.644 188.768H153.184V185.72H143.752L143.224 194.912L145.984 195.752C146.176 195.568 146.464 195.376 146.848 195.176C147.232 194.968 147.728 194.864 148.336 194.864C148.832 194.864 149.284 194.984 149.692 195.224C150.108 195.464 150.436 195.788 150.676 196.196C150.924 196.604 151.048 197.056 151.048 197.552C151.048 198.048 150.924 198.5 150.676 198.908C150.436 199.316 150.108 199.64 149.692 199.88C149.284 200.12 148.832 200.24 148.336 200.24C147.776 200.24 147.244 200.06 146.74 199.7C146.236 199.34 145.904 198.856 145.744 198.248L142.6 199.088C142.84 199.936 143.236 200.68 143.788 201.32C144.34 201.96 144.996 202.46 145.756 202.82C146.524 203.18 147.344 203.36 148.216 203.36Z" fill="white"/>
<path d="M178.18 192.12C177.987 191.813 177.78 191.526 177.567 191.26C177.32 190.946 176.853 190.92 176.573 191.2L174.573 193.2C174.72 193.64 174.747 194.146 174.613 194.673C174.38 195.613 173.62 196.373 172.68 196.606C172.153 196.74 171.647 196.713 171.207 196.566C171.207 196.566 170.253 197.52 169.567 198.206C169.233 198.54 169.34 199.126 169.787 199.3C170.5 199.573 171.24 199.713 172 199.713C173.187 199.713 174.34 199.366 175.393 198.72C176.467 198.053 177.433 197.073 178.213 195.826C178.847 194.82 178.813 193.126 178.18 192.12Z" fill="white"/>
<path d="M173.347 192.653L170.653 195.346C170.313 195 170.093 194.52 170.093 194C170.093 192.953 170.947 192.093 172 192.093C172.52 192.093 173 192.313 173.347 192.653Z" fill="white"/>
<path d="M176.167 189.834L173.907 192.094C173.42 191.6 172.747 191.307 172 191.307C170.507 191.307 169.307 192.514 169.307 194C169.307 194.747 169.607 195.42 170.093 195.907L167.84 198.167H167.833C167.093 197.567 166.413 196.8 165.833 195.894C165.167 194.847 165.167 193.147 165.833 192.1C166.607 190.887 167.553 189.934 168.607 189.28C169.66 188.64 170.813 188.287 172 188.287C173.487 188.287 174.927 188.834 176.167 189.834Z" fill="white"/>
<path d="M173.907 194C173.907 195.047 173.053 195.907 172 195.907C171.96 195.907 171.927 195.907 171.887 195.893L173.893 193.887C173.907 193.927 173.907 193.96 173.907 194Z" fill="white"/>
<path d="M178.513 187.486C178.313 187.286 177.987 187.286 177.787 187.486L165.487 199.793C165.287 199.993 165.287 200.32 165.487 200.52C165.587 200.613 165.713 200.666 165.847 200.666C165.98 200.666 166.107 200.613 166.207 200.513L178.513 188.206C178.72 188.006 178.72 187.686 178.513 187.486Z" fill="white"/>
<circle cx="51" cy="235" r="3" fill="white"/>
<circle cx="61" cy="235" r="3" fill="white"/>
<circle cx="71" cy="235" r="3" fill="white"/>
<circle cx="81" cy="235" r="3" fill="white"/>
<path d="M104.536 241.24C105.256 241.24 105.917 241.067 106.52 240.72C107.128 240.373 107.616 239.909 107.984 239.328C108.352 238.741 108.536 238.091 108.536 237.376C108.536 236.656 108.373 236.011 108.048 235.44C107.728 234.869 107.285 234.421 106.72 234.096C106.16 233.765 105.52 233.6 104.8 233.6C104.459 233.6 104.115 233.653 103.768 233.76C103.427 233.867 103.115 234.021 102.832 234.224L103.024 231.056H107.744V229.48H101.528L101.176 235.536L102.632 236.048C102.813 235.808 103.067 235.595 103.392 235.408C103.717 235.216 104.115 235.12 104.584 235.12C104.995 235.12 105.371 235.221 105.712 235.424C106.059 235.621 106.333 235.891 106.536 236.232C106.744 236.573 106.848 236.955 106.848 237.376C106.848 237.787 106.747 238.163 106.544 238.504C106.341 238.845 106.069 239.117 105.728 239.32C105.387 239.523 105.005 239.624 104.584 239.624C104.104 239.624 103.653 239.475 103.232 239.176C102.816 238.872 102.541 238.464 102.408 237.952L100.8 238.384C100.96 238.944 101.221 239.44 101.584 239.872C101.947 240.299 102.381 240.635 102.888 240.88C103.395 241.12 103.944 241.24 104.536 241.24ZM113.672 241.216C114.392 241.216 115.043 241.053 115.624 240.728C116.205 240.403 116.667 239.955 117.008 239.384C117.349 238.808 117.52 238.155 117.52 237.424C117.52 236.8 117.397 236.229 117.152 235.712C116.912 235.195 116.565 234.771 116.112 234.44C115.664 234.104 115.128 233.893 114.504 233.808L117.352 231.072V229.48H110.424V231.072H115.304L111.784 234.184L112.568 235.504C112.925 235.312 113.288 235.216 113.656 235.216C114.296 235.216 114.813 235.424 115.208 235.84C115.608 236.256 115.808 236.784 115.808 237.424C115.808 238.059 115.611 238.584 115.216 239C114.821 239.411 114.307 239.621 113.672 239.632C113.203 239.637 112.776 239.509 112.392 239.248C112.008 238.987 111.739 238.605 111.584 238.104L109.968 238.552C110.133 239.096 110.397 239.568 110.76 239.968C111.128 240.368 111.563 240.677 112.064 240.896C112.565 241.109 113.101 241.216 113.672 241.216ZM121.612 241H123.316V229.48H121.612L119.444 230.776V232.64L121.612 231.32V241ZM130.042 241.24C130.794 241.24 131.458 241.088 132.034 240.784C132.616 240.48 133.072 240.059 133.402 239.52C133.733 238.981 133.898 238.36 133.898 237.656C133.898 237.08 133.778 236.547 133.538 236.056C133.304 235.56 132.954 235.149 132.49 234.824C133.226 234.232 133.594 233.44 133.594 232.448C133.594 231.792 133.442 231.224 133.138 230.744C132.834 230.264 132.416 229.893 131.882 229.632C131.349 229.371 130.736 229.24 130.042 229.24C129.349 229.24 128.733 229.371 128.194 229.632C127.661 229.893 127.242 230.264 126.938 230.744C126.634 231.224 126.482 231.792 126.482 232.448C126.482 233.419 126.85 234.211 127.586 234.824C127.122 235.155 126.773 235.565 126.538 236.056C126.309 236.547 126.194 237.08 126.194 237.656C126.194 238.36 126.357 238.981 126.682 239.52C127.013 240.059 127.466 240.48 128.042 240.784C128.624 241.088 129.29 241.24 130.042 241.24ZM130.042 234.048C129.514 234.048 129.085 233.915 128.754 233.648C128.424 233.381 128.258 232.981 128.258 232.448C128.258 231.909 128.424 231.507 128.754 231.24C129.085 230.968 129.514 230.832 130.042 230.832C130.57 230.832 130.997 230.968 131.322 231.24C131.653 231.507 131.818 231.909 131.818 232.448C131.818 232.981 131.653 233.381 131.322 233.648C130.997 233.915 130.57 234.048 130.042 234.048ZM130.042 239.648C129.424 239.648 128.922 239.48 128.538 239.144C128.154 238.803 127.962 238.307 127.962 237.656C127.962 237.005 128.152 236.509 128.53 236.168C128.914 235.821 129.418 235.648 130.042 235.648C130.666 235.648 131.168 235.821 131.546 236.168C131.93 236.509 132.122 237.005 132.122 237.656C132.122 238.307 131.93 238.803 131.546 239.144C131.162 239.48 130.661 239.648 130.042 239.648Z" fill="white"/>
<g clip-path="url(#clip1_115_4222)">
<path d="M301.932 136.667C307.352 136.667 311.746 132.488 311.746 127.333C311.746 122.179 307.352 118 301.932 118C296.513 118 292.119 122.179 292.119 127.333C292.119 132.488 296.513 136.667 301.932 136.667Z" fill="white" fill-opacity="0.7"/>
<path d="M315.952 136.667C321.372 136.667 325.765 132.488 325.765 127.333C325.765 122.179 321.372 118 315.952 118C310.532 118 306.138 122.179 306.138 127.333C306.138 132.488 310.532 136.667 315.952 136.667Z" fill="white" fill-opacity="0.5"/>
<path d="M325.103 142.008V142.069H325.165C325.177 142.069 325.189 142.067 325.199 142.061C325.203 142.059 325.206 142.055 325.209 142.051C325.211 142.047 325.212 142.042 325.212 142.038C325.212 142.033 325.211 142.029 325.209 142.025C325.206 142.021 325.203 142.017 325.199 142.015C325.189 142.009 325.177 142.006 325.165 142.007H325.103V142.008ZM325.166 141.964C325.193 141.962 325.22 141.969 325.241 141.984C325.25 141.99 325.257 141.999 325.262 142.008C325.266 142.018 325.268 142.028 325.268 142.039C325.268 142.047 325.266 142.056 325.263 142.065C325.259 142.073 325.254 142.08 325.247 142.086C325.23 142.1 325.209 142.108 325.186 142.109L325.27 142.197H325.206L325.128 142.11H325.103V142.197H325.049V141.964H325.167L325.166 141.964ZM325.149 142.278C325.178 142.278 325.206 142.273 325.232 142.262C325.257 142.253 325.28 142.238 325.299 142.221C325.318 142.203 325.334 142.182 325.345 142.159C325.367 142.11 325.367 142.055 325.345 142.006C325.334 141.983 325.318 141.962 325.299 141.945C325.28 141.927 325.257 141.913 325.232 141.903C325.206 141.893 325.177 141.888 325.149 141.888C325.12 141.888 325.092 141.893 325.065 141.903C325.039 141.913 325.016 141.927 324.996 141.945C324.966 141.973 324.946 142.008 324.938 142.046C324.93 142.085 324.935 142.124 324.951 142.161C324.962 142.184 324.977 142.205 324.996 142.222C325.016 142.24 325.039 142.254 325.065 142.264C325.092 142.274 325.12 142.28 325.149 142.279V142.278ZM325.149 141.832C325.223 141.832 325.294 141.859 325.347 141.906C325.372 141.929 325.392 141.956 325.406 141.986C325.421 142.017 325.428 142.05 325.428 142.084C325.428 142.117 325.421 142.151 325.406 142.181C325.392 142.211 325.372 142.238 325.347 142.261C325.321 142.284 325.291 142.302 325.258 142.315C325.224 142.329 325.187 142.336 325.149 142.335C325.111 142.336 325.074 142.329 325.039 142.315C325.006 142.303 324.975 142.284 324.949 142.261C324.924 142.238 324.904 142.209 324.891 142.179C324.876 142.148 324.869 142.115 324.869 142.081C324.869 142.048 324.876 142.014 324.891 141.984C324.905 141.954 324.925 141.926 324.95 141.904C324.976 141.88 325.006 141.862 325.04 141.85C325.075 141.836 325.112 141.829 325.15 141.83L325.149 141.832ZM299.39 140.931C299.39 140.486 299.707 140.12 300.227 140.12C300.724 140.12 301.059 140.47 301.059 140.931C301.059 141.392 300.724 141.741 300.227 141.741C299.707 141.741 299.39 141.376 299.39 140.931ZM301.625 140.931V139.665H301.025V139.973C300.834 139.745 300.545 139.602 300.152 139.602C299.379 139.602 298.771 140.159 298.771 140.932C298.771 141.704 299.378 142.261 300.152 142.261C300.545 142.261 300.834 142.118 301.025 141.89V142.197H301.624V140.931H301.625ZM321.912 140.931C321.912 140.486 322.23 140.12 322.75 140.12C323.247 140.12 323.582 140.47 323.582 140.931C323.582 141.392 323.247 141.741 322.75 141.741C322.23 141.741 321.912 141.376 321.912 140.931ZM324.149 140.931V138.648H323.548V139.973C323.357 139.745 323.068 139.602 322.675 139.602C321.902 139.602 321.294 140.159 321.294 140.932C321.294 141.704 321.901 142.261 322.675 142.261C323.068 142.261 323.357 142.118 323.548 141.89V142.197H324.149V140.931ZM309.077 140.094C309.464 140.094 309.712 140.317 309.776 140.708H308.343C308.407 140.343 308.649 140.094 309.077 140.094H309.077ZM309.089 139.601C308.28 139.601 307.714 140.141 307.714 140.93C307.714 141.735 308.303 142.26 309.129 142.26C309.545 142.26 309.926 142.164 310.261 141.905L309.967 141.497C309.735 141.666 309.441 141.762 309.164 141.762C308.777 141.762 308.424 141.597 308.338 141.142H310.388C310.394 141.073 310.4 141.004 310.4 140.93C310.394 140.141 309.862 139.601 309.089 139.601L309.089 139.601ZM316.338 140.93C316.338 140.485 316.656 140.119 317.175 140.119C317.672 140.119 318.007 140.469 318.007 140.93C318.007 141.391 317.672 141.741 317.175 141.741C316.656 141.741 316.338 141.375 316.338 140.93H316.338ZM318.573 140.93V139.665H317.973V139.973C317.782 139.745 317.494 139.602 317.101 139.602C316.327 139.602 315.72 140.159 315.72 140.932C315.72 141.704 316.327 142.261 317.101 142.261C317.494 142.261 317.782 142.118 317.973 141.89V142.197H318.573V140.931L318.573 140.93ZM312.947 140.93C312.947 141.698 313.53 142.259 314.42 142.259C314.836 142.259 315.113 142.175 315.413 141.958L315.124 141.513C314.899 141.661 314.662 141.741 314.401 141.741C313.922 141.735 313.569 141.417 313.569 140.93C313.569 140.443 313.922 140.125 314.401 140.119C314.662 140.119 314.898 140.199 315.124 140.347L315.413 139.902C315.113 139.685 314.836 139.601 314.42 139.601C313.53 139.601 312.947 140.162 312.947 140.93ZM320.687 139.601C320.341 139.601 320.115 139.749 319.96 139.972V139.665H319.365V142.196H319.966V140.777C319.966 140.358 320.162 140.125 320.554 140.125C320.683 140.124 320.811 140.145 320.93 140.189L321.115 139.67C320.982 139.622 320.809 139.601 320.687 139.601L320.687 139.601ZM304.593 139.866C304.305 139.691 303.907 139.601 303.467 139.601C302.768 139.601 302.318 139.908 302.318 140.411C302.318 140.824 302.653 141.079 303.27 141.158L303.554 141.195C303.883 141.238 304.039 141.317 304.039 141.46C304.039 141.656 303.82 141.768 303.409 141.768C302.993 141.768 302.693 141.646 302.491 141.503L302.209 141.932C302.538 142.154 302.954 142.26 303.404 142.26C304.202 142.26 304.664 141.916 304.664 141.434C304.664 140.989 304.3 140.756 303.699 140.677L303.416 140.639C303.156 140.609 302.948 140.561 302.948 140.391C302.948 140.206 303.144 140.094 303.474 140.094C303.826 140.094 304.167 140.216 304.335 140.312L304.594 139.867L304.593 139.866ZM312.341 139.602C311.994 139.602 311.769 139.75 311.613 139.972V139.665H311.018V142.196H311.619V140.777C311.619 140.358 311.815 140.125 312.208 140.125C312.336 140.124 312.464 140.145 312.583 140.189L312.768 139.67C312.635 139.622 312.462 139.601 312.34 139.601L312.341 139.602ZM307.217 139.665H306.235V138.897H305.628V139.665H305.068V140.168H305.628V141.323C305.628 141.91 305.877 142.26 306.587 142.26C306.848 142.26 307.148 142.186 307.338 142.064L307.165 141.593C306.986 141.688 306.789 141.736 306.633 141.736C306.333 141.736 306.235 141.566 306.235 141.312V140.168H307.217V139.665ZM298.24 142.197V140.608C298.24 140.01 297.824 139.607 297.154 139.602C296.802 139.596 296.438 139.697 296.184 140.052C295.993 139.771 295.693 139.602 295.271 139.602C294.976 139.602 294.688 139.681 294.462 139.978V139.665H293.861V142.196H294.467V140.792C294.467 140.353 294.733 140.119 295.143 140.119C295.542 140.119 295.744 140.358 295.744 140.787V142.196H296.351V140.792C296.351 140.353 296.628 140.119 297.026 140.119C297.436 140.119 297.632 140.357 297.632 140.787V142.195L298.24 142.197Z" fill="white"/>
</g>
<defs>
<filter id="filter0_d_115_4222" x="-22" y="0" width="419" height="272" filterUnits="userSpaceOnUse" color-interpolation-filters="sRGB">
<feFlood flood-opacity="0" result="BackgroundImageFix"/>
<feColorMatrix in="SourceAlpha" type="matrix" values="0 0 0 0 0 0 0 0 0 0 0 0 0 0 0 0 0 0 127 0" result="hardAlpha"/>
<feOffset dy="20"/>
<feGaussianBlur stdDeviation="23"/>
<feColorMatrix type="matrix" values="0 0 0 0 0.0470588 0 0 0 0 0.12549 0 0 0 0 0.45098 0 0 0 0.1 0"/>
<feBlend mode="normal" in2="BackgroundImageFix" result="effect1_dropShadow_115_4222"/>
<feBlend mode="normal" in="SourceGraphic" in2="effect1_dropShadow_115_4222" result="shape"/>
</filter>
<filter id="filter1_b_115_4222" x="-21.7717" y="-2" width="425.904" height="186" filterUnits="userSpaceOnUse" color-interpolation-filters="sRGB">
<feFlood flood-opacity="0" result="BackgroundImageFix"/>
<feGaussianBlur in="BackgroundImage" stdDeviation="15"/>
<feComposite in2="SourceAlpha" operator="in" result="effect1_backgroundBlur_115_4222"/>
<feBlend mode="normal" in="SourceGraphic" in2="effect1_backgroundBlur_115_4222" result="shape"/>
</filter>
<clipPath id="clip0_115_4222">
<rect width="32" height="24" fill="white" transform="translate(295 154)"/>
</clipPath>
<clipPath id="clip1_115_4222">
<rect width="33.6463" height="32" fill="white" transform="translate(292.119 114)"/>
</clipPath>
</defs>
</svg>
