<svg width="127" height="40" viewBox="0 0 127 40" fill="none" xmlns="http://www.w3.org/2000/svg">
<path d="M0.288281 30V1.2H17.8883V6.64H5.72828V12.88H15.4883V18.32H5.72828V30H0.288281ZM21.8992 5.4V0.599999H27.3392V5.4H21.8992ZM21.8992 30V8.4H27.3392V30H21.8992ZM48.0552 30V19.8C48.0552 19.3067 48.0285 18.68 47.9752 17.92C47.9218 17.1467 47.7552 16.3733 47.4752 15.6C47.1952 14.8267 46.7352 14.18 46.0952 13.66C45.4685 13.14 44.5752 12.88 43.4152 12.88C42.9485 12.88 42.4485 12.9533 41.9152 13.1C41.3818 13.2467 40.8818 13.5333 40.4152 13.96C39.9485 14.3733 39.5618 14.9867 39.2552 15.8C38.9618 16.6133 38.8152 17.6933 38.8152 19.04L35.6952 17.56C35.6952 15.8533 36.0418 14.2533 36.7352 12.76C37.4285 11.2667 38.4685 10.06 39.8552 9.14C41.2552 8.22 43.0152 7.76 45.1352 7.76C46.8285 7.76 48.2085 8.04667 49.2752 8.62C50.3418 9.19333 51.1685 9.92 51.7552 10.8C52.3552 11.68 52.7818 12.6 53.0352 13.56C53.2885 14.5067 53.4418 15.3733 53.4952 16.16C53.5485 16.9467 53.5752 17.52 53.5752 17.88V30H48.0552ZM33.2952 30V8.4H38.1352V15.56H38.8152V30H33.2952ZM58.7648 30V1.2H70.9248C71.2048 1.2 71.5782 1.21333 72.0448 1.24C72.5248 1.25333 72.9515 1.29333 73.3248 1.36C75.0448 1.62667 76.4515 2.19333 77.5448 3.06C78.6515 3.92666 79.4648 5.02 79.9848 6.34C80.5048 7.64667 80.7648 9.10667 80.7648 10.72C80.7648 12.3333 80.4982 13.8 79.9648 15.12C79.4448 16.4267 78.6315 17.5133 77.5248 18.38C76.4315 19.2467 75.0315 19.8133 73.3248 20.08C72.9515 20.1333 72.5248 20.1733 72.0448 20.2C71.5648 20.2267 71.1915 20.24 70.9248 20.24H64.2048V30H58.7648ZM64.2048 15.16H70.6848C70.9648 15.16 71.2715 15.1467 71.6048 15.12C71.9382 15.0933 72.2448 15.04 72.5248 14.96C73.2582 14.76 73.8248 14.4267 74.2248 13.96C74.6248 13.48 74.8982 12.9533 75.0448 12.38C75.2048 11.7933 75.2848 11.24 75.2848 10.72C75.2848 10.2 75.2048 9.65333 75.0448 9.08C74.8982 8.49333 74.6248 7.96667 74.2248 7.5C73.8248 7.02 73.2582 6.68 72.5248 6.48C72.2448 6.4 71.9382 6.34667 71.6048 6.32C71.2715 6.29333 70.9648 6.28 70.6848 6.28H64.2048V15.16ZM90.3898 30.6C88.8432 30.6 87.5298 30.3067 86.4498 29.72C85.3832 29.12 84.5698 28.3267 84.0098 27.34C83.4632 26.34 83.1898 25.24 83.1898 24.04C83.1898 23.04 83.3432 22.1267 83.6498 21.3C83.9565 20.4733 84.4498 19.7467 85.1298 19.12C85.8232 18.48 86.7498 17.9467 87.9098 17.52C88.7098 17.2267 89.6632 16.9667 90.7698 16.74C91.8765 16.5133 93.1298 16.3 94.5298 16.1C95.9298 15.8867 97.4698 15.6533 99.1498 15.4L97.1898 16.48C97.1898 15.2 96.8832 14.26 96.2698 13.66C95.6565 13.06 94.6298 12.76 93.1898 12.76C92.3898 12.76 91.5565 12.9533 90.6898 13.34C89.8232 13.7267 89.2165 14.4133 88.8698 15.4L83.9498 13.84C84.4965 12.0533 85.5232 10.6 87.0298 9.48C88.5365 8.36 90.5898 7.8 93.1898 7.8C95.0965 7.8 96.7898 8.09333 98.2698 8.68C99.7498 9.26666 100.87 10.28 101.63 11.72C102.057 12.52 102.31 13.32 102.39 14.12C102.47 14.92 102.51 15.8133 102.51 16.8V30H97.7498V25.56L98.4298 26.48C97.3765 27.9333 96.2365 28.9867 95.0098 29.64C93.7965 30.28 92.2565 30.6 90.3898 30.6ZM91.5498 26.32C92.5498 26.32 93.3898 26.1467 94.0698 25.8C94.7632 25.44 95.3098 25.0333 95.7098 24.58C96.1232 24.1267 96.4032 23.7467 96.5498 23.44C96.8298 22.8533 96.9898 22.1733 97.0298 21.4C97.0832 20.6133 97.1098 19.96 97.1098 19.44L98.7098 19.84C97.0965 20.1067 95.7898 20.3333 94.7898 20.52C93.7898 20.6933 92.9832 20.8533 92.3698 21C91.7565 21.1467 91.2165 21.3067 90.7498 21.48C90.2165 21.6933 89.7832 21.9267 89.4498 22.18C89.1298 22.42 88.8898 22.6867 88.7298 22.98C88.5832 23.2733 88.5098 23.6 88.5098 23.96C88.5098 24.4533 88.6298 24.88 88.8698 25.24C89.1232 25.5867 89.4765 25.8533 89.9298 26.04C90.3832 26.2267 90.9232 26.32 91.5498 26.32ZM109.259 39.6L113.419 28.16L113.499 31.52L104.099 8.4H109.739L116.059 24.76H114.779L121.059 8.4H126.499L114.299 39.6H109.259Z" fill="white"/>
<path d="M0.288281 30H-0.211719V30.5H0.288281V30ZM0.288281 1.2V0.699999H-0.211719V1.2H0.288281ZM17.8883 1.2H18.3883V0.699999H17.8883V1.2ZM17.8883 6.64V7.14H18.3883V6.64H17.8883ZM5.72828 6.64V6.14H5.22828V6.64H5.72828ZM5.72828 12.88H5.22828V13.38H5.72828V12.88ZM15.4883 12.88H15.9883V12.38H15.4883V12.88ZM15.4883 18.32V18.82H15.9883V18.32H15.4883ZM5.72828 18.32V17.82H5.22828V18.32H5.72828ZM5.72828 30V30.5H6.22828V30H5.72828ZM0.788281 30V1.2H-0.211719V30H0.788281ZM0.288281 1.7H17.8883V0.699999H0.288281V1.7ZM17.3883 1.2V6.64H18.3883V1.2H17.3883ZM17.8883 6.14H5.72828V7.14H17.8883V6.14ZM5.22828 6.64V12.88H6.22828V6.64H5.22828ZM5.72828 13.38H15.4883V12.38H5.72828V13.38ZM14.9883 12.88V18.32H15.9883V12.88H14.9883ZM15.4883 17.82H5.72828V18.82H15.4883V17.82ZM5.22828 18.32V30H6.22828V18.32H5.22828ZM5.72828 29.5H0.288281V30.5H5.72828V29.5ZM21.8992 5.4H21.3992V5.9H21.8992V5.4ZM21.8992 0.599999V0.0999994H21.3992V0.599999H21.8992ZM27.3392 0.599999H27.8392V0.0999994H27.3392V0.599999ZM27.3392 5.4V5.9H27.8392V5.4H27.3392ZM21.8992 30H21.3992V30.5H21.8992V30ZM21.8992 8.4V7.9H21.3992V8.4H21.8992ZM27.3392 8.4H27.8392V7.9H27.3392V8.4ZM27.3392 30V30.5H27.8392V30H27.3392ZM22.3992 5.4V0.599999H21.3992V5.4H22.3992ZM21.8992 1.1H27.3392V0.0999994H21.8992V1.1ZM26.8392 0.599999V5.4H27.8392V0.599999H26.8392ZM27.3392 4.9H21.8992V5.9H27.3392V4.9ZM22.3992 30V8.4H21.3992V30H22.3992ZM21.8992 8.9H27.3392V7.9H21.8992V8.9ZM26.8392 8.4V30H27.8392V8.4H26.8392ZM27.3392 29.5H21.8992V30.5H27.3392V29.5ZM48.0552 30H47.5552V30.5H48.0552V30ZM47.9752 17.92L47.4763 17.9544L47.4764 17.955L47.9752 17.92ZM47.4752 15.6L47.9453 15.4298L47.4752 15.6ZM46.0952 13.66L45.7759 14.0448L45.7799 14.0481L46.0952 13.66ZM41.9152 13.1L42.0477 13.5821L41.9152 13.1ZM40.4152 13.96L40.7467 14.3343L40.7525 14.329L40.4152 13.96ZM39.2552 15.8L38.7873 15.6236L38.7848 15.6304L39.2552 15.8ZM38.8152 19.04L38.6009 19.4918L39.3152 19.8306V19.04H38.8152ZM35.6952 17.56H35.1952V17.8762L35.4809 18.0117L35.6952 17.56ZM36.7352 12.76L36.2817 12.5494L36.7352 12.76ZM39.8552 9.14L39.5806 8.72214L39.5787 8.72336L39.8552 9.14ZM49.2752 8.62L49.0384 9.06041L49.0384 9.06041L49.2752 8.62ZM51.7552 10.8L51.3391 11.0774L51.342 11.0817L51.7552 10.8ZM53.0352 13.56L52.5517 13.6876L52.5522 13.6893L53.0352 13.56ZM53.4952 16.16L52.9963 16.1938V16.1938L53.4952 16.16ZM53.5752 30V30.5H54.0752V30H53.5752ZM33.2952 30H32.7952V30.5H33.2952V30ZM33.2952 8.4V7.9H32.7952V8.4H33.2952ZM38.1352 8.4H38.6352V7.9H38.1352V8.4ZM38.1352 15.56H37.6352V16.06H38.1352V15.56ZM38.8152 15.56H39.3152V15.06H38.8152V15.56ZM38.8152 30V30.5H39.3152V30H38.8152ZM48.5552 30V19.8H47.5552V30H48.5552ZM48.5552 19.8C48.5552 19.2905 48.5277 18.6511 48.4739 17.885L47.4764 17.955C47.5293 18.7089 47.5552 19.3228 47.5552 19.8H48.5552ZM48.474 17.8856C48.4173 17.0631 48.2402 16.2442 47.9453 15.4298L47.005 15.7702C47.2702 16.5025 47.4264 17.2302 47.4763 17.9544L48.474 17.8856ZM47.9453 15.4298C47.6343 14.5709 47.1207 13.849 46.4105 13.2719L45.7799 14.0481C46.3496 14.511 46.756 15.0824 47.005 15.7702L47.9453 15.4298ZM46.4144 13.2752C45.6667 12.6547 44.6432 12.38 43.4152 12.38V13.38C44.5071 13.38 45.2703 13.6253 45.7759 14.0448L46.4144 13.2752ZM43.4152 12.38C42.8963 12.38 42.3514 12.4615 41.7826 12.6179L42.0477 13.5821C42.5456 13.4452 43.0007 13.38 43.4152 13.38V12.38ZM41.7826 12.6179C41.1627 12.7884 40.5944 13.1186 40.0778 13.591L40.7525 14.329C41.1692 13.948 41.6009 13.705 42.0477 13.5821L41.7826 12.6179ZM40.0836 13.5857C39.5369 14.07 39.112 14.7625 38.7873 15.6236L39.723 15.9764C40.0117 15.2108 40.3601 14.6767 40.7467 14.3343L40.0836 13.5857ZM38.7848 15.6304C38.4641 16.5197 38.3152 17.6641 38.3152 19.04H39.3152C39.3152 17.7226 39.4596 16.707 39.7255 15.9696L38.7848 15.6304ZM39.0294 18.5882L35.9095 17.1082L35.4809 18.0117L38.6009 19.4918L39.0294 18.5882ZM36.1952 17.56C36.1952 15.9233 36.5271 14.3955 37.1887 12.9706L36.2817 12.5494C35.5566 14.1112 35.1952 15.7833 35.1952 17.56H36.1952ZM37.1887 12.9706C37.8427 11.5619 38.821 10.4262 40.1316 9.55664L39.5787 8.72336C38.116 9.69381 37.0143 10.9714 36.2817 12.5494L37.1887 12.9706ZM40.1297 9.55785C41.429 8.70405 43.0869 8.26 45.1352 8.26V7.26C42.9434 7.26 41.0813 7.73595 39.5806 8.72215L40.1297 9.55785ZM45.1352 8.26C46.777 8.26 48.0677 8.53866 49.0384 9.06041L49.5119 8.17959C48.3492 7.55467 46.88 7.26 45.1352 7.26V8.26ZM49.0384 9.06041C50.0434 9.6006 50.8042 10.2749 51.3391 11.0773L52.1712 10.5226C51.5328 9.56509 50.6402 8.78607 49.5119 8.17959L49.0384 9.06041ZM51.342 11.0817C51.9123 11.9181 52.3139 12.7864 52.5517 13.6876L53.5186 13.4324C53.2497 12.4136 52.798 11.4419 52.1683 10.5183L51.342 11.0817ZM52.5522 13.6893C52.799 14.6119 52.9456 15.4461 52.9963 16.1938L53.994 16.1262C53.938 15.3006 53.7779 14.4015 53.5182 13.4307L52.5522 13.6893ZM52.9963 16.1938C53.0495 16.9792 53.0752 17.5381 53.0752 17.88H54.0752C54.0752 17.5019 54.0474 16.9141 53.994 16.1262L52.9963 16.1938ZM53.0752 17.88V30H54.0752V17.88H53.0752ZM53.5752 29.5H48.0552V30.5H53.5752V29.5ZM33.7952 30V8.4H32.7952V30H33.7952ZM33.2952 8.9H38.1352V7.9H33.2952V8.9ZM37.6352 8.4V15.56H38.6352V8.4H37.6352ZM38.1352 16.06H38.8152V15.06H38.1352V16.06ZM38.3152 15.56V30H39.3152V15.56H38.3152ZM38.8152 29.5H33.2952V30.5H38.8152V29.5ZM58.7648 30H58.2648V30.5H58.7648V30ZM58.7648 1.2V0.699999H58.2648V1.2H58.7648ZM72.0448 1.24L72.0163 1.73918L72.0236 1.7396L72.031 1.73981L72.0448 1.24ZM73.3248 1.36L73.2369 1.85234L73.2482 1.8541L73.3248 1.36ZM77.5448 3.06L77.2342 3.45183L77.2366 3.45365L77.5448 3.06ZM79.9848 6.34L79.5196 6.52326L79.5203 6.52488L79.9848 6.34ZM79.9648 15.12L79.5013 14.9327L79.5003 14.9351L79.9648 15.12ZM77.5248 18.38L77.2166 17.9863L77.2142 17.9882L77.5248 18.38ZM73.3248 20.08L73.3956 20.575L73.402 20.574L73.3248 20.08ZM72.0448 20.2L72.0726 20.6992L72.0448 20.2ZM64.2048 20.24V19.74H63.7048V20.24H64.2048ZM64.2048 30V30.5H64.7048V30H64.2048ZM64.2048 15.16H63.7048V15.66H64.2048V15.16ZM71.6048 15.12L71.6447 15.6184L71.6447 15.6184L71.6048 15.12ZM72.5248 14.96L72.3933 14.4776L72.3875 14.4792L72.5248 14.96ZM74.2248 13.96L74.6045 14.2854L74.609 14.2801L74.2248 13.96ZM75.0448 12.38L74.5624 12.2484L74.5604 12.2561L75.0448 12.38ZM75.0448 9.08L74.5596 9.20131L74.5632 9.2144L75.0448 9.08ZM74.2248 7.5L73.8407 7.82012L73.8452 7.8254L74.2248 7.5ZM72.5248 6.48L72.3875 6.9608L72.3933 6.96238L72.5248 6.48ZM71.6048 6.32L71.565 6.81841L71.6048 6.32ZM64.2048 6.28V5.78H63.7048V6.28H64.2048ZM59.2648 30V1.2H58.2648V30H59.2648ZM58.7648 1.7H70.9248V0.699999H58.7648V1.7ZM70.9248 1.7C71.1912 1.7 71.5538 1.71275 72.0163 1.73918L72.0734 0.740813C71.6026 0.71391 71.2185 0.699999 70.9248 0.699999V1.7ZM72.031 1.73981C72.4923 1.75262 72.8935 1.79088 73.2369 1.85221L73.4127 0.867785C73.0095 0.795784 72.5574 0.754043 72.0587 0.740191L72.031 1.73981ZM73.2482 1.8541C74.9036 2.11074 76.2236 2.6507 77.2342 3.45183L77.8554 2.66817C76.6794 1.73596 75.1861 1.14259 73.4015 0.865902L73.2482 1.8541ZM77.2366 3.45365C78.2724 4.26488 79.032 5.2853 79.5196 6.52326L80.4501 6.15674C79.8977 4.7547 79.0306 3.58845 77.8531 2.66635L77.2366 3.45365ZM79.5203 6.52488C80.0137 7.76471 80.2648 9.16076 80.2648 10.72H81.2648C81.2648 9.05258 80.996 7.52862 80.4494 6.15512L79.5203 6.52488ZM80.2648 10.72C80.2648 12.2776 80.0075 13.6796 79.5013 14.9327L80.4284 15.3073C80.9888 13.9204 81.2648 12.389 81.2648 10.72H80.2648ZM79.5003 14.9351C79.013 16.1596 78.2535 17.1742 77.2166 17.9863L77.8331 18.7737C79.0095 17.8524 79.8767 16.6937 80.4294 15.3049L79.5003 14.9351ZM77.2142 17.9882C76.2029 18.7898 74.8891 19.3295 73.2477 19.586L73.402 20.574C75.1739 20.2971 76.6601 19.7035 77.8354 18.7718L77.2142 17.9882ZM73.2541 19.585C72.8983 19.6359 72.4864 19.6747 72.0171 19.7008L72.0726 20.6992C72.5633 20.672 73.0047 20.6308 73.3956 20.575L73.2541 19.585ZM72.0171 19.7008C71.5403 19.7273 71.1777 19.74 70.9248 19.74V20.74C71.2053 20.74 71.5894 20.7261 72.0726 20.6992L72.0171 19.7008ZM70.9248 19.74H64.2048V20.74H70.9248V19.74ZM63.7048 20.24V30H64.7048V20.24H63.7048ZM64.2048 29.5H58.7648V30.5H64.2048V29.5ZM64.2048 15.66H70.6848V14.66H64.2048V15.66ZM70.6848 15.66C70.9804 15.66 71.3006 15.6459 71.6447 15.6184L71.565 14.6216C71.2424 14.6474 70.9493 14.66 70.6848 14.66V15.66ZM71.6447 15.6184C72.0063 15.5895 72.3461 15.5311 72.6622 15.4408L72.3875 14.4792C72.1436 14.5489 71.8701 14.5972 71.565 14.6216L71.6447 15.6184ZM72.6564 15.4424C73.4633 15.2223 74.1254 14.8443 74.6045 14.2854L73.8452 13.6346C73.5243 14.009 73.0531 14.2977 72.3933 14.4776L72.6564 15.4424ZM74.609 14.2801C75.0538 13.7462 75.3631 13.1533 75.5292 12.5039L74.5604 12.2561C74.4332 12.7534 74.1959 13.2138 73.8407 13.6399L74.609 14.2801ZM75.5272 12.5116C75.697 11.8891 75.7848 11.2912 75.7848 10.72H74.7848C74.7848 11.1888 74.7127 11.6976 74.5625 12.2484L75.5272 12.5116ZM75.7848 10.72C75.7848 10.1486 75.6969 9.5565 75.5264 8.9456L74.5632 9.2144C74.7128 9.75016 74.7848 10.2514 74.7848 10.72H75.7848ZM75.5299 8.95873C75.3641 8.29549 75.0541 7.6992 74.6045 7.1746L73.8452 7.8254C74.1956 8.23413 74.4323 8.69118 74.5598 9.20127L75.5299 8.95873ZM74.609 7.17991C74.1303 6.60553 73.4668 6.21864 72.6564 5.99762L72.3933 6.96238C73.0495 7.14136 73.5194 7.43447 73.8407 7.82009L74.609 7.17991ZM72.6622 5.99924C72.3461 5.90892 72.0063 5.85052 71.6447 5.82159L71.565 6.81841C71.8701 6.84281 72.1436 6.89108 72.3875 6.96076L72.6622 5.99924ZM71.6447 5.82159C71.3006 5.79406 70.9804 5.78 70.6848 5.78V6.78C70.9493 6.78 71.2424 6.7926 71.565 6.81841L71.6447 5.82159ZM70.6848 5.78H64.2048V6.78H70.6848V5.78ZM63.7048 6.28V15.16H64.7048V6.28H63.7048ZM86.4498 29.72L86.2047 30.1558L86.2112 30.1594L86.4498 29.72ZM84.0098 27.34L83.5711 27.5799L83.575 27.5868L84.0098 27.34ZM83.6498 21.3L83.1811 21.1261L83.6498 21.3ZM85.1298 19.12L85.4687 19.4877L85.469 19.4874L85.1298 19.12ZM87.9098 17.52L87.7377 17.0506L87.7372 17.0507L87.9098 17.52ZM90.7698 16.74L90.6695 16.2502L90.7698 16.74ZM94.5298 16.1L94.6006 16.595L94.6052 16.5943L94.5298 16.1ZM99.1498 15.4L99.3911 15.8379L99.0753 14.9056L99.1498 15.4ZM97.1898 16.48H96.6898V17.3264L97.4311 16.9179L97.1898 16.48ZM90.6898 13.34L90.4861 12.8834L90.6898 13.34ZM88.8698 15.4L88.7187 15.8766L89.1809 16.0231L89.3416 15.5657L88.8698 15.4ZM83.9498 13.84L83.4717 13.6937L83.3269 14.167L83.7987 14.3166L83.9498 13.84ZM87.0298 9.48L86.7316 9.07872L87.0298 9.48ZM98.2698 8.68L98.4541 8.21518L98.2698 8.68ZM101.63 11.72L101.188 11.9534L101.189 11.9553L101.63 11.72ZM102.39 14.12L102.887 14.0702L102.39 14.12ZM102.51 30V30.5H103.01V30H102.51ZM97.7498 30H97.2498V30.5H97.7498V30ZM97.7498 25.56L98.1519 25.2628L97.2498 24.0423V25.56H97.7498ZM98.4298 26.48L98.8347 26.7734L99.0495 26.4771L98.8319 26.1828L98.4298 26.48ZM95.0098 29.64L95.2431 30.0823L95.2449 30.0813L95.0098 29.64ZM94.0698 25.8L94.2969 26.2455L94.3003 26.2437L94.0698 25.8ZM95.7098 24.58L95.3403 24.2431L95.3349 24.2492L95.7098 24.58ZM96.5498 23.44L97.0009 23.6557L97.0011 23.6554L96.5498 23.44ZM97.0298 21.4L96.5309 21.3662L96.5305 21.3742L97.0298 21.4ZM97.1098 19.44L97.2311 18.9549L96.6098 18.7996V19.44H97.1098ZM98.7098 19.84L98.7914 20.3333L98.8311 19.3549L98.7098 19.84ZM94.7898 20.52L94.8752 21.0127L94.8816 21.0115L94.7898 20.52ZM90.7498 21.48L90.5757 21.0111L90.5641 21.0158L90.7498 21.48ZM89.4498 22.18L89.7498 22.58L89.7524 22.5781L89.4498 22.18ZM88.7298 22.98L88.2909 22.7406L88.2866 22.7484L88.2826 22.7564L88.7298 22.98ZM88.8698 25.24L88.4538 25.5173L88.4598 25.5263L88.4661 25.535L88.8698 25.24ZM90.3898 30.1C88.9054 30.1 87.6787 29.8185 86.6885 29.2806L86.2112 30.1594C87.381 30.7948 88.7809 31.1 90.3898 31.1V30.1ZM86.695 29.2842C85.7011 28.7251 84.9563 27.9946 84.4447 27.0932L83.575 27.5868C84.1834 28.6588 85.0653 29.5149 86.2047 30.1558L86.695 29.2842ZM84.4486 27.1002C83.9443 26.1776 83.6898 25.1608 83.6898 24.04H82.6898C82.6898 25.3192 82.9821 26.5024 83.5711 27.5798L84.4486 27.1002ZM83.6898 24.04C83.6898 23.0915 83.8352 22.238 84.1186 21.4739L83.1811 21.1261C82.8512 22.0154 82.6898 22.9885 82.6898 24.04H83.6898ZM84.1186 21.4739C84.3965 20.7248 84.8438 20.0636 85.4687 19.4877L84.791 18.7523C84.0559 19.4297 83.5165 20.2219 83.1811 21.1261L84.1186 21.4739ZM85.469 19.4874C86.1016 18.9035 86.9659 18.3999 88.0824 17.9893L87.7372 17.0507C86.5337 17.4934 85.5448 18.0565 84.7907 18.7526L85.469 19.4874ZM88.082 17.9894C88.8525 17.7069 89.7806 17.453 90.8702 17.2298L90.6695 16.2502C89.5458 16.4803 88.5672 16.7464 87.7377 17.0506L88.082 17.9894ZM90.8702 17.2298C91.9649 17.0056 93.2081 16.7939 94.6006 16.595L94.4591 15.605C93.0516 15.8061 91.7881 16.0211 90.6695 16.2502L90.8702 17.2298ZM94.6052 16.5943C96.0049 16.381 97.5446 16.1477 99.2244 15.8944L99.0753 14.9056C97.3951 15.159 95.8548 15.3923 94.4545 15.6057L94.6052 16.5943ZM98.9085 14.9621L96.9485 16.0421L97.4311 16.9179L99.3911 15.8379L98.9085 14.9621ZM97.6898 16.48C97.6898 15.1312 97.3675 14.0344 96.6195 13.3026L95.9202 14.0174C96.3988 14.4856 96.6898 15.2688 96.6898 16.48H97.6898ZM96.6195 13.3026C95.8665 12.566 94.6772 12.26 93.1898 12.26V13.26C94.5824 13.26 95.4465 13.554 95.9202 14.0174L96.6195 13.3026ZM93.1898 12.26C92.3078 12.26 91.4051 12.4734 90.4861 12.8834L90.8936 13.7966C91.7079 13.4333 92.4719 13.26 93.1898 13.26V12.26ZM90.4861 12.8834C89.4804 13.3321 88.7852 14.1326 88.3981 15.2343L89.3416 15.5657C89.6478 14.6941 90.1659 14.1213 90.8936 13.7966L90.4861 12.8834ZM89.021 14.9234L84.101 13.3634L83.7987 14.3166L88.7187 15.8766L89.021 14.9234ZM84.428 13.9863C84.9433 12.3021 85.9066 10.938 87.3281 9.88127L86.7316 9.07872C85.1397 10.262 84.0498 11.8045 83.4717 13.6937L84.428 13.9863ZM87.3281 9.88127C88.7209 8.84593 90.6568 8.3 93.1898 8.3V7.3C90.5229 7.3 88.3521 7.87407 86.7316 9.07872L87.3281 9.88127ZM93.1898 8.3C95.0456 8.3 96.6746 8.58549 98.0856 9.14481L98.4541 8.21518C96.9051 7.60117 95.1474 7.3 93.1898 7.3V8.3ZM98.0856 9.14481C99.452 9.68647 100.482 10.6162 101.188 11.9534L102.072 11.4866C101.258 9.94382 100.048 8.84686 98.4541 8.21518L98.0856 9.14481ZM101.189 11.9553C101.589 12.705 101.82 13.4425 101.892 14.1698L102.887 14.0702C102.8 13.1975 102.524 12.335 102.071 11.4847L101.189 11.9553ZM101.892 14.1698C101.97 14.95 102.01 15.8264 102.01 16.8H103.01C103.01 15.8003 102.969 14.89 102.887 14.0702L101.892 14.1698ZM102.01 16.8V30H103.01V16.8H102.01ZM102.51 29.5H97.7498V30.5H102.51V29.5ZM98.2498 30V25.56H97.2498V30H98.2498ZM97.3478 25.8572L98.0278 26.7772L98.8319 26.1828L98.1519 25.2628L97.3478 25.8572ZM98.025 26.1866C97.0037 27.5957 95.9177 28.59 94.7748 29.1987L95.2449 30.0813C96.5553 29.3834 97.7493 28.271 98.8347 26.7734L98.025 26.1866ZM94.7766 29.1978C93.6564 29.7886 92.2032 30.1 90.3898 30.1V31.1C92.3099 31.1 93.9367 30.7714 95.2431 30.0822L94.7766 29.1978ZM91.5498 26.82C92.6052 26.82 93.5282 26.6373 94.2969 26.2455L93.8428 25.3545C93.2514 25.656 92.4945 25.82 91.5498 25.82V26.82ZM94.3003 26.2437C95.0331 25.8632 95.634 25.4217 96.0848 24.9108L95.3349 24.2492C94.9857 24.645 94.4933 25.0168 93.8394 25.3563L94.3003 26.2437ZM96.0793 24.9169C96.5037 24.4515 96.8226 24.0286 97.0009 23.6557L96.0988 23.2243C95.9838 23.4647 95.7427 23.8019 95.3404 24.2431L96.0793 24.9169ZM97.0011 23.6554C97.3143 22.9991 97.4864 22.2526 97.5292 21.4258L96.5305 21.3742C96.4933 22.0941 96.3454 22.7076 96.0986 23.2246L97.0011 23.6554ZM97.5287 21.4338C97.5825 20.641 97.6098 19.9754 97.6098 19.44H96.6098C96.6098 19.9446 96.5839 20.5857 96.531 21.3662L97.5287 21.4338ZM96.9886 19.9251L98.5886 20.3251L98.8311 19.3549L97.2311 18.9549L96.9886 19.9251ZM98.6283 19.3467C97.0133 19.6136 95.7029 19.8409 94.6981 20.0285L94.8816 21.0115C95.8768 20.8257 97.1797 20.5997 98.7914 20.3333L98.6283 19.3467ZM94.7045 20.0273C93.6995 20.2015 92.8813 20.3636 92.2536 20.5137L92.4861 21.4863C93.085 21.3431 93.8802 21.1851 94.8752 21.0127L94.7045 20.0273ZM92.2536 20.5137C91.6255 20.6639 91.0655 20.8294 90.5758 21.0113L90.9239 21.9487C91.3675 21.784 91.8875 21.6294 92.4861 21.4863L92.2536 20.5137ZM90.5641 21.0158C90.0034 21.2401 89.5269 21.4934 89.1473 21.7819L89.7524 22.5781C90.0394 22.3599 90.4296 22.1466 90.9355 21.9442L90.5641 21.0158ZM89.1498 21.78C88.7837 22.0546 88.4913 22.3732 88.2909 22.7406L89.1688 23.2194C89.2884 23.0001 89.476 22.7854 89.7498 22.58L89.1498 21.78ZM88.2826 22.7564C88.098 23.1257 88.0098 23.5301 88.0098 23.96H89.0098C89.0098 23.6699 89.0684 23.4209 89.1771 23.2036L88.2826 22.7564ZM88.0098 23.96C88.0098 24.5378 88.1516 25.0641 88.4538 25.5173L89.2859 24.9627C89.108 24.6959 89.0098 24.3689 89.0098 23.96H88.0098ZM88.4661 25.535C88.7812 25.9661 89.2133 26.2857 89.7395 26.5023L90.1202 25.5777C89.7397 25.421 89.4652 25.2072 89.2735 24.945L88.4661 25.535ZM89.7395 26.5023C90.2674 26.7197 90.8753 26.82 91.5498 26.82V25.82C90.9711 25.82 90.4989 25.7336 90.1202 25.5777L89.7395 26.5023ZM109.259 39.6L108.789 39.4291L108.545 40.1H109.259V39.6ZM113.419 28.16L113.919 28.1481L112.949 27.9891L113.419 28.16ZM113.499 31.52L113.036 31.7083L113.999 31.5081L113.499 31.52ZM104.099 8.4V7.9H103.356L103.636 8.58832L104.099 8.4ZM109.739 8.4L110.206 8.21982L110.082 7.9H109.739V8.4ZM116.059 24.76V25.26H116.788L116.526 24.5798L116.059 24.76ZM114.779 24.76L114.312 24.5808L114.052 25.26H114.779V24.76ZM121.059 8.4V7.9H120.716L120.592 8.22082L121.059 8.4ZM126.499 8.4L126.965 8.58209L127.232 7.9H126.499V8.4ZM114.299 39.6V40.1H114.641L114.765 39.7821L114.299 39.6ZM109.729 39.7709L113.889 28.3309L112.949 27.9891L108.789 39.4291L109.729 39.7709ZM112.919 28.1719L112.999 31.5319L113.999 31.5081L113.919 28.1481L112.919 28.1719ZM113.962 31.3317L104.562 8.21168L103.636 8.58832L113.036 31.7083L113.962 31.3317ZM104.099 8.9H109.739V7.9H104.099V8.9ZM109.273 8.58018L115.593 24.9402L116.526 24.5798L110.206 8.21982L109.273 8.58018ZM116.059 24.26H114.779V25.26H116.059V24.26ZM115.246 24.9392L121.526 8.57918L120.592 8.22082L114.312 24.5808L115.246 24.9392ZM121.059 8.9H126.499V7.9H121.059V8.9ZM126.034 8.21791L113.834 39.4179L114.765 39.7821L126.965 8.58209L126.034 8.21791ZM114.299 39.1H109.259V40.1H114.299V39.1Z" fill="white"/>
</svg>
