<svg width="48" height="48" viewBox="0 0 48 48" fill="none" xmlns="http://www.w3.org/2000/svg">
<circle cx="24" cy="24" r="23.5" stroke="#E3E7F7"/>
<path d="M14.58 31.01L14.56 31.03C14.29 30.44 14.12 29.77 14.05 29.03C14.12 29.76 14.31 30.42 14.58 31.01Z" fill="#4263EB"/>
<path d="M21 22.3801C22.3144 22.3801 23.38 21.3146 23.38 20.0001C23.38 18.6857 22.3144 17.6201 21 17.6201C19.6856 17.6201 18.62 18.6857 18.62 20.0001C18.62 21.3146 19.6856 22.3801 21 22.3801Z" fill="#4263EB"/>
<path d="M28.19 14H19.81C16.17 14 14 16.17 14 19.81V28.19C14 29.28 14.19 30.23 14.56 31.03C15.42 32.93 17.26 34 19.81 34H28.19C31.83 34 34 31.83 34 28.19V25.9V19.81C34 16.17 31.83 14 28.19 14ZM32.37 24.5C31.59 23.83 30.33 23.83 29.55 24.5L25.39 28.07C24.61 28.74 23.35 28.74 22.57 28.07L22.23 27.79C21.52 27.17 20.39 27.11 19.59 27.65L15.85 30.16C15.63 29.6 15.5 28.95 15.5 28.19V19.81C15.5 16.99 16.99 15.5 19.81 15.5H28.19C31.01 15.5 32.5 16.99 32.5 19.81V24.61L32.37 24.5Z" fill="#4263EB"/>
</svg>
