<svg width="31" height="29" viewBox="0 0 31 29" fill="none" xmlns="http://www.w3.org/2000/svg">
<path d="M15.5 0C6.975 0 0 6.525 0 14.5C0 22.475 6.975 29 15.5 29C24.025 29 31 22.475 31 14.5C31 6.525 24.025 0 15.5 0ZM15.5 3.625C21.9325 3.625 27.125 8.4825 27.125 14.5C27.125 20.5175 21.9325 25.375 15.5 25.375C9.0675 25.375 3.875 20.5175 3.875 14.5C3.875 8.4825 9.0675 3.625 15.5 3.625ZM15.5 7.25C11.2375 7.25 7.75 10.5125 7.75 14.5C7.75 18.4875 11.2375 21.75 15.5 21.75C19.7625 21.75 23.25 18.4875 23.25 14.5C23.25 10.5125 19.7625 7.25 15.5 7.25ZM15.5 10.875C17.67 10.875 19.375 12.47 19.375 14.5C19.375 16.53 17.67 18.125 15.5 18.125C13.33 18.125 11.625 16.53 11.625 14.5C11.625 12.47 13.33 10.875 15.5 10.875Z" fill="#4263EB"/>
</svg>
