<svg width="20" height="20" viewBox="0 0 20 20" fill="none" xmlns="http://www.w3.org/2000/svg">
<path d="M19.9905 10.1872C19.9905 9.3678 19.9224 8.76986 19.7752 8.14978H10.1992V11.8481H15.8201C15.7068 12.7672 15.0949 14.1513 13.735 15.0814L13.7159 15.2052L16.7436 17.497L16.9534 17.5175C18.8799 15.779 19.9905 13.2212 19.9905 10.1872Z" fill="#4285F4"/>
<path d="M10.1992 19.9313C12.953 19.9313 15.2648 19.0454 16.9534 17.5174L13.735 15.0813C12.8737 15.6682 11.7178 16.0779 10.1992 16.0779C7.50214 16.0779 5.213 14.3395 4.39698 11.9366L4.27737 11.9466L1.12909 14.3273L1.08792 14.4391C2.76511 17.6945 6.21019 19.9313 10.1992 19.9313Z" fill="#34A853"/>
<path d="M4.39695 11.9367C4.18164 11.3166 4.05703 10.6522 4.05703 9.96571C4.05703 9.27915 4.18164 8.6148 4.38562 7.99472L4.37992 7.86266L1.19219 5.44373L1.08789 5.4922C0.396641 6.84312 0 8.36014 0 9.96571C0 11.5713 0.396641 13.0882 1.08789 14.4391L4.39695 11.9367Z" fill="#FBBC05"/>
<path d="M10.1992 3.85336C12.1144 3.85336 13.4063 4.66168 14.1429 5.33718L17.0214 2.59107C15.2535 0.985496 12.953 0 10.1992 0C6.21019 0 2.76511 2.23672 1.08792 5.49214L4.38566 7.99466C5.213 5.59183 7.50214 3.85336 10.1992 3.85336Z" fill="#EB4335"/>
</svg>
