<svg width="21" height="20" viewBox="0 0 21 20" fill="none" xmlns="http://www.w3.org/2000/svg">
<path d="M19.86 6.37009L12.93 0.830093C11.86 -0.0299066 10.13 -0.0299066 9.07002 0.820093L2.14002 6.37009C1.36002 6.99009 0.860021 8.30009 1.03002 9.28009L2.36002 17.2401C2.60002 18.6601 3.96002 19.8101 5.40002 19.8101H16.6C18.03 19.8101 19.4 18.6501 19.64 17.2401L20.97 9.28009C21.13 8.30009 20.63 6.99009 19.86 6.37009ZM11 13.5001C9.62002 13.5001 8.50002 12.3801 8.50002 11.0001C8.50002 9.62009 9.62002 8.50009 11 8.50009C12.38 8.50009 13.5 9.62009 13.5 11.0001C13.5 12.3801 12.38 13.5001 11 13.5001Z" fill="#ACBBF3"/>
</svg>
