<svg width="32" height="25" viewBox="0 0 32 25" fill="none" xmlns="http://www.w3.org/2000/svg">
<path d="M17.9583 0.0625C10.7104 0.0625 4.83334 5.51979 4.83334 12.25H0.458344L6.13126 17.5177L6.23334 17.7073L12.125 12.25H7.75001C7.75001 7.00938 12.3146 2.77083 17.9583 2.77083C23.6021 2.77083 28.1667 7.00938 28.1667 12.25C28.1667 17.4906 23.6021 21.7292 17.9583 21.7292C15.1438 21.7292 12.5917 20.6594 10.7542 18.9396L8.68334 20.8625C11.0604 23.0698 14.3271 24.4375 17.9583 24.4375C25.2063 24.4375 31.0833 18.9802 31.0833 12.25C31.0833 5.51979 25.2063 0.0625 17.9583 0.0625ZM16.5 6.83333V13.6042L22.6979 17.0167L23.8208 15.2833L18.6875 12.4531V6.83333H16.5Z" fill="#4263EB"/>
</svg>
