<svg width="172" height="180" viewBox="0 0 172 180" fill="none" xmlns="http://www.w3.org/2000/svg">
<circle cx="80" cy="80" r="80" fill="#F5F7FE"/>
<g filter="url(#filter0_d_61_2809)">
<path d="M80 144C115.346 144 144 115.346 144 80C144 44.6538 115.346 16 80 16C44.6538 16 16 44.6538 16 80C16 115.346 44.6538 144 80 144Z" fill="white"/>
</g>
<path d="M101.667 53.6999L85.0334 47.4665C82.2668 46.4332 77.7334 46.4332 74.9668 47.4665L58.3334 53.6999C54.5001 55.1332 51.3668 59.6665 51.3668 63.7332V88.4999C51.3668 92.4332 53.9668 97.5999 57.1334 99.9665L71.4668 110.667C76.1668 114.2 83.9001 114.2 88.6001 110.667L102.933 99.9665C106.1 97.5999 108.7 92.4332 108.7 88.4999V63.7332C108.633 59.6665 105.5 55.1332 101.667 53.6999ZM79.7668 63.4332C83.7001 63.4332 86.9001 66.6332 86.9001 70.5665C86.9001 74.4332 83.8668 77.5332 80.0334 77.6665H79.9668H79.9001C79.8334 77.6665 79.7668 77.6665 79.7001 77.6665C75.7001 77.5332 72.7001 74.4332 72.7001 70.5665C72.6668 66.6332 75.8668 63.4332 79.7668 63.4332ZM87.3001 94.5332C85.2668 95.8665 82.6334 96.5665 80.0001 96.5665C77.3668 96.5665 74.7001 95.8999 72.7001 94.5332C70.8001 93.2665 69.7668 91.5332 69.7334 89.6332C69.7334 87.7665 70.8001 85.9665 72.7001 84.6999C76.7334 82.0332 83.3001 82.0332 87.3334 84.6999C89.2334 85.9665 90.3001 87.6999 90.3001 89.5999C90.2668 91.4665 89.2001 93.2665 87.3001 94.5332Z" fill="#4263EB"/>
<defs>
<filter id="filter0_d_61_2809" x="12" y="16" width="160" height="164" filterUnits="userSpaceOnUse" color-interpolation-filters="sRGB">
<feFlood flood-opacity="0" result="BackgroundImageFix"/>
<feColorMatrix in="SourceAlpha" type="matrix" values="0 0 0 0 0 0 0 0 0 0 0 0 0 0 0 0 0 0 127 0" result="hardAlpha"/>
<feOffset dx="12" dy="20"/>
<feGaussianBlur stdDeviation="8"/>
<feColorMatrix type="matrix" values="0 0 0 0 0.1024 0 0 0 0 0.0219429 0 0 0 0 0.618057 0 0 0 0.09 0"/>
<feBlend mode="normal" in2="BackgroundImageFix" result="effect1_dropShadow_61_2809"/>
<feBlend mode="normal" in="SourceGraphic" in2="effect1_dropShadow_61_2809" result="shape"/>
</filter>
</defs>
</svg>
