<svg width="40" height="40" viewBox="0 0 40 40" fill="none" xmlns="http://www.w3.org/2000/svg">
<g clip-path="url(#clip0_63_4102)">
<path d="M0 20C0 8.95431 8.95431 0 20 0C31.0457 0 40 8.95431 40 20C40 31.0457 31.0457 40 20 40C8.95431 40 0 31.0457 0 20Z" fill="#E3E7F7"/>
<rect x="4" y="12" width="32" height="32" rx="4" fill="#4263EB"/>
<rect x="10.8334" y="25.8334" width="18.3333" height="2.5" rx="1.25" fill="white"/>
<rect opacity="0.5" x="14.1666" y="30.8334" width="10.8333" height="2.5" rx="1.25" fill="white"/>
<ellipse cx="20" cy="13.3333" rx="8.33333" ry="8.33333" fill="#E3E7F7"/>
<g clip-path="url(#clip1_63_4102)">
<path d="M21.3888 11.5971C21.3888 11.9655 21.2425 12.3188 20.982 12.5792C20.7215 12.8397 20.3682 12.986 19.9999 12.986C19.6315 12.986 19.2783 12.8397 19.0178 12.5792C18.7573 12.3188 18.611 11.9655 18.611 11.5971C18.611 11.2288 18.7573 10.8755 19.0178 10.615C19.2783 10.3546 19.6315 10.2083 19.9999 10.2083C20.3682 10.2083 20.7215 10.3546 20.982 10.615C21.2425 10.8755 21.3888 11.2288 21.3888 11.5971V11.5971ZM19.9999 14.0277C19.3553 14.0277 18.737 14.2838 18.2812 14.7396C17.8254 15.1954 17.5693 15.8136 17.5693 16.4583H22.4304C22.4304 15.8136 22.1744 15.1954 21.7186 14.7396C21.2627 14.2838 20.6445 14.0277 19.9999 14.0277V14.0277Z" stroke="white" stroke-linecap="round" stroke-linejoin="round"/>
</g>
<g clip-path="url(#clip2_63_4102)">
<path d="M20.0852 18.625C23.1977 18.625 25.7102 16.1125 25.7102 13H14.4602C14.4602 16.1125 16.9727 18.625 20.0852 18.625Z" fill="white"/>
<path d="M20.0852 7.375C16.9727 7.375 14.4602 9.8875 14.4602 13H25.7102C25.7102 9.8875 23.1977 7.375 20.0852 7.375Z" fill="#ED4C5C"/>
</g>
</g>
<defs>
<clipPath id="clip0_63_4102">
<path d="M0 20C0 8.95431 8.95431 0 20 0C31.0457 0 40 8.95431 40 20C40 31.0457 31.0457 40 20 40C8.95431 40 0 31.0457 0 20Z" fill="white"/>
</clipPath>
<clipPath id="clip1_63_4102">
<rect width="8.33333" height="8.33333" fill="white" transform="translate(15.8333 9.16663)"/>
</clipPath>
<clipPath id="clip2_63_4102">
<rect width="12" height="12" fill="white" transform="translate(14.1227 7)"/>
</clipPath>
</defs>
</svg>
