<svg width="64" height="64" viewBox="0 0 64 64" fill="none" xmlns="http://www.w3.org/2000/svg">
<rect width="64" height="64" rx="12" fill="#323045"/>
<path fill-rule="evenodd" clip-rule="evenodd" d="M26.709 19.2437C28.0775 19.1807 28.5138 19.1667 31.9998 19.1667C35.4858 19.1667 35.9222 19.1819 37.2895 19.2437C38.6568 19.3056 39.5902 19.5237 40.4068 19.8399C41.262 20.1631 42.0378 20.6682 42.6795 21.3216C43.3328 21.9621 43.8368 22.7367 44.1588 23.5931C44.4762 24.4097 44.6932 25.3431 44.7562 26.7081C44.8192 28.0789 44.8332 28.5152 44.8332 32.0001C44.8332 35.4861 44.818 35.9224 44.7562 37.2909C44.6943 38.6559 44.4762 39.5892 44.1588 40.4059C43.8368 41.2624 43.332 42.0383 42.6795 42.6797C42.0378 43.3331 41.262 43.8371 40.4068 44.1591C39.5902 44.4764 38.6568 44.6934 37.2918 44.7564C35.9222 44.8194 35.4858 44.8334 31.9998 44.8334C28.5138 44.8334 28.0775 44.8182 26.709 44.7564C25.344 44.6946 24.4107 44.4764 23.594 44.1591C22.7376 43.837 21.9616 43.3322 21.3202 42.6797C20.6673 42.0389 20.162 41.2633 19.8397 40.4071C19.5235 39.5904 19.3065 38.6571 19.2435 37.2921C19.1805 35.9212 19.1665 35.4849 19.1665 32.0001C19.1665 28.5141 19.1817 28.0777 19.2435 26.7104C19.3053 25.3431 19.5235 24.4097 19.8397 23.5931C20.1625 22.7368 20.6681 21.9613 21.3213 21.3204C21.9619 20.6677 22.7371 20.1624 23.5928 19.8399C24.4095 19.5237 25.3428 19.3067 26.7078 19.2437H26.709ZM37.1857 21.5537C35.8323 21.4919 35.4263 21.4791 31.9998 21.4791C28.5733 21.4791 28.1673 21.4919 26.814 21.5537C25.5622 21.6109 24.8832 21.8197 24.4305 21.9959C23.832 22.2292 23.4038 22.5057 22.9547 22.9549C22.5289 23.3691 22.2012 23.8734 21.9957 24.4307C21.8195 24.8834 21.6107 25.5624 21.5535 26.8142C21.4917 28.1676 21.4788 28.5736 21.4788 32.0001C21.4788 35.4266 21.4917 35.8326 21.5535 37.1859C21.6107 38.4377 21.8195 39.1167 21.9957 39.5694C22.201 40.1259 22.5288 40.6311 22.9547 41.0452C23.3688 41.4711 23.874 41.7989 24.4305 42.0042C24.8832 42.1804 25.5622 42.3892 26.814 42.4464C28.1673 42.5082 28.5722 42.5211 31.9998 42.5211C35.4275 42.5211 35.8323 42.5082 37.1857 42.4464C38.4375 42.3892 39.1165 42.1804 39.5692 42.0042C40.1677 41.7709 40.5958 41.4944 41.045 41.0452C41.4708 40.6311 41.7987 40.1259 42.004 39.5694C42.1802 39.1167 42.389 38.4377 42.4462 37.1859C42.508 35.8326 42.5208 35.4266 42.5208 32.0001C42.5208 28.5736 42.508 28.1676 42.4462 26.8142C42.389 25.5624 42.1802 24.8834 42.004 24.4307C41.7707 23.8322 41.4942 23.4041 41.045 22.9549C40.6308 22.5292 40.1265 22.2015 39.5692 21.9959C39.1165 21.8197 38.4375 21.6109 37.1857 21.5537ZM30.3607 35.9562C31.2761 36.3373 32.2954 36.3887 33.2446 36.1018C34.1937 35.8148 35.0138 35.2071 35.5647 34.3827C36.1156 33.5582 36.3632 32.5681 36.2652 31.5814C36.1672 30.5946 35.7297 29.6725 35.0273 28.9726C34.5796 28.5251 34.0383 28.1825 33.4422 27.9694C32.8462 27.7563 32.2103 27.678 31.5804 27.7401C30.9505 27.8023 30.3422 28.0033 29.7993 28.3287C29.2564 28.6542 28.7924 29.0959 28.4407 29.6222C28.089 30.1485 27.8584 30.7463 27.7654 31.3724C27.6725 31.9985 27.7195 32.6374 27.9031 33.2432C28.0868 33.8489 28.4024 34.4065 28.8273 34.8756C29.2523 35.3447 29.776 35.7138 30.3607 35.9562ZM27.3355 27.3357C27.948 26.7232 28.6752 26.2373 29.4755 25.9058C30.2758 25.5743 31.1336 25.4037 31.9998 25.4037C32.8661 25.4037 33.7238 25.5743 34.5242 25.9058C35.3245 26.2373 36.0516 26.7232 36.6642 27.3357C37.2767 27.9483 37.7626 28.6755 38.0941 29.4758C38.4256 30.2761 38.5962 31.1338 38.5962 32.0001C38.5962 32.8663 38.4256 33.7241 38.0941 34.5244C37.7626 35.3247 37.2767 36.0519 36.6642 36.6644C35.4271 37.9015 33.7493 38.5964 31.9998 38.5964C30.2504 38.5964 28.5726 37.9015 27.3355 36.6644C26.0984 35.4274 25.4035 33.7495 25.4035 32.0001C25.4035 30.2506 26.0984 28.5728 27.3355 27.3357ZM40.0592 26.3861C40.211 26.2429 40.3325 26.0707 40.4165 25.8797C40.5006 25.6887 40.5454 25.4828 40.5485 25.2742C40.5515 25.0655 40.5127 24.8584 40.4342 24.665C40.3558 24.4717 40.2393 24.296 40.0918 24.1485C39.9442 24.0009 39.7686 23.8845 39.5752 23.806C39.3819 23.7276 39.1747 23.6887 38.9661 23.6918C38.7574 23.6948 38.5515 23.7397 38.3605 23.8237C38.1695 23.9078 37.9974 24.0293 37.8542 24.1811C37.5757 24.4763 37.4232 24.8684 37.4292 25.2742C37.4351 25.6799 37.5989 26.0674 37.8859 26.3544C38.1728 26.6414 38.5603 26.8052 38.9661 26.8111C39.3719 26.817 39.764 26.6646 40.0592 26.3861Z" fill="white"/>
</svg>
