<svg width="64" height="64" viewBox="0 0 64 64" fill="none" xmlns="http://www.w3.org/2000/svg">
<rect width="64" height="64" rx="12" fill="#F5F7FE"/>
<path fill-rule="evenodd" clip-rule="evenodd" d="M26.7091 19.2437C28.0776 19.1807 28.514 19.1667 32 19.1667C35.486 19.1667 35.9223 19.1819 37.2896 19.2437C38.657 19.3056 39.5903 19.5237 40.407 19.8399C41.2621 20.1631 42.038 20.6682 42.6796 21.3216C43.333 21.9621 43.837 22.7367 44.159 23.5931C44.4763 24.4097 44.6933 25.3431 44.7563 26.7081C44.8193 28.0789 44.8333 28.5152 44.8333 32.0001C44.8333 35.4861 44.8181 35.9224 44.7563 37.2909C44.6945 38.6559 44.4763 39.5892 44.159 40.4059C43.837 41.2624 43.3321 42.0383 42.6796 42.6797C42.038 43.3331 41.2621 43.8371 40.407 44.1591C39.5903 44.4764 38.657 44.6934 37.292 44.7564C35.9223 44.8194 35.486 44.8334 32 44.8334C28.514 44.8334 28.0776 44.8182 26.7091 44.7564C25.3441 44.6946 24.4108 44.4764 23.5941 44.1591C22.7377 43.837 21.9617 43.3322 21.3203 42.6797C20.6674 42.0389 20.1622 41.2633 19.8398 40.4071C19.5236 39.5904 19.3066 38.6571 19.2436 37.2921C19.1806 35.9212 19.1666 35.4849 19.1666 32.0001C19.1666 28.5141 19.1818 28.0777 19.2436 26.7104C19.3055 25.3431 19.5236 24.4097 19.8398 23.5931C20.1626 22.7368 20.6683 21.9613 21.3215 21.3204C21.962 20.6677 22.7372 20.1624 23.593 19.8399C24.4096 19.5237 25.343 19.3067 26.708 19.2437H26.7091ZM37.1858 21.5537C35.8325 21.4919 35.4265 21.4791 32 21.4791C28.5735 21.4791 28.1675 21.4919 26.8141 21.5537C25.5623 21.6109 24.8833 21.8197 24.4306 21.9959C23.8321 22.2292 23.404 22.5057 22.9548 22.9549C22.529 23.3691 22.2013 23.8734 21.9958 24.4307C21.8196 24.8834 21.6108 25.5624 21.5536 26.8142C21.4918 28.1676 21.479 28.5736 21.479 32.0001C21.479 35.4266 21.4918 35.8326 21.5536 37.1859C21.6108 38.4377 21.8196 39.1167 21.9958 39.5694C22.2011 40.1259 22.529 40.6311 22.9548 41.0452C23.369 41.4711 23.8741 41.7989 24.4306 42.0042C24.8833 42.1804 25.5623 42.3892 26.8141 42.4464C28.1675 42.5082 28.5723 42.5211 32 42.5211C35.4276 42.5211 35.8325 42.5082 37.1858 42.4464C38.4376 42.3892 39.1166 42.1804 39.5693 42.0042C40.1678 41.7709 40.596 41.4944 41.0451 41.0452C41.471 40.6311 41.7988 40.1259 42.0041 39.5694C42.1803 39.1167 42.3891 38.4377 42.4463 37.1859C42.5081 35.8326 42.521 35.4266 42.521 32.0001C42.521 28.5736 42.5081 28.1676 42.4463 26.8142C42.3891 25.5624 42.1803 24.8834 42.0041 24.4307C41.7708 23.8322 41.4943 23.4041 41.0451 22.9549C40.6309 22.5292 40.1266 22.2015 39.5693 21.9959C39.1166 21.8197 38.4376 21.6109 37.1858 21.5537ZM30.3608 35.9562C31.2762 36.3373 32.2956 36.3887 33.2447 36.1018C34.1939 35.8148 35.0139 35.2071 35.5648 34.3827C36.1158 33.5582 36.3634 32.5681 36.2653 31.5814C36.1673 30.5946 35.7298 29.6725 35.0275 28.9726C34.5797 28.5251 34.0384 28.1825 33.4423 27.9694C32.8463 27.7563 32.2105 27.678 31.5805 27.7401C30.9506 27.8023 30.3423 28.0033 29.7994 28.3287C29.2565 28.6542 28.7925 29.0959 28.4408 29.6222C28.0891 30.1485 27.8585 30.7463 27.7656 31.3724C27.6726 31.9985 27.7196 32.6374 27.9033 33.2432C28.0869 33.8489 28.4025 34.4065 28.8275 34.8756C29.2524 35.3447 29.7761 35.7138 30.3608 35.9562ZM27.3356 27.3357C27.9482 26.7232 28.6753 26.2373 29.4756 25.9058C30.2759 25.5743 31.1337 25.4037 32 25.4037C32.8662 25.4037 33.724 25.5743 34.5243 25.9058C35.3246 26.2373 36.0518 26.7232 36.6643 27.3357C37.2768 27.9483 37.7627 28.6755 38.0942 29.4758C38.4257 30.2761 38.5963 31.1338 38.5963 32.0001C38.5963 32.8663 38.4257 33.7241 38.0942 34.5244C37.7627 35.3247 37.2768 36.0519 36.6643 36.6644C35.4272 37.9015 33.7494 38.5964 32 38.5964C30.2505 38.5964 28.5727 37.9015 27.3356 36.6644C26.0986 35.4274 25.4036 33.7495 25.4036 32.0001C25.4036 30.2506 26.0986 28.5728 27.3356 27.3357ZM40.0593 26.3861C40.2111 26.2429 40.3326 26.0707 40.4166 25.8797C40.5007 25.6887 40.5456 25.4828 40.5486 25.2742C40.5517 25.0655 40.5128 24.8584 40.4344 24.665C40.3559 24.4717 40.2395 24.296 40.0919 24.1485C39.9444 24.0009 39.7687 23.8845 39.5753 23.806C39.382 23.7276 39.1749 23.6887 38.9662 23.6918C38.7576 23.6948 38.5516 23.7397 38.3607 23.8237C38.1697 23.9078 37.9975 24.0293 37.8543 24.1811C37.5758 24.4763 37.4234 24.8684 37.4293 25.2742C37.4352 25.6799 37.599 26.0674 37.886 26.3544C38.1729 26.6414 38.5604 26.8052 38.9662 26.8111C39.372 26.817 39.7641 26.6646 40.0593 26.3861Z" fill="#6680EE"/>
</svg>
