<svg width="25" height="20" viewBox="0 0 25 20" fill="none" xmlns="http://www.w3.org/2000/svg">
<path d="M24.3086 10.5898L19.8086 8.83203C19.6484 8.76953 19.3164 8.6875 18.9414 8.83203L14.4414 10.5898C14.0234 10.7539 13.75 11.1367 13.75 11.5625C13.75 15.9219 16.4336 18.9375 18.9414 19.918C19.3164 20.0625 19.6445 19.9805 19.8086 19.918C21.8125 19.1367 25 16.4258 25 11.5625C25 11.1367 24.7266 10.7539 24.3086 10.5898ZM19.375 18.0625V10.6758L23.1055 12.1328C22.8867 15.5352 20.7266 17.4219 19.375 18.0625ZM8.75 10C11.5117 10 13.75 7.76172 13.75 5C13.75 2.23828 11.5117 0 8.75 0C5.98828 0 3.75 2.23828 3.75 5C3.75 7.76172 5.98828 10 8.75 10ZM12.5 11.5625C12.5 11.4648 12.5312 11.375 12.543 11.2812C12.4453 11.2773 12.3516 11.25 12.25 11.25H11.5977C10.7305 11.6484 9.76562 11.875 8.75 11.875C7.73438 11.875 6.77344 11.6484 5.90234 11.25H5.25C2.35156 11.25 0 13.6016 0 16.5V18.125C0 19.1602 0.839844 20 1.875 20H15.625C15.8906 20 16.1445 19.9414 16.375 19.8438C14.2656 18.168 12.5 15.2852 12.5 11.5625Z" fill="#4263EB"/>
</svg>
