<svg width="40" height="30" viewBox="0 0 40 30" fill="none" xmlns="http://www.w3.org/2000/svg">
<g clip-path="url(#clip0_52_3267)">
<path d="M39.6183 21.8008V21.3381H39.4933L39.3487 21.6556L39.2049 21.3381H39.0795V21.8008H39.1683V21.4523L39.3035 21.753H39.3955L39.5307 21.4515V21.8008H39.6187H39.6183ZM38.8253 21.8008V21.4174H38.9853V21.3393H38.5765V21.4174H38.7365V21.8008H38.8245H38.8253Z" fill="#F79410"/>
<path d="M25.4119 24.5772H14.5948V5.13721H25.4121L25.4119 24.5772Z" fill="#FF5F00"/>
<path d="M15.28 14.8634C15.28 10.92 17.1264 7.40721 20.0016 5.14341C17.8252 3.42731 15.1334 2.49592 12.3618 2.50001C5.5344 2.50001 0 8.03521 0 14.8634C0 21.6916 5.5344 27.2268 12.3618 27.2268C15.1334 27.231 17.8254 26.2996 20.0018 24.5834C17.1268 22.32 15.28 18.807 15.28 14.8634Z" fill="#EB001B"/>
<path d="M40.0053 14.8634C40.0053 21.6916 34.4709 27.2268 27.6435 27.2268C24.8715 27.2309 22.1793 26.2995 20.0024 24.5834C22.8785 22.3196 24.7249 18.807 24.7249 14.8634C24.7249 10.9198 22.8785 7.40721 20.0024 5.14341C22.1792 3.42736 24.8714 2.49599 27.6433 2.50001C34.4707 2.50001 40.0051 8.03521 40.0051 14.8634" fill="#F79E1B"/>
</g>
<defs>
<clipPath id="clip0_52_3267">
<rect width="40" height="30" fill="white"/>
</clipPath>
</defs>
</svg>
