<svg width="19" height="25" viewBox="0 0 19 25" fill="none" xmlns="http://www.w3.org/2000/svg">
<path d="M18.4082 5.12695L13.6279 0.341797C13.4082 0.12207 13.1104 0 12.7979 0H12.5V6.25H18.75V5.95215C18.75 5.64453 18.6279 5.34668 18.4082 5.12695ZM10.9375 6.64062V0H1.17188C0.522461 0 0 0.522461 0 1.17188V23.8281C0 24.4775 0.522461 25 1.17188 25H17.5781C18.2275 25 18.75 24.4775 18.75 23.8281V7.8125H12.1094C11.4648 7.8125 10.9375 7.28516 10.9375 6.64062ZM3.125 3.51562C3.125 3.2998 3.2998 3.125 3.51562 3.125H7.42188C7.6377 3.125 7.8125 3.2998 7.8125 3.51562V4.29688C7.8125 4.5127 7.6377 4.6875 7.42188 4.6875H3.51562C3.2998 4.6875 3.125 4.5127 3.125 4.29688V3.51562ZM3.125 7.42188V6.64062C3.125 6.4248 3.2998 6.25 3.51562 6.25H7.42188C7.6377 6.25 7.8125 6.4248 7.8125 6.64062V7.42188C7.8125 7.6377 7.6377 7.8125 7.42188 7.8125H3.51562C3.2998 7.8125 3.125 7.6377 3.125 7.42188ZM10.1562 20.3066V21.4844C10.1562 21.7002 9.98145 21.875 9.76562 21.875H8.98438C8.76855 21.875 8.59375 21.7002 8.59375 21.4844V20.2983C8.04248 20.27 7.50635 20.0776 7.06201 19.7441C6.87158 19.6011 6.86182 19.3159 7.03418 19.1514L7.60791 18.604C7.74316 18.4751 7.94434 18.4692 8.10254 18.5684C8.2915 18.6865 8.50586 18.75 8.72852 18.75H10.1011C10.4185 18.75 10.6772 18.4609 10.6772 18.106C10.6772 17.8154 10.501 17.5596 10.249 17.4844L8.05176 16.8252C7.14404 16.5527 6.50977 15.6816 6.50977 14.7065C6.50977 13.5093 7.43994 12.5366 8.59326 12.5059V11.3281C8.59326 11.1123 8.76807 10.9375 8.98389 10.9375H9.76514C9.98096 10.9375 10.1558 11.1123 10.1558 11.3281V12.5142C10.707 12.5425 11.2432 12.7344 11.6875 13.0684C11.8779 13.2114 11.8877 13.4966 11.7153 13.6611L11.1416 14.2085C11.0063 14.3374 10.8052 14.3433 10.647 14.2441C10.458 14.1255 10.2437 14.0625 10.021 14.0625H8.64844C8.33105 14.0625 8.07227 14.3516 8.07227 14.7065C8.07227 14.9971 8.24854 15.2529 8.50049 15.3281L10.6978 15.9873C11.6055 16.2598 12.2397 17.1309 12.2397 18.106C12.2397 19.3037 11.3096 20.2759 10.1562 20.3066Z" fill="#4263EB"/>
</svg>
