<svg width="96" height="96" viewBox="0 0 96 96" fill="none" xmlns="http://www.w3.org/2000/svg">
<circle cx="48" cy="48" r="48" fill="#E8ECFD"/>
<circle cx="48" cy="48" r="36" fill="#4263EB"/>
<path d="M56 40.0001C55.1867 40.0001 54.44 39.5334 54.0667 38.8134L53.1067 36.8801C52.4934 35.6667 50.8934 34.6667 49.5334 34.6667H46.48C45.1067 34.6667 43.5067 35.6667 42.8934 36.8801L41.9334 38.8134C41.56 39.5334 40.8134 40.0001 40 40.0001C37.1067 40.0001 34.8134 42.4401 35 45.3201L35.6934 56.3334C35.8534 59.0801 37.3334 61.3334 41.0134 61.3334H54.9867C58.6667 61.3334 60.1334 59.0801 60.3067 56.3334L61 45.3201C61.1867 42.4401 58.8934 40.0001 56 40.0001ZM46 41.6667H50C50.5467 41.6667 51 42.1201 51 42.6667C51 43.2134 50.5467 43.6667 50 43.6667H46C45.4534 43.6667 45 43.2134 45 42.6667C45 42.1201 45.4534 41.6667 46 41.6667ZM48 56.1601C45.52 56.1601 43.4934 54.1467 43.4934 51.6534C43.4934 49.1601 45.5067 47.1467 48 47.1467C50.4934 47.1467 52.5067 49.1601 52.5067 51.6534C52.5067 54.1467 50.48 56.1601 48 56.1601Z" fill="white"/>
</svg>
