<svg width="24" height="23" viewBox="0 0 24 23" fill="none" xmlns="http://www.w3.org/2000/svg">
<path d="M9.08331 5.3125V8.6875H5.58331V5.3125H9.08331ZM10.8333 3.625H3.83331V10.375H10.8333V3.625ZM9.08331 14.3125V17.6875H5.58331V14.3125H9.08331ZM10.8333 12.625H3.83331V19.375H10.8333V12.625ZM18.4166 5.3125V8.6875H14.9166V5.3125H18.4166ZM20.1666 3.625H13.1666V10.375H20.1666V3.625ZM13.1666 12.625H14.9166V14.3125H13.1666V12.625ZM14.9166 14.3125H16.6666V16H14.9166V14.3125ZM16.6666 12.625H18.4166V14.3125H16.6666V12.625ZM13.1666 16H14.9166V17.6875H13.1666V16ZM14.9166 17.6875H16.6666V19.375H14.9166V17.6875ZM16.6666 16H18.4166V17.6875H16.6666V16ZM18.4166 14.3125H20.1666V16H18.4166V14.3125ZM18.4166 17.6875H20.1666V19.375H18.4166V17.6875ZM23.6666 5.875H21.3333V2.5H17.8333V0.25H23.6666V5.875ZM23.6666 22.75V17.125H21.3333V20.5H17.8333V22.75H23.6666ZM0.333313 22.75H6.16665V20.5H2.66665V17.125H0.333313V22.75ZM0.333313 0.25V5.875H2.66665V2.5H6.16665V0.25H0.333313Z" fill="#4263EB"/>
</svg>
