<svg width="16" height="16" viewBox="0 0 16 16" fill="none" xmlns="http://www.w3.org/2000/svg">
<path d="M8.86669 5.40655L9.74669 7.16655C9.86669 7.40655 10.1867 7.64655 10.4534 7.68655L12.0467 7.95322C13.0667 8.12655 13.3067 8.85989 12.5734 9.59322L11.3334 10.8399C11.1267 11.0466 11.0067 11.4532 11.0734 11.7466L11.4267 13.2866C11.7067 14.4999 11.06 14.9732 9.98669 14.3399L8.49336 13.4532C8.22002 13.2932 7.78002 13.2932 7.50669 13.4532L6.00669 14.3332C4.93336 14.9666 4.28669 14.4932 4.56669 13.2799L4.92002 11.7399C4.98669 11.4532 4.86669 11.0466 4.66002 10.8332L3.42669 9.59988C2.69336 8.86655 2.93336 8.12655 3.95336 7.95988L5.54669 7.69322C5.81336 7.64655 6.13336 7.41322 6.25336 7.17322L7.13336 5.41322C7.60669 4.45322 8.39336 4.45322 8.86669 5.40655Z" fill="#F6A609"/>
<path d="M4 6.49992C3.72667 6.49992 3.5 6.27325 3.5 5.99992V1.33325C3.5 1.05992 3.72667 0.833252 4 0.833252C4.27333 0.833252 4.5 1.05992 4.5 1.33325V5.99992C4.5 6.27325 4.27333 6.49992 4 6.49992Z" fill="#F6A609"/>
<path d="M12 6.49992C11.7267 6.49992 11.5 6.27325 11.5 5.99992V1.33325C11.5 1.05992 11.7267 0.833252 12 0.833252C12.2733 0.833252 12.5 1.05992 12.5 1.33325V5.99992C12.5 6.27325 12.2733 6.49992 12 6.49992Z" fill="#F6A609"/>
<path d="M8 3.16659C7.72667 3.16659 7.5 2.93992 7.5 2.66659V1.33325C7.5 1.05992 7.72667 0.833252 8 0.833252C8.27333 0.833252 8.5 1.05992 8.5 1.33325V2.66659C8.5 2.93992 8.27333 3.16659 8 3.16659Z" fill="#F6A609"/>
</svg>
