<svg width="249" height="150" viewBox="0 0 249 150" fill="none" xmlns="http://www.w3.org/2000/svg">
<circle opacity="0.5" cx="125" cy="70" r="69" stroke="#4263EB" stroke-width="2"/>
<circle cx="125" cy="70" r="49.5122" fill="#F5F7FE"/>
<path d="M109.065 70L120.447 81.3821L143.211 58.6179" stroke="#4263EB" stroke-width="8" stroke-linecap="round" stroke-linejoin="round"/>
<path d="M236.02 100.793C236.238 99.7271 237.762 99.7271 237.98 100.793L238.904 105.316C238.984 105.709 239.291 106.016 239.684 106.096L244.207 107.02C245.273 107.238 245.273 108.762 244.207 108.98L239.684 109.904C239.291 109.984 238.984 110.291 238.904 110.684L237.98 115.207C237.762 116.273 236.238 116.273 236.02 115.207L235.096 110.684C235.016 110.291 234.709 109.984 234.316 109.904L229.793 108.98C228.727 108.762 228.727 107.238 229.793 107.02L234.316 106.096C234.709 106.016 235.016 105.709 235.096 105.316L236.02 100.793Z" fill="#4263EB"/>
<path opacity="0.2" d="M33.0203 134.793C33.2382 133.727 34.7618 133.727 34.9797 134.793L35.5648 137.656C35.645 138.048 35.9517 138.355 36.3443 138.435L39.2065 139.02C40.2729 139.238 40.2729 140.762 39.2065 140.98L36.3443 141.565C35.9517 141.645 35.645 141.952 35.5648 142.344L34.9797 145.207C34.7618 146.273 33.2382 146.273 33.0203 145.207L32.4352 142.344C32.355 141.952 32.0483 141.645 31.6557 141.565L28.7935 140.98C27.7271 140.762 27.7271 139.238 28.7935 139.02L31.6557 138.435C32.0483 138.355 32.355 138.048 32.4352 137.656L33.0203 134.793Z" fill="#4263EB"/>
<path opacity="0.2" d="M215.02 16.7935C215.238 15.7271 216.762 15.7271 216.98 16.7935L217.565 19.6557C217.645 20.0483 217.952 20.355 218.344 20.4352L221.207 21.0203C222.273 21.2382 222.273 22.7618 221.207 22.9797L218.344 23.5648C217.952 23.645 217.645 23.9517 217.565 24.3443L216.98 27.2065C216.762 28.2729 215.238 28.2729 215.02 27.2065L214.435 24.3443C214.355 23.9517 214.048 23.645 213.656 23.5648L210.793 22.9797C209.727 22.7618 209.727 21.2382 210.793 21.0203L213.656 20.4352C214.048 20.355 214.355 20.0483 214.435 19.6557L215.02 16.7935Z" fill="#4263EB"/>
<path d="M15.0203 18.7935C15.2382 17.7271 16.7618 17.7271 16.9797 18.7935L18.583 26.6375C18.6632 27.03 18.97 27.3368 19.3625 27.417L27.2065 29.0203C28.2729 29.2382 28.2729 30.7618 27.2065 30.9797L19.3625 32.583C18.97 32.6632 18.6632 32.97 18.583 33.3625L16.9797 41.2065C16.7618 42.2729 15.2382 42.2729 15.0203 41.2065L13.417 33.3625C13.3368 32.97 13.03 32.6632 12.6375 32.583L4.79346 30.9797C3.72713 30.7618 3.72712 29.2382 4.79346 29.0203L12.6375 27.417C13.03 27.3368 13.3368 27.03 13.417 26.6375L15.0203 18.7935Z" fill="#4263EB"/>
</svg>
