<svg width="64" height="64" viewBox="0 0 64 64" fill="none" xmlns="http://www.w3.org/2000/svg">
<rect width="64" height="64" rx="12" fill="#F5F7FE"/>
<path d="M40.855 25.8049C39.6921 25.5492 38.64 24.9316 37.8498 24.0408C37.0596 23.15 36.5719 22.0318 36.4567 20.8466V20.3333H32.4317V36.2816C32.4325 36.9892 32.2107 37.6792 31.7976 38.2538C31.3845 38.8283 30.801 39.2583 30.13 39.4829C29.4589 39.7074 28.7341 39.7152 28.0584 39.5049C27.3827 39.2947 26.7903 38.8772 26.365 38.3116C25.9841 37.8109 25.7508 37.2136 25.6916 36.5872C25.6323 35.9609 25.7496 35.3305 26.03 34.7672C26.3103 34.204 26.7427 33.7305 27.2782 33.4002C27.8137 33.0699 28.4309 32.8961 29.06 32.8983C29.408 32.8963 29.7542 32.9474 30.0867 33.0499V28.9666C29.6998 28.9187 29.3098 28.8992 28.92 28.9083C27.4842 28.9466 26.0908 29.4028 24.9103 30.2211C23.7298 31.0393 22.8136 32.184 22.2738 33.515C21.7339 34.846 21.5939 36.3056 21.871 37.7149C22.148 39.1243 22.8299 40.4222 23.8334 41.4499C24.8618 42.4955 26.1778 43.2117 27.6142 43.5077C29.0506 43.8036 30.5425 43.6659 31.9005 43.1119C33.2584 42.558 34.421 41.6129 35.2406 40.3967C36.0602 39.1805 36.4997 37.7481 36.5034 36.2816V28.1149C38.1268 29.2745 40.0734 29.8948 42.0684 29.8883V25.9216C41.6765 25.9232 41.2855 25.8841 40.9017 25.8049H40.855Z" fill="#6680EE"/>
</svg>
