<svg width="64" height="64" viewBox="0 0 64 64" fill="none" xmlns="http://www.w3.org/2000/svg">
<rect width="64" height="64" rx="12" fill="#323045"/>
<path d="M40.8552 25.8049C39.6922 25.5492 38.6401 24.9316 37.8499 24.0408C37.0597 23.15 36.572 22.0318 36.4568 20.8466V20.3333H32.4318V36.2816C32.4327 36.9892 32.2108 37.6792 31.7977 38.2538C31.3846 38.8283 30.8012 39.2583 30.1301 39.4829C29.459 39.7074 28.7343 39.7152 28.0586 39.5049C27.3829 39.2947 26.7904 38.8772 26.3652 38.3116C25.9842 37.8109 25.7509 37.2136 25.6917 36.5872C25.6325 35.9609 25.7497 35.3305 26.0301 34.7672C26.3105 34.204 26.7429 33.7305 27.2783 33.4002C27.8138 33.0699 28.431 32.8961 29.0602 32.8983C29.4081 32.8963 29.7543 32.9474 30.0868 33.0499V28.9666C29.6999 28.9187 29.31 28.8992 28.9202 28.9083C27.4844 28.9466 26.0909 29.4028 24.9104 30.2211C23.73 31.0393 22.8137 32.184 22.2739 33.515C21.734 34.846 21.5941 36.3056 21.8711 37.7149C22.1481 39.1243 22.8301 40.4222 23.8335 41.4499C24.8619 42.4955 26.1779 43.2117 27.6143 43.5077C29.0507 43.8036 30.5427 43.6659 31.9006 43.1119C33.2585 42.558 34.4212 41.6129 35.2407 40.3967C36.0603 39.1805 36.4999 37.7481 36.5035 36.2816V28.1149C38.1269 29.2745 40.0735 29.8948 42.0685 29.8883V25.9216C41.6766 25.9232 41.2856 25.8841 40.9018 25.8049H40.8552Z" fill="white"/>
</svg>
