<svg width="152" height="112" viewBox="0 0 152 112" fill="none" xmlns="http://www.w3.org/2000/svg">
<circle opacity="0.1" cx="79" cy="52" r="49" stroke="#4263EB" stroke-width="2"/>
<g filter="url(#filter0_d_81_3691)">
<circle cx="79" cy="51.9999" r="35.3659" fill="white"/>
</g>
<path d="M67.6179 52L75.748 60.13L92.0082 43.8699" stroke="#4263EB" stroke-width="4" stroke-linecap="round" stroke-linejoin="round"/>
<path d="M142.306 83.365C142.524 82.2987 144.047 82.2987 144.265 83.365L144.608 85.0411C144.688 85.4337 144.995 85.7404 145.387 85.8206L147.064 86.1632C148.13 86.3812 148.13 87.9048 147.064 88.1227L145.387 88.4653C144.995 88.5455 144.688 88.8523 144.608 89.2448L144.265 90.9209C144.047 91.9873 142.524 91.9873 142.306 90.9209L141.963 89.2448C141.883 88.8523 141.576 88.5455 141.184 88.4653L139.508 88.1227C138.441 87.9048 138.441 86.3812 139.508 86.1632L141.184 85.8206C141.576 85.7404 141.883 85.4337 141.963 85.0411L142.306 83.365Z" fill="#4263EB"/>
<path opacity="0.2" d="M18.0203 94.7935C18.2382 93.7271 19.7618 93.7271 19.9797 94.7935L20.2254 95.9951C20.3056 96.3877 20.6123 96.6944 21.0049 96.7746L22.2065 97.0203C23.2729 97.2382 23.2729 98.7618 22.2065 98.9797L21.0049 99.2254C20.6123 99.3056 20.3056 99.6123 20.2254 100.005L19.9797 101.207C19.7618 102.273 18.2382 102.273 18.0203 101.207L17.7746 100.005C17.6944 99.6123 17.3877 99.3056 16.9951 99.2254L15.7935 98.9797C14.7271 98.7618 14.7271 97.2382 15.7935 97.0203L16.9951 96.7746C17.3877 96.6944 17.6944 96.3877 17.7746 95.9951L18.0203 94.7935Z" fill="#4263EB"/>
<path opacity="0.2" d="M143.306 15.365C143.524 14.2987 145.047 14.2987 145.265 15.365L145.366 15.855C145.446 16.2475 145.753 16.5543 146.145 16.6345L146.635 16.7346C147.701 16.9526 147.701 18.4762 146.635 18.6941L146.145 18.7943C145.753 18.8745 145.446 19.1813 145.366 19.5738L145.265 20.0638C145.047 21.1301 143.524 21.1301 143.306 20.0638L143.206 19.5738C143.126 19.1813 142.819 18.8745 142.426 18.7943L141.936 18.6941C140.87 18.4762 140.87 16.9526 141.936 16.7346L142.426 16.6345C142.819 16.5543 143.126 16.2475 143.206 15.855L143.306 15.365Z" fill="#4263EB"/>
<path d="M8.02026 16.7935C8.2382 15.7271 9.7618 15.7271 9.97974 16.7935L10.3951 18.8254C10.4753 19.218 10.782 19.5247 11.1746 19.6049L13.2065 20.0203C14.2729 20.2382 14.2729 21.7618 13.2065 21.9797L11.1746 22.3951C10.782 22.4753 10.4753 22.782 10.3951 23.1746L9.97974 25.2065C9.7618 26.2729 8.2382 26.2729 8.02026 25.2065L7.60493 23.1746C7.52471 22.782 7.21796 22.4753 6.82544 22.3951L4.79346 21.9797C3.72713 21.7618 3.72712 20.2382 4.79346 20.0203L6.82544 19.6049C7.21796 19.5247 7.52471 19.218 7.60493 18.8254L8.02026 16.7935Z" fill="#4263EB"/>
<defs>
<filter id="filter0_d_81_3691" x="23.6342" y="0.634033" width="110.732" height="110.732" filterUnits="userSpaceOnUse" color-interpolation-filters="sRGB">
<feFlood flood-opacity="0" result="BackgroundImageFix"/>
<feColorMatrix in="SourceAlpha" type="matrix" values="0 0 0 0 0 0 0 0 0 0 0 0 0 0 0 0 0 0 127 0" result="hardAlpha"/>
<feOffset dy="4"/>
<feGaussianBlur stdDeviation="10"/>
<feComposite in2="hardAlpha" operator="out"/>
<feColorMatrix type="matrix" values="0 0 0 0 0.258824 0 0 0 0 0.388235 0 0 0 0 0.921569 0 0 0 0.2 0"/>
<feBlend mode="normal" in2="BackgroundImageFix" result="effect1_dropShadow_81_3691"/>
<feBlend mode="normal" in="SourceGraphic" in2="effect1_dropShadow_81_3691" result="shape"/>
</filter>
</defs>
</svg>
