<svg width="41" height="40" viewBox="0 0 41 40" fill="none" xmlns="http://www.w3.org/2000/svg">
<rect x="0.953491" width="40" height="40" rx="20" fill="#0A1830"/>
<mask id="mask0_81_2998" style="mask-type:alpha" maskUnits="userSpaceOnUse" x="0" y="0" width="41" height="40">
<rect x="0.953491" width="40" height="40" rx="20" fill="white"/>
</mask>
<g mask="url(#mask0_81_2998)">
</g>
<path d="M28.6651 24.811C28.3882 25.4565 28.0461 26.072 27.6441 26.648C27.1071 27.415 26.6661 27.945 26.3281 28.24C25.8031 28.722 25.2391 28.97 24.6361 28.984C24.2041 28.984 23.6821 28.861 23.0741 28.611C22.4641 28.362 21.9041 28.24 21.3911 28.24C20.8541 28.24 20.2781 28.362 19.6611 28.611C19.0451 28.861 18.5471 28.992 18.1661 29.004C17.5891 29.029 17.0121 28.775 16.4371 28.24C16.0701 27.92 15.6111 27.37 15.0601 26.592C14.4701 25.763 13.9851 24.798 13.6051 23.701C13.1981 22.514 12.9941 21.366 12.9941 20.254C12.9941 18.981 13.2691 17.882 13.8201 16.962C14.2369 16.2395 14.8327 15.6365 15.5501 15.211C16.2576 14.7867 17.0652 14.5582 17.8901 14.549C18.3501 14.549 18.9531 14.691 19.7001 14.971C20.4471 15.251 20.9271 15.393 21.1361 15.393C21.2941 15.393 21.8251 15.226 22.7291 14.895C23.5821 14.588 24.3021 14.461 24.8921 14.511C26.4921 14.64 27.6931 15.27 28.4921 16.406C27.0621 17.273 26.3551 18.486 26.3691 20.043C26.3811 21.256 26.8221 22.265 27.6861 23.066C28.0681 23.4316 28.5138 23.7241 29.0011 23.929C28.8951 24.236 28.7831 24.529 28.6651 24.811ZM24.9981 10.38C24.9981 11.33 24.6501 12.218 23.9591 13.039C23.1231 14.015 22.1131 14.58 21.0181 14.491C21.0038 14.3716 20.9968 14.2513 20.9971 14.131C20.9971 13.218 21.3931 12.242 22.1001 11.443C22.4521 11.039 22.9001 10.702 23.4431 10.434C23.9851 10.17 24.4971 10.024 24.9791 9.99902C24.9921 10.127 24.9981 10.254 24.9981 10.38Z" fill="white"/>
</svg>
