
<svg width="64" height="64" viewBox="0 0 64 64" fill="none" xmlns="http://www.w3.org/2000/svg">
<rect width="64" height="64" rx="12" fill="#323045"/>
<path d="M45.5836 23.7598C44.6094 24.1914 43.5629 24.4831 42.4628 24.6149C43.5979 23.9357 44.4472 22.8666 44.8521 21.6073C43.7856 22.2407 42.6183 22.6867 41.4011 22.9256C40.5825 22.0516 39.4983 21.4723 38.3168 21.2776C37.1353 21.083 35.9225 21.2839 34.8669 21.8491C33.8112 22.4143 32.9717 23.3122 32.4786 24.4034C31.9855 25.4946 31.8666 26.7181 32.1401 27.8839C29.9791 27.7754 27.865 27.2137 25.9351 26.2353C24.0052 25.2569 22.3026 23.8836 20.9378 22.2046C20.4711 23.0096 20.2028 23.9429 20.2028 24.9369C20.2022 25.8318 20.4226 26.7129 20.8443 27.5021C21.266 28.2914 21.876 28.9643 22.6201 29.4613C21.7571 29.4338 20.9131 29.2006 20.1584 28.7811V28.8511C20.1583 30.1061 20.5925 31.3225 21.3871 32.2939C22.1818 33.2653 23.2881 33.9318 24.5183 34.1804C23.7177 34.3971 22.8783 34.429 22.0636 34.2738C22.4107 35.3536 23.0868 36.298 23.9972 36.9745C24.9076 37.6511 26.0068 38.026 27.1409 38.0468C25.2157 39.5581 22.8381 40.3779 20.3906 40.3743C19.957 40.3744 19.5239 40.3491 19.0933 40.2984C21.5777 41.8958 24.4697 42.7436 27.4233 42.7403C37.4216 42.7403 42.8874 34.4593 42.8874 27.2773C42.8874 27.0439 42.8816 26.8083 42.8711 26.5749C43.9343 25.8061 44.852 24.854 45.5813 23.7633L45.5836 23.7598Z" fill="white"/>
</svg>
