<svg width="64" height="64" viewBox="0 0 64 64" fill="none" xmlns="http://www.w3.org/2000/svg">
<rect width="64" height="64" rx="12" fill="#F5F7FE"/>
<path d="M45.5835 23.7598C44.6093 24.1914 43.5628 24.4831 42.4626 24.6149C43.5978 23.9357 44.4471 22.8666 44.852 21.6073C43.7855 22.2407 42.6182 22.6867 41.401 22.9256C40.5824 22.0516 39.4982 21.4723 38.3167 21.2776C37.1352 21.083 35.9224 21.2839 34.8668 21.8491C33.8111 22.4143 32.9715 23.3122 32.4785 24.4034C31.9854 25.4946 31.8664 26.7181 32.14 27.8839C29.9789 27.7754 27.8649 27.2137 25.935 26.2353C24.0051 25.2569 22.3025 23.8836 20.9376 22.2046C20.471 23.0096 20.2026 23.9429 20.2026 24.9369C20.2021 25.8318 20.4225 26.7129 20.8442 27.5021C21.2659 28.2914 21.8758 28.9643 22.62 29.4613C21.757 29.4338 20.913 29.2006 20.1583 28.7811V28.8511C20.1582 30.1061 20.5923 31.3225 21.387 32.2939C22.1817 33.2653 23.288 33.9318 24.5181 34.1804C23.7176 34.3971 22.8782 34.429 22.0635 34.2738C22.4106 35.3536 23.0866 36.298 23.9971 36.9745C24.9075 37.6511 26.0067 38.026 27.1408 38.0468C25.2156 39.5581 22.838 40.3779 20.3905 40.3743C19.9569 40.3744 19.5237 40.3491 19.0931 40.2984C21.5775 41.8958 24.4695 42.7436 27.4231 42.7403C37.4215 42.7403 42.8873 34.4593 42.8873 27.2773C42.8873 27.0439 42.8815 26.8083 42.871 26.5749C43.9341 25.8061 44.8519 24.854 45.5811 23.7633L45.5835 23.7598Z" fill="#6680EE"/>
</svg>
