<svg width="24" height="24" viewBox="0 0 24 24" fill="none" xmlns="http://www.w3.org/2000/svg">
<path d="M14.6797 11.341C14.6797 12.821 13.48 14.0207 12.0001 14.0207C10.5202 14.0207 9.32043 12.821 9.32043 11.341C9.32043 9.86109 10.5202 8.66138 12.0001 8.66138C13.48 8.66138 14.6797 9.86109 14.6797 11.341Z" fill="#4263EB"/>
<path d="M21.7409 2.25896C21.2511 1.76949 20.6001 1.5 19.908 1.5H4.09218C3.40003 1.5 2.74906 1.76949 2.25896 2.25928C1.76949 2.74922 1.5 3.40003 1.5 4.09218V6.72825C1.5 7.42039 1.76949 8.0712 2.25928 8.56147C2.74922 9.05094 3.40003 9.32026 4.09218 9.32026H4.22355V4.79489C4.22355 4.45523 4.49897 4.17965 4.83879 4.17965H19.1615C19.5012 4.17965 19.7768 4.45523 19.7768 4.79489V9.32026H19.908C20.6001 9.32026 21.2509 9.05078 21.7412 8.56099C22.2307 8.0712 22.5002 7.42023 22.5002 6.72825V4.09218C22.5002 3.40003 22.2307 2.74922 21.7409 2.25896Z" fill="#4263EB"/>
<path d="M5.45386 20.5667C5.45386 21.0834 5.65509 21.5689 6.01991 21.9332C6.38489 22.2987 6.87035 22.4999 7.38705 22.4999H16.6131C17.1298 22.4999 17.6152 22.2987 17.9796 21.9339C18.3449 21.5689 18.5461 21.0834 18.5461 20.5667V5.40991H5.45386V20.5667ZM12.0001 7.43075C14.1561 7.43075 15.9102 9.18482 15.9102 11.3409C15.9102 13.4969 14.1561 15.251 12.0001 15.251C9.844 15.251 8.08993 13.4969 8.08993 11.3409C8.08993 9.18482 9.844 7.43075 12.0001 7.43075ZM8.70517 17.9746H15.295C15.6348 17.9746 15.9102 18.25 15.9102 18.5898C15.9102 18.9295 15.6348 19.205 15.295 19.205H8.70517C8.36535 19.205 8.08993 18.9295 8.08993 18.5898C8.08993 18.25 8.36535 17.9746 8.70517 17.9746Z" fill="#4263EB"/>
</svg>
