<svg width="311" height="180" viewBox="0 0 311 180" fill="none" xmlns="http://www.w3.org/2000/svg">
<rect width="311" height="180" rx="16" fill="#0C2073"/>
<mask id="mask0_3_1565" style="mask-type:alpha" maskUnits="userSpaceOnUse" x="0" y="0" width="311" height="180">
<rect width="311" height="180" rx="16" fill="#2378FA"/>
</mask>
<g mask="url(#mask0_3_1565)">
<path d="M164 39.8806C155.779 18.8347 149 -16 149 -16H364.5V192H239C239 192 236.116 157.38 229.431 136.378C215.621 92.9886 180.568 82.2929 164 39.8806Z" fill="#C8D1F9" stroke="black"/>
<mask id="mask1_3_1565" style="mask-type:luminance" maskUnits="userSpaceOnUse" x="-279" y="0" width="553" height="180">
<rect width="551.621" height="180" transform="matrix(1 9.19204e-08 8.31452e-08 -1 -278.272 180)" fill="white"/>
</mask>
<g mask="url(#mask1_3_1565)">
<mask id="mask2_3_1565" style="mask-type:luminance" maskUnits="userSpaceOnUse" x="-279" y="0" width="553" height="180">
<rect width="551.621" height="180" transform="matrix(1 9.19204e-08 8.31452e-08 -1 -278.272 180)" fill="white"/>
</mask>
<g mask="url(#mask2_3_1565)">
<mask id="mask3_3_1565" style="mask-type:luminance" maskUnits="userSpaceOnUse" x="-248" y="0" width="525" height="181">
<path fill-rule="evenodd" clip-rule="evenodd" d="M-247.626 180.092L-247.626 0.0917873L154.049 0.0918261C187.003 0.15909 205.717 12.2366 214.907 40.6916L254.183 158.275C261.292 178.798 276.241 180.081 276.375 180.092" fill="white"/>
</mask>
<g mask="url(#mask3_3_1565)">
<path fill-rule="evenodd" clip-rule="evenodd" d="M196.794 153.746L180.111 104.018L208.589 19.1194C208.589 19.1194 215.558 1.18204 221.944 0.0918107L283.984 0.0918169L283.984 180.092L226.367 180.092C209.795 180.092 203.176 174.289 196.794 153.746Z" fill="#4263EB"/>
</g>
<mask id="mask4_3_1565" style="mask-type:luminance" maskUnits="userSpaceOnUse" x="-248" y="0" width="525" height="181">
<path fill-rule="evenodd" clip-rule="evenodd" d="M-247.626 180.068L-247.626 0.0905819L154.049 0.0906207C187.003 0.157869 205.717 12.2339 214.907 40.6854L254.183 158.254C261.292 178.775 276.241 180.057 276.375 180.068" fill="white"/>
</mask>
<g mask="url(#mask4_3_1565)">
<path fill-rule="evenodd" clip-rule="evenodd" d="M180.112 105.25L151.631 19.3467C151.631 19.3467 144.666 1.19563 138.305 0.0944443L221.945 0.0944528C215.558 1.19564 208.59 19.3467 208.59 19.3467L180.112 105.25Z" fill="#173EDD"/>
</g>
</g>
</g>
<g filter="url(#filter0_b_3_1565)">
<rect x="-15" y="-62" width="348" height="126" fill="white" fill-opacity="0.2"/>
</g>
</g>
<path fill-rule="evenodd" clip-rule="evenodd" d="M29 29L34 24V34H24L29 29ZM34 34H44C44 34 38.9707 34.9436 37.0571 36.8571C35.0655 38.8488 34 44 34 44V34Z" fill="white"/>
<path d="M48.7 39V38.762L53.488 30.698H49.12V28.92H56.82V29.158L52.06 37.208H56.68V39H48.7ZM61.8696 39.21C61.095 39.21 60.4113 39.0443 59.8186 38.713C59.2306 38.377 58.7686 37.9173 58.4326 37.334C58.1013 36.746 57.9356 36.074 57.9356 35.318C57.9356 34.492 58.099 33.7733 58.4256 33.162C58.7523 32.5507 59.2026 32.077 59.7766 31.741C60.3506 31.4003 61.011 31.23 61.7576 31.23C62.551 31.23 63.2253 31.4167 63.7806 31.79C64.336 32.1633 64.7466 32.6883 65.0126 33.365C65.2786 34.0417 65.372 34.8373 65.2926 35.752H63.4096V35.052C63.4096 34.282 63.286 33.729 63.0386 33.393C62.796 33.0523 62.397 32.882 61.8416 32.882C61.193 32.882 60.7146 33.0803 60.4066 33.477C60.1033 33.869 59.9516 34.45 59.9516 35.22C59.9516 35.9247 60.1033 36.4707 60.4066 36.858C60.7146 37.2407 61.165 37.432 61.7576 37.432C62.131 37.432 62.4506 37.3503 62.7166 37.187C62.9826 37.0237 63.1856 36.788 63.3256 36.48L65.2296 37.026C64.945 37.7167 64.4946 38.2533 63.8786 38.636C63.2673 39.0187 62.5976 39.21 61.8696 39.21ZM59.3636 35.752V34.338H64.3756V35.752H59.3636ZM70.2472 39.21C69.4725 39.21 68.7889 39.0443 68.1962 38.713C67.6082 38.377 67.1462 37.9173 66.8102 37.334C66.4789 36.746 66.3132 36.074 66.3132 35.318C66.3132 34.492 66.4765 33.7733 66.8032 33.162C67.1299 32.5507 67.5802 32.077 68.1542 31.741C68.7282 31.4003 69.3885 31.23 70.1352 31.23C70.9285 31.23 71.6029 31.4167 72.1582 31.79C72.7135 32.1633 73.1242 32.6883 73.3902 33.365C73.6562 34.0417 73.7495 34.8373 73.6702 35.752H71.7872V35.052C71.7872 34.282 71.6635 33.729 71.4162 33.393C71.1735 33.0523 70.7745 32.882 70.2192 32.882C69.5705 32.882 69.0922 33.0803 68.7842 33.477C68.4809 33.869 68.3292 34.45 68.3292 35.22C68.3292 35.9247 68.4809 36.4707 68.7842 36.858C69.0922 37.2407 69.5425 37.432 70.1352 37.432C70.5085 37.432 70.8282 37.3503 71.0942 37.187C71.3602 37.0237 71.5632 36.788 71.7032 36.48L73.6072 37.026C73.3225 37.7167 72.8722 38.2533 72.2562 38.636C71.6449 39.0187 70.9752 39.21 70.2472 39.21ZM67.7412 35.752V34.338H72.7532V35.752H67.7412ZM80.0577 39V35.43C80.0577 35.2573 80.0484 35.038 80.0297 34.772C80.011 34.5013 79.9527 34.2307 79.8547 33.96C79.7567 33.6893 79.5957 33.463 79.3717 33.281C79.1524 33.099 78.8397 33.008 78.4337 33.008C78.2704 33.008 78.0954 33.0337 77.9087 33.085C77.722 33.1363 77.547 33.2367 77.3837 33.386C77.2204 33.5307 77.085 33.7453 76.9777 34.03C76.875 34.3147 76.8237 34.6927 76.8237 35.164L75.7317 34.646C75.7317 34.0487 75.853 33.4887 76.0957 32.966C76.3384 32.4433 76.7024 32.021 77.1877 31.699C77.6777 31.377 78.2937 31.216 79.0357 31.216C79.6284 31.216 80.1114 31.3163 80.4847 31.517C80.858 31.7177 81.1474 31.972 81.3527 32.28C81.5627 32.588 81.712 32.91 81.8007 33.246C81.8894 33.5773 81.943 33.8807 81.9617 34.156C81.9804 34.4313 81.9897 34.632 81.9897 34.758V39H80.0577ZM74.8917 39V31.44H76.5857V33.946H76.8237V39H74.8917Z" fill="white"/>
<path d="M30.192 115.4V112.52H33.456V115.4H30.192ZM30.192 96.224V93.344H33.456V96.224H30.192ZM31.848 113.36C30.608 113.36 29.5 113.132 28.524 112.676C27.548 112.212 26.752 111.56 26.136 110.72C25.52 109.872 25.128 108.872 24.96 107.72L28.2 107.216C28.416 108.16 28.868 108.912 29.556 109.472C30.252 110.032 31.08 110.312 32.04 110.312C32.944 110.312 33.692 110.1 34.284 109.676C34.884 109.252 35.184 108.728 35.184 108.104C35.184 107.68 35.052 107.332 34.788 107.06C34.532 106.78 34.128 106.552 33.576 106.376L29.304 105.056C26.84 104.296 25.608 102.792 25.608 100.544C25.608 99.488 25.856 98.572 26.352 97.796C26.856 97.02 27.564 96.424 28.476 96.008C29.396 95.584 30.48 95.376 31.728 95.384C32.872 95.4 33.888 95.608 34.776 96.008C35.664 96.4 36.404 96.972 36.996 97.724C37.596 98.468 38.032 99.376 38.304 100.448L34.944 101.048C34.832 100.536 34.624 100.088 34.32 99.704C34.016 99.312 33.636 99.008 33.18 98.792C32.732 98.568 32.232 98.448 31.68 98.432C31.152 98.416 30.672 98.492 30.24 98.66C29.816 98.828 29.476 99.064 29.22 99.368C28.972 99.664 28.848 100 28.848 100.376C28.848 100.792 29.024 101.152 29.376 101.456C29.728 101.752 30.288 102.008 31.056 102.224L34.104 103.088C35.632 103.528 36.732 104.124 37.404 104.876C38.084 105.628 38.424 106.624 38.424 107.864C38.424 108.952 38.148 109.908 37.596 110.732C37.044 111.556 36.272 112.2 35.28 112.664C34.296 113.128 33.152 113.36 31.848 113.36ZM40.335 112.976V110.144L47.583 103.712C48.127 103.232 48.511 102.78 48.735 102.356C48.959 101.932 49.071 101.536 49.071 101.168C49.071 100.64 48.963 100.172 48.747 99.764C48.531 99.348 48.227 99.024 47.835 98.792C47.443 98.552 46.983 98.432 46.455 98.432C45.903 98.432 45.415 98.56 44.991 98.816C44.575 99.064 44.251 99.396 44.019 99.812C43.787 100.22 43.679 100.664 43.695 101.144H40.335C40.335 99.96 40.595 98.936 41.115 98.072C41.635 97.208 42.359 96.54 43.287 96.068C44.215 95.596 45.295 95.36 46.527 95.36C47.655 95.36 48.663 95.608 49.551 96.104C50.447 96.592 51.151 97.276 51.663 98.156C52.175 99.036 52.431 100.056 52.431 101.216C52.431 102.072 52.311 102.784 52.071 103.352C51.831 103.912 51.475 104.432 51.003 104.912C50.531 105.384 49.951 105.92 49.263 106.52L44.583 110.624L44.319 109.904H52.431V112.976H40.335ZM54.8194 116.24L55.0114 114.872C55.3954 114.904 55.7074 114.84 55.9474 114.68C56.1874 114.528 56.3514 114.304 56.4394 114.008C56.5354 113.72 56.5554 113.384 56.4994 113H54.8194V109.736H58.0834V113C58.0834 114.152 57.8154 115.024 57.2794 115.616C56.7434 116.208 55.9234 116.416 54.8194 116.24ZM63.2771 113L69.0851 98.792H61.6931V95.72H72.5891V98.792L66.8051 113H63.2771ZM80.2678 113.312C79.4038 113.312 78.5798 113.14 77.7958 112.796C77.0118 112.444 76.3278 111.952 75.7438 111.32C75.1678 110.688 74.7558 109.944 74.5078 109.088L77.6758 108.248C77.8438 108.88 78.1718 109.372 78.6598 109.724C79.1558 110.068 79.6918 110.24 80.2678 110.24C80.7638 110.24 81.2158 110.12 81.6238 109.88C82.0398 109.64 82.3678 109.316 82.6078 108.908C82.8558 108.5 82.9798 108.048 82.9798 107.552C82.9798 106.808 82.7238 106.172 82.2118 105.644C81.7078 105.108 81.0598 104.84 80.2678 104.84C80.0278 104.84 79.7958 104.876 79.5718 104.948C79.3478 105.012 79.1318 105.104 78.9238 105.224L77.4598 102.656L82.9558 98.096L83.1958 98.792H75.1798V95.72H85.9798V98.792L81.7078 102.92L81.6838 102.008C82.6758 102.16 83.5118 102.508 84.1918 103.052C84.8798 103.588 85.3998 104.252 85.7518 105.044C86.1118 105.828 86.2918 106.664 86.2918 107.552C86.2918 108.64 86.0158 109.62 85.4638 110.492C84.9118 111.356 84.1798 112.044 83.2678 112.556C82.3558 113.06 81.3558 113.312 80.2678 113.312ZM95.1915 113.36C94.0475 113.36 93.0195 113.092 92.1075 112.556C91.2035 112.02 90.4875 111.276 89.9595 110.324C89.4315 109.364 89.1675 108.256 89.1675 107V101.984C89.1675 100.624 89.4315 99.452 89.9595 98.468C90.4875 97.476 91.2315 96.716 92.1915 96.188C93.1515 95.652 94.2795 95.384 95.5755 95.384C96.4155 95.384 97.2155 95.508 97.9755 95.756C98.7355 96.004 99.4315 96.424 100.064 97.016L97.7355 99.344C97.4475 99.056 97.1155 98.832 96.7395 98.672C96.3635 98.512 95.9755 98.432 95.5755 98.432C94.9515 98.432 94.4075 98.58 93.9435 98.876C93.4875 99.164 93.1315 99.544 92.8755 100.016C92.6275 100.48 92.5035 100.976 92.5035 101.504V104.072L91.9515 103.472C92.4475 102.968 93.0195 102.584 93.6675 102.32C94.3235 102.048 94.9995 101.912 95.6955 101.912C96.7835 101.912 97.7395 102.156 98.5635 102.644C99.3955 103.132 100.043 103.8 100.507 104.648C100.979 105.496 101.215 106.464 101.215 107.552C101.215 108.64 100.939 109.624 100.387 110.504C99.8355 111.376 99.1035 112.072 98.1915 112.592C97.2795 113.104 96.2795 113.36 95.1915 113.36ZM95.1915 110.24C95.6875 110.24 96.1395 110.12 96.5475 109.88C96.9635 109.64 97.2915 109.316 97.5315 108.908C97.7795 108.5 97.9035 108.048 97.9035 107.552C97.9035 107.056 97.7835 106.604 97.5435 106.196C97.3035 105.78 96.9795 105.452 96.5715 105.212C96.1635 104.964 95.7115 104.84 95.2155 104.84C94.7195 104.84 94.2635 104.964 93.8475 105.212C93.4395 105.452 93.1115 105.78 92.8635 106.196C92.6235 106.604 92.5035 107.056 92.5035 107.552C92.5035 108.032 92.6235 108.476 92.8635 108.884C93.1035 109.292 93.4275 109.62 93.8355 109.868C94.2435 110.116 94.6955 110.24 95.1915 110.24ZM104.385 113V109.736H107.649V113H104.385ZM111.422 113V99.272L108.182 101.264V97.664L111.422 95.72H114.758V113H111.422ZM124.216 113.36C123.344 113.36 122.524 113.18 121.756 112.82C120.996 112.46 120.34 111.96 119.788 111.32C119.236 110.68 118.84 109.936 118.6 109.088L121.744 108.248C121.848 108.656 122.032 109.008 122.296 109.304C122.568 109.6 122.88 109.832 123.232 110C123.592 110.16 123.96 110.24 124.336 110.24C124.832 110.24 125.284 110.12 125.692 109.88C126.108 109.64 126.436 109.316 126.676 108.908C126.924 108.5 127.048 108.048 127.048 107.552C127.048 107.056 126.924 106.604 126.676 106.196C126.436 105.788 126.108 105.464 125.692 105.224C125.284 104.984 124.832 104.864 124.336 104.864C123.728 104.864 123.232 104.968 122.848 105.176C122.464 105.376 122.176 105.568 121.984 105.752L119.224 104.912L119.752 95.72H129.184V98.768H121.552L122.704 97.688L122.344 103.616L121.792 102.944C122.224 102.592 122.716 102.336 123.268 102.176C123.82 102.016 124.336 101.936 124.816 101.936C125.904 101.936 126.86 102.18 127.684 102.668C128.516 103.148 129.164 103.812 129.628 104.66C130.1 105.5 130.336 106.464 130.336 107.552C130.336 108.64 130.052 109.624 129.484 110.504C128.916 111.376 128.168 112.072 127.24 112.592C126.312 113.104 125.304 113.36 124.216 113.36Z" fill="white"/>
<path d="M154.18 102.12C153.987 101.813 153.78 101.527 153.567 101.26C153.32 100.947 152.853 100.92 152.573 101.2L150.573 103.2C150.72 103.64 150.747 104.147 150.613 104.673C150.38 105.613 149.62 106.373 148.68 106.607C148.153 106.74 147.647 106.713 147.207 106.567C147.207 106.567 146.253 107.52 145.567 108.207C145.233 108.54 145.34 109.127 145.787 109.3C146.5 109.573 147.24 109.713 148 109.713C149.187 109.713 150.34 109.367 151.393 108.72C152.467 108.053 153.433 107.073 154.213 105.827C154.847 104.82 154.813 103.127 154.18 102.12Z" fill="white"/>
<path d="M149.347 102.653L146.653 105.346C146.313 105 146.093 104.52 146.093 104C146.093 102.953 146.947 102.093 148 102.093C148.52 102.093 149 102.313 149.347 102.653Z" fill="white"/>
<path d="M152.167 99.8334L149.907 102.093C149.42 101.6 148.747 101.307 148 101.307C146.507 101.307 145.307 102.513 145.307 104C145.307 104.747 145.607 105.42 146.093 105.907L143.84 108.167H143.833C143.093 107.567 142.413 106.8 141.833 105.893C141.167 104.847 141.167 103.147 141.833 102.1C142.607 100.887 143.553 99.9334 144.607 99.2801C145.66 98.6401 146.813 98.2868 148 98.2868C149.487 98.2868 150.927 98.8334 152.167 99.8334Z" fill="white"/>
<path d="M149.907 104C149.907 105.047 149.053 105.907 148 105.907C147.96 105.907 147.927 105.907 147.887 105.893L149.893 103.887C149.907 103.927 149.907 103.96 149.907 104Z" fill="white"/>
<path d="M154.513 97.4864C154.313 97.2864 153.987 97.2864 153.787 97.4864L141.487 109.793C141.287 109.993 141.287 110.32 141.487 110.52C141.587 110.613 141.713 110.666 141.847 110.666C141.98 110.666 142.107 110.613 142.207 110.513L154.513 98.2064C154.72 98.0064 154.72 97.6864 154.513 97.4864Z" fill="white"/>
<circle cx="27" cy="145" r="3" fill="white"/>
<circle cx="37" cy="145" r="3" fill="white"/>
<circle cx="47" cy="145" r="3" fill="white"/>
<circle cx="57" cy="145" r="3" fill="white"/>
<path d="M80.536 151.24C79.944 151.24 79.392 151.12 78.88 150.88C78.3733 150.635 77.9387 150.299 77.576 149.872C77.2133 149.44 76.9547 148.944 76.8 148.384L78.408 147.952C78.4987 148.293 78.6533 148.589 78.872 148.84C79.096 149.091 79.3573 149.285 79.656 149.424C79.9547 149.557 80.264 149.624 80.584 149.624C81.0053 149.624 81.3867 149.523 81.728 149.32C82.0747 149.117 82.3467 148.845 82.544 148.504C82.7467 148.163 82.848 147.787 82.848 147.376C82.848 146.955 82.744 146.573 82.536 146.232C82.3333 145.891 82.0587 145.621 81.712 145.424C81.3707 145.221 80.9947 145.12 80.584 145.12C80.1147 145.12 79.7173 145.213 79.392 145.4C79.0667 145.587 78.8133 145.803 78.632 146.048L77.176 145.536L77.528 139.48H83.744V141.056H78.384L79.064 140.424L78.784 144.96L78.456 144.536C78.76 144.232 79.1227 144 79.544 143.84C79.9653 143.68 80.384 143.6 80.8 143.6C81.5147 143.6 82.152 143.765 82.712 144.096C83.2773 144.427 83.7227 144.877 84.048 145.448C84.3733 146.013 84.536 146.656 84.536 147.376C84.536 148.091 84.352 148.741 83.984 149.328C83.616 149.909 83.128 150.373 82.52 150.72C81.912 151.067 81.2507 151.24 80.536 151.24ZM89.6721 151.216C89.1015 151.216 88.5655 151.109 88.0641 150.896C87.5628 150.677 87.1281 150.368 86.7601 149.968C86.3975 149.568 86.1335 149.096 85.9681 148.552L87.5841 148.104C87.7388 148.6 88.0081 148.981 88.3921 149.248C88.7761 149.509 89.2028 149.637 89.6721 149.632C90.0935 149.627 90.4641 149.528 90.7841 149.336C91.1041 149.144 91.3548 148.885 91.5361 148.56C91.7175 148.229 91.8081 147.851 91.8081 147.424C91.8081 146.784 91.6081 146.256 91.2081 145.84C90.8135 145.424 90.2961 145.216 89.6561 145.216C89.4748 145.216 89.2881 145.243 89.0961 145.296C88.9095 145.349 88.7335 145.419 88.5681 145.504L87.7841 144.184L91.8481 140.592L92.0241 141.072H86.4241V139.48H93.3521V141.072L89.9761 144.32L89.9601 143.776C90.6855 143.776 91.3148 143.939 91.8481 144.264C92.3815 144.584 92.7921 145.021 93.0801 145.576C93.3735 146.125 93.5201 146.741 93.5201 147.424C93.5201 148.16 93.3468 148.813 93.0001 149.384C92.6588 149.955 92.1975 150.403 91.6161 150.728C91.0401 151.053 90.3921 151.216 89.6721 151.216ZM97.6124 151V141.32L95.4444 142.64V140.776L97.6124 139.48H99.3164V151H97.6124ZM106.042 151.24C105.29 151.24 104.624 151.091 104.042 150.792C103.466 150.488 103.013 150.067 102.682 149.528C102.357 148.989 102.194 148.365 102.194 147.656C102.194 146.995 102.349 146.389 102.658 145.84C102.968 145.291 103.429 144.859 104.042 144.544L104.01 145.12C103.52 144.816 103.141 144.437 102.874 143.984C102.613 143.525 102.482 143.013 102.482 142.448C102.482 141.792 102.634 141.224 102.938 140.744C103.242 140.264 103.661 139.893 104.194 139.632C104.733 139.371 105.349 139.24 106.042 139.24C106.736 139.24 107.349 139.371 107.882 139.632C108.416 139.893 108.834 140.264 109.138 140.744C109.442 141.224 109.594 141.792 109.594 142.448C109.594 143.013 109.469 143.523 109.218 143.976C108.968 144.429 108.584 144.811 108.066 145.12L108.042 144.56C108.65 144.859 109.112 145.285 109.426 145.84C109.741 146.389 109.898 146.995 109.898 147.656C109.898 148.365 109.733 148.989 109.402 149.528C109.072 150.067 108.616 150.488 108.034 150.792C107.453 151.091 106.789 151.24 106.042 151.24ZM106.042 149.648C106.661 149.648 107.162 149.48 107.546 149.144C107.93 148.803 108.122 148.307 108.122 147.656C108.122 147.005 107.93 146.509 107.546 146.168C107.168 145.821 106.666 145.648 106.042 145.648C105.418 145.648 104.914 145.821 104.53 146.168C104.152 146.509 103.962 147.005 103.962 147.656C103.962 148.307 104.154 148.803 104.538 149.144C104.922 149.48 105.424 149.648 106.042 149.648ZM106.042 144.048C106.57 144.048 106.997 143.917 107.322 143.656C107.653 143.389 107.818 142.987 107.818 142.448C107.818 141.909 107.653 141.507 107.322 141.24C106.997 140.968 106.57 140.832 106.042 140.832C105.514 140.832 105.085 140.968 104.754 141.24C104.424 141.507 104.258 141.909 104.258 142.448C104.258 142.987 104.424 143.389 104.754 143.656C105.085 143.917 105.514 144.048 106.042 144.048Z" fill="white"/>
<path d="M264.333 46.6667C269.488 46.6667 273.667 42.488 273.667 37.3333C273.667 32.1787 269.488 28 264.333 28C259.179 28 255 32.1787 255 37.3333C255 42.488 259.179 46.6667 264.333 46.6667Z" fill="white" fill-opacity="0.7"/>
<path d="M277.667 46.6667C282.821 46.6667 287 42.488 287 37.3333C287 32.1787 282.821 28 277.667 28C272.512 28 268.333 32.1787 268.333 37.3333C268.333 42.488 272.512 46.6667 277.667 46.6667Z" fill="white" fill-opacity="0.5"/>
<path d="M286.37 52.0075V52.0692H286.429C286.441 52.0694 286.452 52.0667 286.461 52.0613C286.465 52.0587 286.468 52.0551 286.471 52.051C286.473 52.0469 286.474 52.0423 286.473 52.0377C286.474 52.0332 286.473 52.0288 286.47 52.0247C286.468 52.0207 286.465 52.0173 286.461 52.0148C286.452 52.0092 286.441 52.0064 286.429 52.0069H286.37V52.0075ZM286.43 51.9639C286.456 51.9623 286.481 51.9694 286.502 51.9839C286.51 51.9905 286.517 51.9988 286.521 52.0083C286.525 52.0178 286.527 52.0281 286.527 52.0385C286.527 52.0474 286.526 52.0563 286.522 52.0646C286.519 52.0729 286.513 52.0803 286.507 52.0865C286.491 52.0999 286.471 52.108 286.449 52.1095L286.529 52.1974H286.468L286.394 52.1101H286.37V52.1974H286.319V51.964H286.431L286.43 51.9639ZM286.414 52.2779C286.441 52.2781 286.468 52.2729 286.493 52.2625C286.516 52.2526 286.538 52.2384 286.557 52.2207C286.575 52.203 286.59 52.182 286.6 52.159C286.621 52.1101 286.621 52.0552 286.6 52.0063C286.59 51.9833 286.575 51.9624 286.557 51.9446C286.538 51.9269 286.516 51.9127 286.493 51.9028C286.468 51.8929 286.441 51.888 286.414 51.8883C286.387 51.888 286.359 51.893 286.334 51.9028C286.31 51.9125 286.287 51.9267 286.269 51.9446C286.24 51.9726 286.221 52.008 286.214 52.0464C286.206 52.0847 286.21 52.1244 286.226 52.1605C286.236 52.1837 286.25 52.2047 286.269 52.2222C286.287 52.2401 286.31 52.2543 286.334 52.264C286.359 52.2744 286.387 52.2797 286.414 52.2794V52.2779ZM286.414 51.8321C286.484 51.8321 286.552 51.8587 286.602 51.9062C286.626 51.929 286.645 51.9562 286.659 51.9862C286.672 52.0171 286.679 52.0502 286.679 52.0838C286.679 52.1173 286.672 52.1505 286.659 52.1813C286.645 52.2112 286.626 52.2384 286.602 52.2614C286.577 52.2841 286.549 52.3024 286.518 52.3154C286.485 52.3288 286.45 52.3356 286.414 52.3354C286.378 52.3357 286.342 52.3288 286.309 52.3154C286.277 52.3027 286.249 52.2843 286.224 52.2614C286.2 52.2375 286.181 52.2094 286.168 52.1787C286.155 52.1479 286.148 52.1147 286.148 52.0812C286.148 52.0476 286.155 52.0144 286.168 51.9836C286.181 51.9536 286.201 51.9264 286.225 51.9036C286.249 51.8802 286.278 51.8618 286.31 51.8496C286.343 51.8361 286.379 51.8293 286.415 51.8295L286.414 51.8321ZM261.915 50.9309C261.915 50.4859 262.217 50.1204 262.711 50.1204C263.184 50.1204 263.503 50.4702 263.503 50.9309C263.503 51.3916 263.184 51.7414 262.711 51.7414C262.217 51.7414 261.915 51.3759 261.915 50.9309ZM264.041 50.9309V49.6646H263.47V49.9731C263.289 49.7451 263.014 49.6022 262.64 49.6022C261.904 49.6022 261.327 50.1587 261.327 50.9315C261.327 51.7044 261.904 52.2609 262.64 52.2609C263.014 52.2609 263.289 52.1178 263.47 51.89V52.1974H264.04V50.9309H264.041ZM283.336 50.9309C283.336 50.4859 283.638 50.1204 284.132 50.1204C284.605 50.1204 284.923 50.4702 284.923 50.9309C284.923 51.3916 284.605 51.7414 284.132 51.7414C283.638 51.7414 283.336 51.3759 283.336 50.9309ZM285.462 50.9309V48.6482H284.891V49.9731C284.71 49.7451 284.435 49.6022 284.061 49.6022C283.325 49.6022 282.748 50.1587 282.748 50.9315C282.748 51.7044 283.325 52.2609 284.061 52.2609C284.435 52.2609 284.71 52.1178 284.891 51.89V52.1974H285.462V50.9309ZM271.128 50.0943C271.496 50.0943 271.733 50.3167 271.793 50.7084H270.43C270.491 50.3428 270.722 50.0943 271.128 50.0943H271.128ZM271.14 49.6008C270.37 49.6008 269.832 50.1406 269.832 50.9302C269.832 51.7351 270.392 52.2595 271.178 52.2595C271.574 52.2595 271.936 52.1644 272.255 51.9048L271.975 51.4968C271.755 51.6665 271.474 51.7617 271.211 51.7617C270.843 51.7617 270.508 51.5974 270.425 51.1416H272.375C272.381 51.0731 272.387 51.004 272.387 50.93C272.381 50.1408 271.875 49.6006 271.139 49.6006L271.14 49.6008ZM278.034 50.93C278.034 50.485 278.336 50.1195 278.831 50.1195C279.303 50.1195 279.622 50.4693 279.622 50.93C279.622 51.3907 279.303 51.7405 278.831 51.7405C278.336 51.7405 278.034 51.375 278.034 50.93H278.034ZM280.16 50.93V49.6646H279.589V49.9731C279.407 49.7451 279.133 49.6022 278.76 49.6022C278.024 49.6022 277.446 50.1587 277.446 50.9315C277.446 51.7044 278.023 52.2609 278.76 52.2609C279.133 52.2609 279.407 52.1178 279.589 51.89V52.1974H280.16V50.9309L280.16 50.93ZM274.809 50.93C274.809 51.698 275.364 52.2594 276.21 52.2594C276.606 52.2594 276.869 52.1745 277.154 51.9575L276.88 51.5126C276.665 51.6611 276.44 51.7405 276.192 51.7405C275.736 51.7351 275.401 51.4174 275.401 50.93C275.401 50.4426 275.736 50.125 276.192 50.1195C276.44 50.1195 276.665 50.1989 276.88 50.3474L277.154 49.9025C276.869 49.6854 276.605 49.6006 276.21 49.6006C275.364 49.6006 274.809 50.1619 274.809 50.93ZM282.171 49.6006C281.841 49.6006 281.627 49.7491 281.478 49.9716V49.6646H280.912V52.196H281.484V50.777C281.484 50.3581 281.671 50.1253 282.044 50.1253C282.166 50.1236 282.288 50.1453 282.401 50.189L282.577 49.6702C282.451 49.6222 282.286 49.6011 282.17 49.6011L282.171 49.6006ZM266.864 49.8659C266.589 49.6913 266.211 49.6011 265.793 49.6011C265.128 49.6011 264.7 49.9085 264.7 50.4114C264.7 50.8242 265.019 51.0788 265.606 51.1583L265.875 51.1953C266.189 51.2377 266.336 51.3171 266.336 51.4601C266.336 51.6558 266.128 51.7675 265.738 51.7675C265.342 51.7675 265.057 51.6457 264.864 51.5027L264.596 51.9319C264.909 52.1543 265.305 52.2605 265.733 52.2605C266.491 52.2605 266.931 51.9162 266.931 51.4342C266.931 50.9892 266.585 50.7565 266.014 50.677L265.744 50.6394C265.497 50.6086 265.299 50.5606 265.299 50.3909C265.299 50.2058 265.486 50.0945 265.799 50.0945C266.134 50.0945 266.459 50.2163 266.618 50.3115L266.865 49.8665L266.864 49.8659ZM274.232 49.6015C273.903 49.6015 273.688 49.7501 273.541 49.9725V49.6646H272.975V52.196H273.546V50.777C273.546 50.3581 273.732 50.1253 274.106 50.1253C274.228 50.1236 274.349 50.1453 274.463 50.189L274.639 49.6702C274.512 49.6222 274.348 49.6011 274.232 49.6011L274.232 49.6015ZM269.359 49.6646H268.426V48.8967H267.848V49.6646H267.316V50.1678H267.848V51.3225C267.848 51.9099 268.085 52.2597 268.76 52.2597C269.008 52.2597 269.294 52.1857 269.475 52.064L269.31 51.5926C269.139 51.6878 268.953 51.7357 268.804 51.7357C268.519 51.7357 268.426 51.5661 268.426 51.312V50.1682H269.359V49.6646ZM260.822 52.1966V50.6079C260.822 50.0097 260.426 49.6071 259.789 49.6017C259.454 49.5963 259.108 49.6969 258.866 50.0521C258.685 49.7714 258.399 49.6017 257.998 49.6017C257.717 49.6017 257.443 49.6811 257.229 49.9776V49.6646H256.657V52.196H257.233V50.7924C257.233 50.353 257.486 50.1195 257.876 50.1195C258.256 50.1195 258.447 50.3578 258.447 50.7869V52.1957H259.025V50.7921C259.025 50.3527 259.288 50.1192 259.667 50.1192C260.057 50.1192 260.243 50.3575 260.243 50.7866V52.1954L260.822 52.1966Z" fill="white"/>
<defs>
<filter id="filter0_b_3_1565" x="-45" y="-92" width="408" height="186" filterUnits="userSpaceOnUse" color-interpolation-filters="sRGB">
<feFlood flood-opacity="0" result="BackgroundImageFix"/>
<feGaussianBlur in="BackgroundImageFix" stdDeviation="15"/>
<feComposite in2="SourceAlpha" operator="in" result="effect1_backgroundBlur_3_1565"/>
<feBlend mode="normal" in="SourceGraphic" in2="effect1_backgroundBlur_3_1565" result="shape"/>
</filter>
</defs>
</svg>
