<svg width="33" height="23" viewBox="0 0 33 23" fill="none" xmlns="http://www.w3.org/2000/svg">
<path d="M6.875 16.125V11.5H11V8.41666H6.875V3.79166H4.125V8.41666H0V11.5H4.125V16.125H6.875ZM16.5 14.1979C13.2825 14.1979 6.875 16.0017 6.875 19.5937V22.2917H26.125V19.5937C26.125 16.0017 19.7175 14.1979 16.5 14.1979ZM10.0925 19.2083C11.2475 18.3142 14.0387 17.2812 16.5 17.2812C18.9613 17.2812 21.7525 18.3142 22.9075 19.2083H10.0925ZM16.5 11.5C19.1537 11.5 21.3125 9.07958 21.3125 6.10416C21.3125 3.12874 19.1537 0.708328 16.5 0.708328C13.8463 0.708328 11.6875 3.12874 11.6875 6.10416C11.6875 9.07958 13.8463 11.5 16.5 11.5ZM16.5 3.79166C17.6413 3.79166 18.5625 4.82458 18.5625 6.10416C18.5625 7.38374 17.6413 8.41666 16.5 8.41666C15.3588 8.41666 14.4375 7.38374 14.4375 6.10416C14.4375 4.82458 15.3588 3.79166 16.5 3.79166ZM23.375 11.5C26.0287 11.5 28.1875 9.07958 28.1875 6.10416C28.1875 3.12874 26.0287 0.708328 23.375 0.708328C23.045 0.708328 22.715 0.739162 22.3988 0.816245C23.4438 2.26541 24.0625 4.09999 24.0625 6.10416C24.0625 8.10833 23.4163 9.9275 22.3713 11.3767C22.7013 11.4537 23.0312 11.5 23.375 11.5ZM26.565 14.6142C27.94 15.8629 28.875 17.4971 28.875 19.5937V22.2917H33V19.5937C33 16.9883 29.645 15.3387 26.565 14.6142Z" fill="#4263EB"/>
</svg>
